<?xml version="1.0" encoding="utf-8"?>
<!-- Generator: Adobe Illustrator 25.2.3, SVG Export Plug-In . SVG Version: 6.00 Build 0)  -->
<svg version="1.1" xmlns="http://www.w3.org/2000/svg" xmlns:xlink="http://www.w3.org/1999/xlink" x="0px" y="0px"
	 viewBox="0 0 195.39 164.47" style="enable-background:new 0 0 195.39 164.47;" xml:space="preserve">
<style type="text/css">
	.st0{fill:#FFFEF9;}
	.st1{fill:#FFFBF6;}
	.st2{fill:none;stroke:#FB3D52;stroke-miterlimit:10;}
	.st3{clip-path:url(#SVGID_6_);}
	.st4{fill:none;stroke:#24211E;stroke-width:0.7563;stroke-miterlimit:10;}
	.st5{fill:#12110B;}
	.st6{clip-path:url(#SVGID_36_);}
</style>
<g id="Layer_1">
	<g>
		<g>
			<g>
				<path d="M97.69,5.12c13.12,0,23.76,10.64,23.76,23.76c0,13.12-10.64,23.76-23.76,23.76c-13.12,0-23.76-10.64-23.76-23.76
					C73.93,15.76,84.57,5.12,97.69,5.12 M97.69,2.62c-14.48,0-26.27,11.78-26.27,26.27c0,14.48,11.78,26.27,26.27,26.27
					s26.27-11.78,26.27-26.27C123.95,14.4,112.17,2.62,97.69,2.62L97.69,2.62z"/>
			</g>
			<g>
				<path d="M97.69,0c50.39,0,97.69,28.13,97.69,82.55c0,54.1-47.3,81.93-97.69,81.93C46.99,164.47,0,136.65,0,82.55
					C0,28.13,46.99,0,97.69,0z M45.14,82.55c0,52.56,10.51,76.67,52.56,76.67c40.81,0,52.56-24.11,52.56-76.67
					c0-53.48-13.91-77.29-52.56-77.29C59.36,5.26,45.14,29.06,45.14,82.55z"/>
			</g>
		</g>
	</g>
</g>
<g id="Layer_2">
</g>
</svg>
