<svg id="Layer_1" data-name="Layer 1" xmlns="http://www.w3.org/2000/svg" viewBox="0 0 60 60"><defs><style>.cls-1{fill:#ff3e5a;}</style></defs><path class="cls-1" d="M34.37,5.76C34.22,8.65,34,17.24,34,24c9.29,0,20.37-.08,24-.24v7.5c-3.51-.16-13-.39-21.62-.39,4.68,6.94,11.71,15.76,14,18.65-2.49,1.56-4.52,3-6.94,4.69C41.63,51.11,34.76,40.73,30,33.63c-4.76,7.1-11.63,17.56-13.35,20.61-2.42-1.64-4.45-3.13-6.94-4.61C12,46.74,19,37.84,23.75,30.9c-8.74,0-18.18.23-21.77.39v-7.5C5.65,24,16.73,24,26.1,24c-.08-6.87-.16-15.54-.24-18.27,1.56,0,2.85.06,4.17.06s2.66,0,4.34-.06m-9.54-1,0,1c.06,2,.12,7.57.18,12.91L25.09,23C16.28,23,5.6,23,2,22.79l-1,0v9.58l1,0c3.37-.14,11.7-.35,19.82-.38C17.41,38.19,11.6,45.6,9.29,48.53L8.92,49l-.7.9,1,.58c1.84,1.09,3.43,2.19,5.11,3.35l1.79,1.23.9.61.53-1C19.19,51.77,25.6,42,30,35.43c5.17,7.72,11,16.51,12.56,19.31l.55.95.9-.64c2.45-1.74,4.46-3.13,6.89-4.65l1-.59-.69-.88-.77-1c-2.66-3.39-8-10.13-12.09-16.06,7.84,0,16.26.23,19.68.38l1,0V22.75l-1,0C54.39,23,43.76,23,35,23c0-6.51.24-14.4.39-17.21l.06-1.08-1.08,0c-1.74,0-3.07.06-4.32.06s-2.53,0-4.14-.06l-1.06,0Z"/></svg>