<svg id="Layer_1" data-name="Layer 1" xmlns="http://www.w3.org/2000/svg" viewBox="0 0 201.29 400.32"><defs><style>.cls-1{fill:#ff3e5a;}</style></defs><path class="cls-1" d="M6.87,4.57,6.52,20.82,0,20.68.34,4.44ZM7,.14,6.89,3.31.37,3.17.44,0Z"/><path class="cls-1" d="M11.43,1.56V1.4L18,1.9,16.46,21.48,10,21l.13-1.75Z"/><path class="cls-1" d="M46.11,9.68l-2.88,16-6.35-1.14.44-2.45c-1.63,1.14-3.81,1.82-7.47,1.16-4.72-.85-7.43-2.16-8.31-5.43-.63-2.36-.33-5.15.75-11.14l.23-1.26,6.37,1.15s-.52,2.9-.95,5.27-1,5.39,3.73,6.25a9,9,0,0,0,6.62-1.39l1.48-8.18Z"/><path class="cls-1" d="M68.22,28.62c-1.34,4.05-3.3,4.78-12.58,1.71-4.37-1.44-8.29-3-9.11-4.5L49.7,22c.71.89,4.75,2.67,7.76,3.66,3.51,1.16,4.75,1.65,4.92,1.13s-.94-1.29-4.88-2.59C50.91,22,47.86,20.05,49.2,16c1.55-4.69,5-4.06,12.16-1.7,6.79,2.24,8.21,3.38,9.63,4.89l-3.32,3.6a32.08,32.08,0,0,0-8.25-4c-3.19-1.06-4.09-1.4-4.29-.82s.54,1,3.81,2.11C67.69,23,69.57,24.55,68.22,28.62Z"/><path class="cls-1" d="M86.59,35.78l-.08,5.55a33.62,33.62,0,0,1-9.88-3.21c-4.65-2.21-5.08-3.55-2-10.1l1.4-2.94-2.93-1.39,2.1-4.41,2.92,1.39,1.46-3.06,5.89,2.8-1.45,3.07,7.15,3.4-2.09,4.4L82,27.88l-1.4,2.94s-1.42,2.51.8,3.56A18.92,18.92,0,0,0,86.59,35.78Z"/><path class="cls-1" d="M112.79,42.12,108.06,45a14.87,14.87,0,0,0-3.52-3.84,7.08,7.08,0,0,0-6.4-1.29L93.56,47.1l-5.51-3.5,8.72-13.74.38.24h0l5.13,3.26h0l-1.21,1.9c1.45-.5,3.72-.3,7,1.8C111.89,39.47,112.79,42.12,112.79,42.12Z"/><path class="cls-1" d="M124,69.82l-5-4.12.94-1.15a14,14,0,0,1-6.45-3c-3.33-2.76-7.88-6.76-4.61-10.71,2.3-2.78,7-.55,11,2.76a17.91,17.91,0,0,1,4.21,4.82c.88-2.36-.22-3.72-3-6A25.43,25.43,0,0,0,114,48l1.69-4.36a28.5,28.5,0,0,1,9,5.13c2.46,2,7.35,6.64,6.15,10.84-.8,2.82-3.48,6.18-6.83,10.24Zm-2.09-8.32a2.5,2.5,0,0,0,.18-.23c0-.23,0-1-3.67-4-2.44-2-3.58-2.5-4-1.93-.66.8.86,2.26,2.34,3.48C119,60.71,121.39,61.66,121.88,61.5Z"/><path class="cls-1" d="M149.06,81.9l-5.15-4.17s1.26-1.8-1.92-5.29-4.8-2.55-5.83-1.61-2.13,2.55,1,6c3.29,3.61,5.06,2.49,5.06,2.49l3.73,5.4c-2.26,2.06-6.44,2.1-12.66-4.71-6-6.58-5.1-10.91-1.65-14.06,3.7-3.37,8.29-3.18,13.75,2.8C151.51,75.43,151.21,79.94,149.06,81.9Z"/><path class="cls-1" d="M160.14,86.92l-10.65,8.17-.5.39c-5.32,4.08-8.36,4.43-14.74-4.07l4.12-3.17c3.06,4,3.89,4.17,7.24,1.6l10.56-8.1Zm3.52-2.7-2.51,1.93-4-5.18L159.69,79Z"/><path class="cls-1" d="M166.87,115.76c-1.73-2.88-.93-1.54-8.57-14.3-.69.6-.66,2.21,1.15,5.24a33.71,33.71,0,0,0,5.38,6.81l-2.45,4.75s-2.55-1.44-7-8.87c-5-8.37-3.29-12,1-14.57s9.1-1,13.22,5.87C173.37,107,173.67,112.33,166.87,115.76ZM160.76,100l5.16,8.62c.93-.55,1.32-2-.65-5.29C163,99.6,161.44,99.57,160.76,100Z"/><path class="cls-1" d="M173.66,151.21l1.41-.46a13.86,13.86,0,0,1-3.81-6c-1.33-4.11-3-9.93,1.87-11.51,3.42-1.1,6.2,3.32,7.8,8.26a17.92,17.92,0,0,1,1,6.32c2-1.51,1.81-3.26.71-6.66a25.29,25.29,0,0,0-3.66-7.58l3.77-2.77a28.13,28.13,0,0,1,4.83,9.16c1,3,2.63,9.55-.63,12.44-2.2,2-6.26,3.35-11.27,5Zm4.69-2,.28-.09c.1-.21.51-.85-.95-5.36-1-3-1.67-4-2.38-3.79-1,.31-.48,2.36.11,4.19C176.32,147,177.85,149.09,178.35,149.22Z"/><path class="cls-1" d="M181.49,181.46l-1.26.23L179,175.28l5.27-1c2.37-.45,6-1,5.13-5.36a5.93,5.93,0,0,0-2.87-4.43l-9.23,1.74-1.22-6.48,16-3,1.22,6.47-2.2.42a10.28,10.28,0,0,1,3.64,6.49c.57,3,.8,6.34-2,8.22C190.78,179.71,187.48,180.33,181.49,181.46Z"/><path class="cls-1" d="M196.87,190.13l-16.2,1.3-.52-6.5,16.2-1.3Zm4.42-.35-3.16.25-.52-6.5,3.16-.26Z"/><path class="cls-1" d="M181.06,230,179.8,230l.34-6.52,5.42.29c2.39.12,5.91,1.13,6.14-3.08a6.84,6.84,0,0,0-1.9-4.95c-2,.06-4.57-.08-8-.26l-1.26-.07.34-6.44,5.41.28c2.39.13,5.92,1.06,6.15-3.15a5.41,5.41,0,0,0-2-4.65l-9.11-.48.34-6.52,16.23.86-.34,6.52-2-.11a11,11,0,0,1,1.76,6.87c-.14,2.64-.64,5.09-3.13,6.32a12.07,12.07,0,0,1,2.36,8.27c-.15,2.86-.7,5.51-3.8,6.6C190.53,230.52,187.1,230.34,181.06,230Z"/><path class="cls-1" d="M173.58,255.11l1.47-6.3,1.45.34a14,14,0,0,1-.16-7.12c1-4.22,2.55-10.07,7.55-8.9,3.51.83,3.6,6.05,2.42,11.1a17.86,17.86,0,0,1-2.44,5.92c2.5-.26,3.23-1.86,4-5.35a25.53,25.53,0,0,0,.78-8.37l4.66-.43a28.48,28.48,0,0,1-.6,10.34c-.72,3.11-2.68,9.54-7,10.33-2.88.53-7.08-.36-12.21-1.56Zm6.52-5.58.29.07c.19-.13.87-.46,2-5.08.73-3.08.65-4.31-.07-4.48-1-.23-1.64,1.78-2.08,3.64C179.52,246.57,179.74,249.16,180.1,249.53Z"/><path class="cls-1" d="M173.87,282.94l1.46-6.46s2.17.33,3.89-4.07.15-5.43-1.14-5.93-3.23-.78-4.93,3.57c-1.77,4.55,0,5.64,0,5.64L170,281.43c-2.85-1.11-4.74-4.85-1.39-13.44,3.23-8.3,7.51-9.41,11.87-7.71,4.66,1.81,6.52,6,3.58,13.57C180.76,282.28,176.58,284,173.87,282.94Z"/><path class="cls-1" d="M174.29,295.1l-12-5.92-.57-.28c-6-3-7.67-5.53-2.89-15l4.67,2.29c-2.22,4.51-2,5.34,1.77,7.2l11.94,5.87Zm4,2-2.85-1.4,2.88-5.86,2.85,1.4Z"/><path class="cls-1" d="M151.44,314c1.81-2.83,1-1.51,9-14-.85-.35-2.28.39-4.19,3.36a34,34,0,0,0-3.71,7.85l-5.34-.09s.15-2.93,4.83-10.22c5.27-8.2,9.31-8.29,13.49-5.6,4.33,2.78,4.94,7.71.61,14.46C162.15,315.9,157.54,318.52,151.44,314Zm11.42-12.48-5.43,8.45c.91.59,2.38.29,4.45-2.93C164.22,303.34,163.53,301.9,162.86,301.47Z"/><path class="cls-1" d="M128.24,352.83l-9.6-9.86c-4.48-4.61-4-9.24,2.22-15.34s9.83-7.12,9.83-7.12l2,5.1s-2.94.19-7.42,4.55c-5.45,5.31-2.07,8.11-2.07,8.11l.47.49c-.66-1.6.9-4.88,3.5-7.41,3.9-3.8,8.57-6.08,12.6-1.94,5.56,5.71,2.19,10.28-1.33,13.7-2.72,2.65-5,3.61-6.8,3.84l1.29,1.32ZM127,342.15l.87.89c1.25,1.29,4.15-.55,6.57-2.89,1.51-1.48,3.05-3.64,1.14-5.6-2.27-2.33-5.1.37-5.76,1s-4.25,4.13-2.82,6.58Z"/><path class="cls-1" d="M107.16,366.71l-1-5.46a15,15,0,0,0,4.87-1.88,7.09,7.09,0,0,0,3.53-5.49L109.52,347l5.26-3.86,9.63,13.11-.37.27h0l-4.9,3.59h0l-1.33-1.82c-.07,1.54-1.07,3.58-4.24,5.9C110,366.84,107.16,366.71,107.16,366.71Z"/><path class="cls-1" d="M77.3,367,83,363.88l.73,1.3a13.77,13.77,0,0,1,5.16-4.9c3.78-2.1,9.16-4.87,11.65-.39,1.75,3.15-2,6.73-6.59,9.25a17.8,17.8,0,0,1-6,2.16c1.87,1.68,3.55,1.15,6.68-.59a25.23,25.23,0,0,0,6.72-5l3.45,3.17a28.45,28.45,0,0,1-8.06,6.5c-2.79,1.55-8.86,4.42-12.33,1.78-2.33-1.78-4.49-5.5-7-10.09Zm8.51,1.09a2,2,0,0,0,.14.26c.22.06.93.34,5.07-2,2.77-1.54,3.63-2.42,3.27-3.07-.5-.9-2.42,0-4.09.91C87.61,365.68,85.84,367.59,85.81,368.1Z"/><path class="cls-1" d="M71.42,383,64.12,386l-1.7-4.21,7.46-3-3-7.57,6.06-2.43,3,7.56,2.23-.9,1.7,4.21-2.34.94c2,5,.66,7.3-3.55,9A38.94,38.94,0,0,1,66.53,392l-1.85-4.6a14,14,0,0,0,4.54-1.12C71.21,385.42,72.23,385.06,71.42,383Z"/><path class="cls-1" d="M54.85,392.52,50,377l6.24-1.93,4.8,15.53Zm1.31,4.24-.94-3,6.24-1.93.93,3Z"/><path class="cls-1" d="M28.1,398.67l7.54-9.87-10.82-6.06,8.72-1.8,6.19,3.72,1.56-2.32-.59-2.86,6.4-1.31,4,19.25-6.39,1.31-1.94-9.4-5.91,7.55Z"/><path class="cls-1" d="M1,384.56l6.45-.48c0,.52.07,1,.11,1.48a13.87,13.87,0,0,1,6.74-2.28c4.32-.32,10.36-.59,10.75,4.53.26,3.59-4.69,5.25-9.87,5.63a17.81,17.81,0,0,1-6.36-.55c1,2.31,2.74,2.52,6.3,2.26a25.65,25.65,0,0,0,8.23-1.77l1.8,4.31a28.3,28.3,0,0,1-10,2.54c-3.18.24-9.9.3-11.94-3.55-1.37-2.6-1.78-6.87-2.17-12.12Zm7.27,4.55a2.33,2.33,0,0,0,0,.3c.17.14.7.69,5.42.34,3.16-.24,4.31-.68,4.25-1.42-.07-1-2.18-1-4.09-.89C10.91,387.66,8.51,388.66,8.26,389.11Z"/></svg>