<svg id="Layer_1" data-name="Layer 1" xmlns="http://www.w3.org/2000/svg" viewBox="0 0 201.29 400.32"><defs><style>.cls-1{fill:#ff3e5a;}</style></defs><path class="cls-1" d="M194.33,400.18l.07-3.17,6.52.14-.07,3.17Zm.09-4.43.35-16.25,6.52.14L201,395.88Z"/><path class="cls-1" d="M189.86,398.76l0,.16-6.5-.49,1.49-19.59,6.51.49-.13,1.75Z"/><path class="cls-1" d="M155.18,390.64l2.88-16,6.35,1.14-.44,2.45c1.63-1.14,3.81-1.82,7.47-1.16,4.72.85,7.43,2.16,8.31,5.43.63,2.36.33,5.15-.75,11.14l-.23,1.26-6.37-1.15s.52-2.9.95-5.27,1-5.39-3.73-6.25a9,9,0,0,0-6.62,1.39l-1.48,8.18Z"/><path class="cls-1" d="M133.07,371.7c1.34-4.05,3.3-4.78,12.58-1.71,4.37,1.44,8.29,3,9.11,4.5l-3.17,3.85c-.71-.89-4.75-2.66-7.76-3.66-3.51-1.16-4.75-1.65-4.92-1.13s.94,1.29,4.88,2.59c6.59,2.18,9.64,4.13,8.3,8.19-1.55,4.69-5,4.06-12.16,1.7-6.79-2.24-8.21-3.38-9.63-4.89l3.32-3.6a32.08,32.08,0,0,0,8.25,4c3.19,1.06,4.09,1.4,4.29.82s-.54-1-3.81-2.11C133.6,377.32,131.72,375.77,133.07,371.7Z"/><path class="cls-1" d="M114.7,364.54l.08-5.55a33.62,33.62,0,0,1,9.88,3.21c4.65,2.21,5.08,3.55,2,10.1l-1.4,2.94,2.93,1.39-2.1,4.41-2.92-1.39-1.46,3.06-5.89-2.8,1.45-3.07-7.15-3.4,2.09-4.4,7.16,3.4,1.4-2.94s1.42-2.51-.8-3.56A18.92,18.92,0,0,0,114.7,364.54Z"/><path class="cls-1" d="M88.5,358.2l4.73-2.89a14.87,14.87,0,0,0,3.52,3.84,7.08,7.08,0,0,0,6.4,1.29l4.58-7.22,5.51,3.5-8.72,13.74-.38-.24h0L99,367h0l1.21-1.9c-1.45.5-3.72.3-7-1.8C89.4,360.85,88.5,358.2,88.5,358.2Z"/><path class="cls-1" d="M77.32,330.5l5,4.12-.94,1.15a13.92,13.92,0,0,1,6.44,3c3.34,2.76,7.89,6.76,4.62,10.71-2.3,2.78-7,.55-11-2.77a17.75,17.75,0,0,1-4.21-4.81c-.88,2.35.22,3.72,3,6a25.74,25.74,0,0,0,7.16,4.43l-1.69,4.36a28.5,28.5,0,0,1-9-5.13c-2.46-2-7.35-6.65-6.15-10.84.8-2.82,3.48-6.18,6.83-10.24Zm2.09,8.32-.19.23c0,.23,0,1,3.68,4,2.44,2,3.58,2.5,4,1.93.66-.8-.86-2.26-2.34-3.48C82.33,339.61,79.9,338.66,79.41,338.82Z"/><path class="cls-1" d="M52.23,318.42l5.15,4.17s-1.26,1.8,1.92,5.29,4.8,2.55,5.83,1.61,2.13-2.55-1-6c-3.29-3.61-5.06-2.49-5.06-2.49l-3.73-5.4c2.26-2.07,6.44-2.1,12.66,4.71,6,6.58,5.1,10.9,1.65,14.06-3.7,3.37-8.29,3.18-13.75-2.8C49.78,324.89,50.08,320.38,52.23,318.42Z"/><path class="cls-1" d="M37.63,316.1l2.51-1.93,4,5.18-2.51,1.93Zm3.52-2.7,10.65-8.17.5-.39c5.32-4.08,8.36-4.43,14.74,4.07l-4.12,3.17c-3.06-4-3.89-4.17-7.24-1.6l-10.56,8.1Z"/><path class="cls-1" d="M34.42,284.56c1.73,2.88.93,1.54,8.57,14.3.69-.6.66-2.21-1.15-5.24a33.71,33.71,0,0,0-5.38-6.81l2.45-4.75s2.55,1.44,7,8.87c5,8.36,3.29,12-1,14.57s-9.1,1-13.22-5.88C27.92,293.29,27.62,288,34.42,284.56Zm6.11,15.78-5.16-8.62c-.93.55-1.32,2,.65,5.28C38.25,300.72,39.85,300.74,40.53,300.34Z"/><path class="cls-1" d="M25.65,243l2,6.15-1.41.46a13.88,13.88,0,0,1,3.81,6c1.33,4.12,3,9.94-1.87,11.52-3.42,1.1-6.2-3.32-7.8-8.26a18,18,0,0,1-1-6.32c-2,1.51-1.81,3.26-.71,6.66a25.29,25.29,0,0,0,3.66,7.58l-3.77,2.77a28.13,28.13,0,0,1-4.83-9.16c-1-3-2.63-9.55.63-12.44,2.2-2,6.26-3.35,11.27-5Zm-2.71,8.14a2.34,2.34,0,0,0-.28.09c-.1.21-.51.85.95,5.35,1,3,1.67,4,2.38,3.8,1-.31.48-2.37-.11-4.19C25,253.33,23.44,251.23,22.94,251.1Z"/><path class="cls-1" d="M19.8,218.86l1.26-.23L22.27,225,17,226c-2.37.45-6,1-5.13,5.36a5.93,5.93,0,0,0,2.87,4.43L24,234.08l1.22,6.47-16,3L8,237.09l2.2-.42a10.31,10.31,0,0,1-3.64-6.49c-.57-3-.8-6.34,2-8.22C10.52,220.6,13.81,220,19.8,218.86Z"/><path class="cls-1" d="M0,210.54l3.16-.25.52,6.5L.52,217Zm4.42-.36,16.2-1.29.52,6.5-16.2,1.3Z"/><path class="cls-1" d="M20.23,170.3l1.26.07-.34,6.52-5.42-.29c-2.38-.13-5.91-1.13-6.13,3.08a6.79,6.79,0,0,0,1.89,4.95c2-.06,4.57.08,8,.26l1.26.07-.34,6.44L15,191.12c-2.39-.13-5.92-1.06-6.15,3.14a5.42,5.42,0,0,0,2,4.66l9.11.48-.34,6.52-16.23-.86.34-6.52,2,.11A11,11,0,0,1,4,191.78c.14-2.64.65-5.09,3.13-6.32a12.07,12.07,0,0,1-2.36-8.27c.15-2.86.7-5.51,3.8-6.6C10.76,169.8,14.19,170,20.23,170.3Z"/><path class="cls-1" d="M27.71,145.21l-1.47,6.3-1.45-.34a14,14,0,0,1,.16,7.12c-1,4.22-2.55,10.06-7.55,8.9-3.51-.83-3.6-6.05-2.42-11.1a17.86,17.86,0,0,1,2.44-5.92c-2.5.26-3.23,1.86-4.05,5.35a25.53,25.53,0,0,0-.78,8.37l-4.66.43A28.74,28.74,0,0,1,8.53,154c.72-3.11,2.68-9.54,7-10.33,2.88-.53,7.08.36,12.21,1.56Zm-6.52,5.58-.29-.07c-.19.13-.87.46-1.95,5.08-.73,3.08-.65,4.31.07,4.48,1,.23,1.64-1.78,2.08-3.64C21.77,153.75,21.55,151.16,21.19,150.79Z"/><path class="cls-1" d="M27.42,117.38,26,123.84s-2.17-.33-3.89,4.07-.15,5.43,1.14,5.93,3.23.78,4.93-3.57c1.77-4.55,0-5.64,0-5.64l3.19-5.74c2.86,1.11,4.74,4.85,1.39,13.44-3.23,8.3-7.51,9.41-11.87,7.71-4.66-1.81-6.52-6-3.58-13.57C20.53,118,24.71,116.32,27.42,117.38Z"/><path class="cls-1" d="M23,103.26l2.85,1.4L23,110.52l-2.85-1.4Zm4,2,12,5.92.57.28c6,3,7.67,5.53,2.89,15l-4.67-2.29c2.22-4.51,2-5.34-1.77-7.2l-11.94-5.87Z"/><path class="cls-1" d="M49.85,86.37c-1.81,2.83-1,1.51-9,14,.85.35,2.28-.39,4.19-3.36a34,34,0,0,0,3.71-7.85l5.34.09s-.15,2.93-4.83,10.22c-5.27,8.2-9.31,8.29-13.49,5.6s-4.94-7.71-.61-14.46C39.14,84.42,43.75,81.8,49.85,86.37ZM38.43,98.85l5.43-8.45c-.91-.59-2.38-.29-4.45,2.93C37.07,97,37.76,98.42,38.43,98.85Z"/><path class="cls-1" d="M73.05,47.49l9.6,9.86c4.48,4.61,4,9.24-2.22,15.34s-9.83,7.12-9.83,7.12l-2-5.1s2.94-.19,7.42-4.55c5.45-5.31,2.07-8.11,2.07-8.11l-.47-.49c.66,1.6-.9,4.88-3.5,7.42-3.9,3.79-8.57,6.07-12.6,1.93C56,65.2,59.35,60.63,62.87,57.21c2.72-2.65,5-3.61,6.8-3.84l-1.29-1.32Zm1.29,10.68-.87-.89c-1.25-1.29-4.16.55-6.57,2.89-1.51,1.48-3.05,3.64-1.14,5.6,2.27,2.33,5.1-.37,5.76-1s4.25-4.13,2.82-6.58Z"/><path class="cls-1" d="M94.13,33.61l1,5.46A15,15,0,0,0,90.24,41a7.11,7.11,0,0,0-3.53,5.49l5.06,6.89L86.51,57.2,76.88,44.08l.37-.27h0l4.9-3.59h0L83.48,42c.07-1.54,1.07-3.58,4.23-5.9C91.34,33.49,94.13,33.62,94.13,33.61Z"/><path class="cls-1" d="M124,33.31l-5.65,3.13c-.25-.45-.49-.88-.73-1.29A13.91,13.91,0,0,1,112.45,40c-3.78,2.1-9.16,4.87-11.65.39-1.75-3.15,2-6.73,6.59-9.25a17.8,17.8,0,0,1,6-2.16c-1.87-1.68-3.55-1.15-6.68.59a25.23,25.23,0,0,0-6.72,5l-3.45-3.17a28.49,28.49,0,0,1,8-6.5c2.8-1.55,8.87-4.42,12.34-1.78,2.33,1.78,4.49,5.5,7,10.09Zm-8.51-1.09a1.52,1.52,0,0,0-.14-.26c-.22-.06-.93-.33-5.07,2-2.77,1.54-3.63,2.42-3.27,3.07.5.9,2.42,0,4.09-.91C113.68,34.64,115.45,32.73,115.48,32.22Z"/><path class="cls-1" d="M129.87,17.29l7.3-2.94,1.69,4.21-7.45,3,3.05,7.57-6.06,2.43-3-7.56-2.23.9-1.7-4.21,2.34-.94c-2-5-.67-7.3,3.55-9a38.94,38.94,0,0,1,7.44-2.38l1.85,4.6a14,14,0,0,0-4.54,1.12C130.07,14.9,129.06,15.26,129.87,17.29Z"/><path class="cls-1" d="M145.13,3.56l.94,3-6.24,1.93-.93-3Zm1.31,4.24,4.81,15.53L145,25.26l-4.8-15.53Z"/><path class="cls-1" d="M173.19,1.65l-7.54,9.88,10.82,6-8.72,1.8-6.19-3.72L160,18l.59,2.86-6.4,1.31-4-19.25,6.4-1.31,1.93,9.4,5.91-7.55Z"/><path class="cls-1" d="M200.3,15.76l-6.45.48c0-.52-.07-1-.11-1.48A13.87,13.87,0,0,1,187,17c-4.32.32-10.36.59-10.75-4.53-.26-3.59,4.69-5.25,9.86-5.63a17.84,17.84,0,0,1,6.37.55c-1-2.3-2.74-2.52-6.3-2.26A25.65,25.65,0,0,0,178,6.94l-1.8-4.31a28.3,28.3,0,0,1,10-2.54c3.18-.24,9.9-.3,11.94,3.55,1.37,2.6,1.78,6.87,2.17,12.12ZM193,11.21a2,2,0,0,0,0-.29c-.17-.15-.7-.7-5.42-.35-3.16.24-4.31.68-4.25,1.42.07,1,2.18,1,4.09.89C190.38,12.66,192.78,11.66,193,11.21Z"/></svg>