<svg id="Layer_1" data-name="Layer 1" xmlns="http://www.w3.org/2000/svg" viewBox="0 0 813.19 813.19"><defs><style>.cls-1{fill:#010101;}</style></defs><path class="cls-1" d="M204.05,124.8C215.4,137,214.19,145.07,186.3,171c-13.13,12.23-25.82,22.71-32.46,22.72l-7.21-18.09c4.37-.75,18-11.22,27.05-19.64,10.56-9.84,14.57-13.15,13.1-14.73s-6.17.81-18,11.85c-19.81,18.45-32.18,25.22-43.57,13-13.1-14.07-4.43-24.78,17-44.75,20.4-19,27-21.73,34.78-23.73l6.09,18.1c-6.78,2.77-19.53,11.91-29,20.76s-12.45,11.37-10.82,13.13c1.21,1.22,4.49.09,14.33-9.08C183.84,116.08,192.67,112.56,204.05,124.8Z"/><path class="cls-1" d="M194.8,78l22.92-11.07,3.6,7.46c3.31-5.92,9.42-13.71,22.47-20,17.06-8.24,38-14.63,50.66,11.55,9.16,19-3.84,35.9-22.77,45-12.39,6-25.23,7.27-30,5.49l12.72,26.33-22.92,11.07Zm74.85-.87c-4.82-10-13.1-8.08-24.81-2.43-9.29,4.49-15,11.4-15.64,16l4.48,9.28c9.4,4.64,26.1-4,26.1-4S275.35,88.92,269.65,77.13Z"/><path class="cls-1" d="M403.83,78.71l-24.92,3.67c-.3-2-.59-3.9-.87-5.73a54.35,54.35,0,0,1-25.58,10.77c-16.68,2.46-40.13,5.17-43-14.62-2.05-13.89,16.74-21.72,36.77-24.67a69.69,69.69,0,0,1,24.93.38c-4.51-8.69-11.37-9.06-25.17-7-20.49,3-31.37,9.11-31.48,9.17l-8.23-16.27c.54-.3,15.33-9.28,38.34-12.67C356.91,19.91,383,17.79,392,32.19c6.06,9.71,8.82,26.22,11.81,46.51ZM374.29,63.05c-.09-.62-.07-.67-.17-1.14-.74-.52-2.93-2.51-21.2.18-12.21,1.8-16.56,3.85-16.14,6.71.59,4,8.79,3.39,16.18,2.3C364.38,69.42,373.46,64.88,374.29,63.05Z"/><path class="cls-1" d="M507.09,53.06l-25.84,0s-.57-8.55-18.79-11.32c-17.82-2.71-20.79,4-21.61,9.39s-.19,12.94,17.8,15.68c18.82,2.87,21.44-4.85,21.44-4.85l24.55,7.25c-1.8,11.79-14.39,22.15-49.95,16.74-34.33-5.24-42.18-20.56-39.43-38.6,2.93-19.27,17.34-29.95,48.55-25.2C498.68,27.42,508.8,41.84,507.09,53.06Z"/><path class="cls-1" d="M600.31,110.93l-58.5-28.41c-1,3.46,2.57,8.66,14.94,14.66a131.89,131.89,0,0,0,32.11,10.76L591,128.66s-11.41.75-41.79-14C515,98.05,512.8,82.46,521.28,65,530,47,548.87,42.32,577,56,602.9,68.56,615.18,85.21,600.31,110.93ZM546.7,72.46,582,89.58c1.83-3.78,0-9.34-13.42-15.87C553.33,66.33,548.05,69.68,546.7,72.46Z"/><path class="cls-1" d="M717.38,147.9l-52.59,55.68-18.5-17.47,4.69-5c-6.79-.95-15.68-4.69-26.45-14.86-13.9-13.13-27.45-30.6-7.28-52,14.62-15.47,35.27-9.3,50.69,5.26A66.56,66.56,0,0,1,685.13,145l13.74-14.55ZM670.5,160.47c4-9.23-8.86-21.35-12.36-24.65s-12.32-12.26-21.66-2.37c-7.89,8.36-1.25,16.76,4.79,22.46,9.59,9.06,15.38,12.88,23.28,10.86Z"/><path class="cls-1" d="M746.08,335.24c-15.74,5.43-22.63,1-35.05-35-5.85-17-10.27-32.81-7.59-38.88l19.46.74c-1.09,4.3,3,21,7,32.7,4.7,13.63,6.09,18.64,8.14,17.94s1.76-6-3.52-21.28c-8.82-25.59-10-39.64,5.8-45.09,18.18-6.26,24.45,6,34,33.7,9.08,26.36,8.91,33.48,7.58,41.42l-19-1.78c.22-7.32-3-22.68-7.19-35s-5.33-16-7.6-15.21c-1.62.61-1.91,4.06,2.47,16.78C762.25,320.3,761.88,329.8,746.08,335.24Z"/><path class="cls-1" d="M757.25,411.88l-19,10.38s-6.23-14.37-8-39.74c-1.38-20,2.35-24,30.58-26l12.68-.87-.87-12.6,19-1.31.87,12.6,13.21-.91,1.75,25.39-13.21.91,2.13,30.82-19,1.31-2.12-30.82-12.68.87s-11.24,0-10.58,9.5C752.66,401.18,757.25,411.89,757.25,411.88Z"/><path class="cls-1" d="M778.2,528.9,716,516.43l4.94-24.65,9.51,1.91c-4.33-6.47-6.82-15-4-29.23,3.68-18.35,9-28.81,21.82-32,9.24-2.28,20.1-.92,43.4,3.76l4.89,1-5,24.78-20.5-4.11c-9.21-1.85-20.93-4.41-24.63,14.05-2.43,12.12,1.82,20.72,4.89,25.93l31.78,6.37Z"/><path class="cls-1" d="M732.64,645.59,666,607.89l12.53-22.16,6,3.36c-.71-6.81.8-16.34,8.09-29.23,9.41-16.65,23.13-34,48.7-19.53,18.53,10.48,17.5,32,7,50.47a66.48,66.48,0,0,1-20.54,22.78l17.42,9.85Zm-23.45-42.5c9.92,1.64,18.6-13.72,21-17.91s8.94-14.89-2.9-21.59c-10-5.66-16.57,2.8-20.66,10-6.49,11.49-8.81,18-5,25.2Z"/><path class="cls-1" d="M687.21,675.23,640,633l17-19,47.23,42.26Zm12.89,11.54-9.2-8.24,17-19,9.2,8.23Z"/><path class="cls-1" d="M578.19,722.6c-14.44-19.88-4.17-36.8,19.21-53.79,23.93-17.4,42.08-20.9,56.42-1.17,15.45,21.26,1.87,38.47-18,52.93C615.66,735.2,594.11,744.5,578.19,722.6Zm21.92-15.93c7,9.69,18.18,4.43,24.64-.27s13.78-13.71,7.45-22.41c-5.88-8.1-13.66-8.36-24.45-.52C597.93,690.61,593.71,697.86,600.11,706.67Z"/><path class="cls-1" d="M412.66,796.68l-7.42-53.12c-3.47-24.82,8.58-38.37,42.37-43.09s47.31.29,47.31.29l-5.53,20.61s-9.71-6.19-33.82-2.82c-29.39,4.11-25.24,20.7-25.24,20.7l.37,2.64c1.62-6.55,14.07-13.28,28.1-15.24,21-2.93,40.95.69,44.07,23,4.3,30.77-16.84,37.35-35.79,40-14.66,2-24.1-.24-30.22-3.63l1,7.16Zm20.59-36.52.67,4.82c1,6.92,14.32,7.85,27.32,6,8.17-1.14,18-4.37,16.5-15-1.76-12.55-16.9-10.58-20.46-10.08s-22.87,3.18-24,14.2Z"/><path class="cls-1" d="M309.11,777.49l12.38-17.7A58.54,58.54,0,0,0,340.08,768c13.83,3,20.86-2.56,24.86-5.37l5.12-32.93,25.15,3.91-9.74,62.67-1.74-.27v0l-23.4-3.63v0h0l1.35-8.69c-4.42,4-12.82,6.88-27.92,4.53C316.45,785.57,309.11,777.49,309.11,777.49Z"/><path class="cls-1" d="M232.56,684.51l23,10.33c-.84,1.86-1.61,3.6-2.36,5.3a54.3,54.3,0,0,1,27.35,4.71c15.39,6.92,36.6,17.27,28.39,35.51-5.76,12.81-25.81,9.28-44.27,1a69.48,69.48,0,0,1-20.8-13.75c-.89,9.75,4.69,13.75,17.42,19.48,18.89,8.49,31.34,9.23,31.47,9.24l-1.84,18.14c-.61,0-17.91-.45-39.12-10-11.37-5.11-34.5-17.4-34.33-34.39.12-11.44,6.69-26.84,15.11-45.55ZM249,713.62c-.26.57-.3.6-.47,1,.34.83,1.12,3.69,18,11.27,11.26,5.07,16,5.68,17.21,3,1.65-3.66-5.58-7.6-12.39-10.66C260.79,713.59,250.7,712.52,249,713.62Z"/><path class="cls-1" d="M168.75,695.69l-23.83-19.31,11.14-13.74,24.34,19.73,20-24.7,19.77,16-20,24.7,7.28,5.9L196.32,718l-7.63-6.18c-13.24,16.34-23.63,16.08-37.4,4.92-16.17-13.11-22.19-20.86-22.19-20.86l12.17-15s3.46,6.1,12.41,13.36C160.21,699.54,163.39,702.31,168.75,695.69Z"/><path class="cls-1" d="M91.92,662.83l9.32-8.1,16.69,19.21-9.32,8.1Zm13-11.35,47.84-41.55,16.69,19.2-47.84,41.56Z"/><path class="cls-1" d="M65.42,543.15l15.74,20.5s-6.42,5.66,2.5,21.79c8.73,15.77,15.88,14,20.62,11.39s10.38-7.74,1.57-23.67c-9.21-16.66-16.93-14-16.93-14l-9.24-23.87c10.44-5.77,26.34-2.12,43.74,29.36,16.81,30.39,9.46,46-6.51,54.79-17,9.43-34.31,4.54-49.59-23.09C50.25,565.46,55.5,548.64,65.42,543.15Z"/><path class="cls-1" d="M18.6,450.8l19.76-4.4.17.79L70.19,484l-9.48-42.57L80.51,437l18,80.62h0l-19.83,4.42-.21-.94-32.2-39.25L56.32,527l-19.75,4.4Z"/><path class="cls-1" d="M80.34,341l5,.33-1.69,25.39L62.76,365.3c-9.37-.62-23.41-2.18-24.57,15.25-.69,10.25,2.52,15.18,6.51,19.51l36.54,2.44-1.7,25.63-63.23-4.21L18,398.29l8.7.58c-4.44-7.32-8.38-13.64-7.42-28.07.79-11.85,3.17-24.72,15.44-29.13C43.57,338.5,56.63,339.37,80.34,341Z"/><path class="cls-1" d="M94.81,239.93l-23,60.81c3.52.64,8.38-3.33,13.26-16.19a131.6,131.6,0,0,0,7.83-32.94l20.45-4s1.77,11.29-10.2,42.88c-13.48,35.55-28.81,39.13-46.95,32.25-18.76-7.11-25.06-25.45-14-54.67C52.38,241.15,67.86,227.43,94.81,239.93ZM61.3,296.77l13.89-36.64c-3.93-1.49-9.3.82-14.6,14.79C54.6,290.72,58.4,295.67,61.3,296.77Z"/></svg>