<svg id="Layer_1" data-name="Layer 1" fill="black" xmlns="http://www.w3.org/2000/svg" viewBox="0 0 22.8 19.95"><path d="M22.21,6.88a22.67,22.67,0,0,1-2.44,4.47A39.48,39.48,0,0,1,15.26,17,11.26,11.26,0,0,1,12,19.49a6.54,6.54,0,0,1-1.33.41A2.16,2.16,0,0,1,8.46,19a7,7,0,0,1-1.34-2.4c-.28-.84-.52-1.73-.74-2.58l-.73-2.62C5.31,10.22,5,9,4.62,7.79a7.87,7.87,0,0,0-.53-1.23L4,6.29a2.57,2.57,0,0,0-.43-.6,1.34,1.34,0,0,0-.93-.49,1.33,1.33,0,0,0-.74.26l-.27.17-.41.26-.43.3L0,5.24.26,5l1-.85.54-.51A29,29,0,0,1,4.69,1.19,7.76,7.76,0,0,1,6.05.42a2.14,2.14,0,0,1,2.52.72,5.29,5.29,0,0,1,.92,2.41c.14.74.26,1.48.39,2.22.18,1.14.38,2.28.59,3.41A11.25,11.25,0,0,0,11.33,12a4.2,4.2,0,0,0,.5.81,1,1,0,0,0,.67.4.92.92,0,0,0,.69-.24,6.92,6.92,0,0,0,1.07-1.11,16.17,16.17,0,0,0,2.11-3.64,4,4,0,0,0,.35-2.05,1.69,1.69,0,0,0-1.81-1.65,4.06,4.06,0,0,0-1.32.17,8.66,8.66,0,0,1,1.58-2.85,5.28,5.28,0,0,1,4-1.85,6.67,6.67,0,0,1,1.4.1,2.62,2.62,0,0,1,2.1,2.2A7.64,7.64,0,0,1,22.21,6.88Z"/></svg>