<?xml version="1.0" encoding="utf-8"?>
<!-- Generator: Adobe Illustrator 19.0.0, SVG Export Plug-In . SVG Version: 6.00 Build 0)  -->
<svg version="1.1" id="Layer_1" xmlns="http://www.w3.org/2000/svg" xmlns:xlink="http://www.w3.org/1999/xlink" x="0px" y="0px"
	 viewBox="-286 410.9 22.8 20" style="enable-background:new -286 410.9 22.8 20;" xml:space="preserve">
<style type="text/css">
	.st0{fill:#FFFFFF;}
</style>
<path class="st0" d="M-263.8,417.8c-0.6,1.6-1.5,3.1-2.4,4.5c-1.3,2-2.8,3.9-4.5,5.7c-0.9,1-2,1.9-3.3,2.5c-0.4,0.2-0.9,0.3-1.3,0.4
	c-0.9,0.2-1.7-0.2-2.2-0.9c-0.6-0.7-1.1-1.5-1.3-2.4c-0.3-0.8-0.5-1.7-0.7-2.6l-0.7-2.6c-0.3-1.2-0.6-2.4-1-3.6
	c-0.1-0.4-0.3-0.8-0.5-1.2l-0.1-0.3c-0.1-0.2-0.3-0.4-0.4-0.6c-0.2-0.3-0.6-0.5-0.9-0.5c-0.3,0-0.5,0.1-0.7,0.3l-0.3,0.2l-0.4,0.3
	l-0.4,0.3l-0.8-0.9l0.3-0.2l1-0.9l0.5-0.5c0.9-0.9,1.9-1.7,2.9-2.5c0.4-0.3,0.9-0.6,1.4-0.8c0.9-0.4,1.9-0.1,2.5,0.7
	c0.5,0.7,0.8,1.5,0.9,2.4c0.1,0.7,0.3,1.5,0.4,2.2c0.2,1.1,0.4,2.3,0.6,3.4c0.2,1,0.5,1.9,0.9,2.8c0.1,0.3,0.3,0.6,0.5,0.8
	c0.2,0.2,0.4,0.4,0.7,0.4c0.3,0,0.5-0.1,0.7-0.2c0.4-0.3,0.8-0.7,1.1-1.1c0.9-1.1,1.6-2.3,2.1-3.6c0.3-0.6,0.4-1.3,0.4-2
	c0-0.9-0.8-1.7-1.7-1.7c0,0-0.1,0-0.1,0c-0.4,0-0.9,0-1.3,0.2c0.3-1,0.9-2,1.6-2.8c1-1.2,2.5-1.8,4-1.9c0.5,0,0.9,0,1.4,0.1
	c1.1,0.2,1.9,1.1,2.1,2.2C-263,414.8-263.2,416.4-263.8,417.8z"/>
</svg>
