<svg id="Layer_1" data-name="Layer 1" xmlns="http://www.w3.org/2000/svg" viewBox="0 0 26.34 26.34"><defs><style>.cls-1{fill:#ff3e5a;}</style></defs><path class="cls-1" d="M18.11,0H8.23A8.24,8.24,0,0,0,0,8.23v9.88a8.24,8.24,0,0,0,8.23,8.23h9.88a8.24,8.24,0,0,0,8.23-8.23V8.23A8.24,8.24,0,0,0,18.11,0Zm5.76,18.11a5.77,5.77,0,0,1-5.76,5.76H8.23a5.77,5.77,0,0,1-5.76-5.76V8.23A5.76,5.76,0,0,1,8.23,2.47h9.88a5.77,5.77,0,0,1,5.76,5.76Z"/><path class="cls-1" d="M13.17,6.58a6.59,6.59,0,1,0,6.58,6.59A6.59,6.59,0,0,0,13.17,6.58Zm0,10.7a4.12,4.12,0,1,1,4.11-4.11A4.12,4.12,0,0,1,13.17,17.28Z"/><circle class="cls-1" cx="20.25" cy="6.09" r="0.88"/></svg>