<svg id="Layer_1" data-name="Layer 1" xmlns="http://www.w3.org/2000/svg" viewBox="0 0 26.36 16.47"><path d="M10.84,7.45a4.14,4.14,0,0,0,1.25-.92,3.53,3.53,0,0,0,.75-2.36,4.06,4.06,0,0,0-.75-2.46C11.26.6,9.86,0,7.87,0H0V16.07H7.34a11.09,11.09,0,0,0,2.3-.22,4.5,4.5,0,0,0,3-2.07,4.59,4.59,0,0,0,.73-2.56,4.26,4.26,0,0,0-.63-2.36A3.71,3.71,0,0,0,10.84,7.45ZM3.25,2.79H6.79A6.19,6.19,0,0,1,8.72,3a1.45,1.45,0,0,1,.87,1.49,1.52,1.52,0,0,1-.66,1.41,3.37,3.37,0,0,1-1.72.4h-4ZM8.85,13a3.86,3.86,0,0,1-1.65.28H3.25V9h4a4,4,0,0,1,1.63.27,1.71,1.71,0,0,1,1,1.72A2,2,0,0,1,8.85,13Z"/><rect x="16.84" y="0.75" width="6.98" height="2"/><path d="M26.25,8.64a5.83,5.83,0,0,0-1-2.45,4.9,4.9,0,0,0-2.08-1.76,7,7,0,0,0-2.84-.56,5.84,5.84,0,0,0-4.3,1.65,6.38,6.38,0,0,0-1.66,4.74c0,2.19.61,3.78,1.84,4.75a6.58,6.58,0,0,0,4.24,1.46A5.88,5.88,0,0,0,25,14.74a3.92,3.92,0,0,0,1.17-2.15H23a2.49,2.49,0,0,1-.65.82,2.68,2.68,0,0,1-1.74.55,3.22,3.22,0,0,1-1.74-.45A2.85,2.85,0,0,1,17.58,11h8.77A15.21,15.21,0,0,0,26.25,8.64ZM17.66,9a3.19,3.19,0,0,1,.84-1.84,2.52,2.52,0,0,1,1.88-.68,2.79,2.79,0,0,1,1.87.64A2.62,2.62,0,0,1,23.09,9Z"/></svg>