<?xml version="1.0" encoding="utf-8"?>
<!-- Generator: Adobe Illustrator 25.2.1, SVG Export Plug-In . SVG Version: 6.00 Build 0)  -->
<svg version="1.1" id="Layer_1" xmlns="http://www.w3.org/2000/svg" xmlns:xlink="http://www.w3.org/1999/xlink" x="0px" y="0px"
	 viewBox="0 0 48.51 72.37" style="enable-background:new 0 0 48.51 72.37;" xml:space="preserve">
<style type="text/css">
	.st0{fill:none;stroke:#FB3D52;stroke-miterlimit:10;}
</style>
<g>
	<path class="st0" d="M19.15,12.29c-1.92,8.58-6.42,23.41-7.56,28.39c-2.4-1.02-8.88-3.36-10.87-4.14
		C5.46,28.26,17.17,6.77,19.33,0.52c0.96,0.06,3.42,0.12,4.86,0.12c1.38,0,3.96-0.06,4.92-0.12c2.16,6.24,13.87,27.73,18.67,36.02
		c-1.98,0.78-8.52,3.12-10.93,4.14c-1.14-4.98-5.58-19.81-7.56-28.39h-0.54c0.12,4.92,0.36,15.79,0.36,23.35
		c0,10.93,0.06,25.93,0.42,36.14c-1.14-0.18-3.9-0.18-5.28-0.18c-1.44,0-4.14,0-5.28,0.12c0.36-10.15,0.42-25.15,0.42-36.08
		c0-7.56,0.24-18.43,0.36-23.35H19.15z"/>
</g>
</svg>
