<?xml version="1.0" encoding="utf-8"?>
<!-- Generator: Adobe Illustrator 25.2.3, SVG Export Plug-In . SVG Version: 6.00 Build 0)  -->
<svg version="1.1" id="Layer_1" xmlns="http://www.w3.org/2000/svg" xmlns:xlink="http://www.w3.org/1999/xlink" x="0px" y="0px"
	 viewBox="0 0 121.95 29.07" style="enable-background:new 0 0 121.95 29.07;" xml:space="preserve">
<style type="text/css">
	.st0{fill:#020203;}
</style>
<g>
	<g>
		<path class="st0" d="M0,25.35l0.03-1.75l1.64-0.15l0.13-2.42l-1.6,0.15l0.03-1.75l1.64-0.15l0.19-3.87l1.87-0.17l-0.19,3.87
			l1.87-0.17l0.17-3.87l1.87-0.17l-0.17,3.87l1.62-0.15l-0.03,1.75L7.39,20.5l-0.11,2.42l1.62-0.15l-0.03,1.75l-1.68,0.16
			l-0.17,3.87l-1.87,0.17l0.17-3.87l-1.85,0.17l-0.19,3.87l-1.87,0.17L1.6,25.2L0,25.35z M3.54,23.27l1.87-0.17l0.11-2.42
			l-1.85,0.17L3.54,23.27z"/>
		<path class="st0" d="M13.35,17.91l-0.18,1.44l0.04,0c0.36-0.62,0.82-1.09,1.39-1.41c0.57-0.32,1.22-0.52,1.95-0.59
			c0.62-0.06,1.16,0.03,1.62,0.26c0.46,0.23,0.78,0.65,0.95,1.25c0.14-0.27,0.33-0.53,0.57-0.76c0.24-0.24,0.5-0.44,0.78-0.63
			c0.28-0.18,0.58-0.33,0.9-0.44c0.32-0.11,0.64-0.19,0.96-0.22c0.39-0.04,0.77-0.02,1.14,0.05c0.38,0.07,0.71,0.19,1.02,0.37
			c0.3,0.18,0.55,0.42,0.75,0.73c0.2,0.31,0.31,0.67,0.35,1.1c0.03,0.31,0.03,0.62-0.01,0.94c-0.04,0.32-0.07,0.63-0.11,0.93
			l-0.69,5.98l-2.74,0.25l0.73-6.43c0.03-0.26,0.03-0.5,0.01-0.72c-0.03-0.3-0.16-0.54-0.41-0.72c-0.24-0.18-0.54-0.26-0.89-0.23
			c-0.36,0.03-0.68,0.15-0.95,0.35c-0.27,0.2-0.5,0.44-0.69,0.73c-0.19,0.28-0.34,0.59-0.45,0.93c-0.11,0.33-0.19,0.66-0.22,0.97
			l-0.62,5.44l-2.76,0.25l0.73-6.43c0.03-0.26,0.03-0.5,0.01-0.72c-0.03-0.3-0.16-0.54-0.41-0.72c-0.24-0.18-0.54-0.26-0.89-0.23
			c-0.36,0.03-0.68,0.15-0.95,0.35c-0.27,0.2-0.5,0.44-0.69,0.73c-0.19,0.28-0.34,0.59-0.45,0.93c-0.11,0.33-0.19,0.66-0.22,0.97
			l-0.62,5.44l-2.72,0.25l1.14-10.16L13.35,17.91z"/>
		<path class="st0" d="M30.07,16.36l-0.18,1.42l0.04,0c0.78-1.19,1.9-1.85,3.34-1.98c1.94-0.18,2.99,0.62,3.16,2.41
			c0.01,0.1,0.01,0.24,0,0.4c-0.01,0.16-0.02,0.33-0.04,0.5c-0.02,0.17-0.03,0.33-0.05,0.48c-0.02,0.15-0.03,0.27-0.03,0.36
			l-0.69,5.96l-2.74,0.25l0.67-5.95c0.01-0.16,0.03-0.37,0.05-0.63c0.02-0.26,0.03-0.46,0.01-0.6c-0.03-0.3-0.19-0.53-0.48-0.69
			c-0.29-0.17-0.6-0.24-0.92-0.21c-0.41,0.04-0.77,0.15-1.07,0.34c-0.3,0.19-0.55,0.42-0.75,0.7c-0.2,0.28-0.36,0.59-0.48,0.94
			c-0.12,0.35-0.2,0.7-0.24,1.05l-0.63,5.41l-2.72,0.25l1.14-10.16L30.07,16.36z"/>
		<path class="st0" d="M41.25,15.33l-1.2,10.16l-2.74,0.25l1.18-10.16L41.25,15.33z M38.66,14.01l0.29-2.3l2.76-0.25l-0.29,2.3
			L38.66,14.01z"/>
		<path class="st0" d="M44.18,20.93c0,0.05,0.01,0.1,0.01,0.15l0.02,0.25c0.05,0.58,0.28,1.03,0.67,1.36
			c0.39,0.33,0.96,0.46,1.71,0.39c0.27-0.02,0.51-0.09,0.71-0.19c0.2-0.1,0.38-0.23,0.53-0.37c0.15-0.14,0.28-0.3,0.38-0.48
			c0.11-0.18,0.2-0.35,0.29-0.51l2.74-0.25c-0.17,0.59-0.38,1.1-0.63,1.56c-0.26,0.45-0.58,0.84-0.96,1.17
			c-0.38,0.33-0.84,0.59-1.38,0.78c-0.53,0.19-1.16,0.32-1.88,0.39c-0.67,0.06-1.28,0.03-1.85-0.1c-0.56-0.13-1.05-0.36-1.47-0.69
			s-0.76-0.76-1.02-1.28c-0.26-0.52-0.43-1.14-0.49-1.86c-0.07-0.8-0.02-1.58,0.17-2.34c0.19-0.76,0.49-1.45,0.91-2.07
			c0.42-0.62,0.95-1.12,1.6-1.53c0.65-0.4,1.4-0.64,2.25-0.72c0.69-0.06,1.34-0.03,1.92,0.09c0.59,0.13,1.1,0.36,1.54,0.68
			c0.44,0.33,0.8,0.76,1.07,1.28c0.28,0.53,0.45,1.15,0.51,1.87c0.05,0.49,0.04,1.01-0.01,1.58l-7.35,0.68
			C44.18,20.82,44.18,20.88,44.18,20.93z M48.75,17.82c-0.07-0.25-0.18-0.47-0.32-0.66c-0.15-0.19-0.35-0.34-0.6-0.44
			c-0.26-0.1-0.58-0.13-0.98-0.09c-0.39,0.04-0.72,0.12-1.01,0.27c-0.29,0.14-0.53,0.32-0.73,0.53c-0.2,0.21-0.36,0.46-0.49,0.73
			c-0.12,0.27-0.22,0.55-0.3,0.84l4.57-0.42C48.86,18.32,48.82,18.06,48.75,17.82z"/>
		<path class="st0" d="M50.59,25.76c0.16-0.01,0.33-0.02,0.49-0.04c0.19-0.02,0.34-0.1,0.44-0.25c0.1-0.15,0.18-0.32,0.24-0.52
			s0.1-0.4,0.12-0.6c0.02-0.2,0.04-0.37,0.07-0.5l1.1-9.61l2.74-0.25L54.57,24.5c-0.07,0.54-0.17,1.01-0.3,1.43
			c-0.13,0.41-0.33,0.76-0.58,1.05c-0.26,0.28-0.59,0.51-0.99,0.67c-0.4,0.17-0.91,0.28-1.52,0.34c-0.22,0.02-0.44,0.03-0.67,0.02
			c-0.23-0.01-0.45,0-0.67,0l0.26-2.24C50.26,25.77,50.43,25.76,50.59,25.76z"/>
		<path class="st0" d="M59.73,13.62l-0.16,1.26l0.04,0.04c0.26-0.57,0.64-1,1.15-1.29c0.51-0.29,1.07-0.47,1.69-0.53
			c1.21-0.11,2.17,0.16,2.89,0.8c0.72,0.65,1.14,1.57,1.25,2.78c0.08,0.82,0.04,1.64-0.11,2.44c-0.15,0.8-0.42,1.54-0.81,2.19
			c-0.39,0.66-0.91,1.21-1.55,1.64c-0.64,0.44-1.42,0.7-2.35,0.78c-0.28,0.03-0.57,0.02-0.87-0.02c-0.3-0.04-0.57-0.11-0.84-0.21
			c-0.26-0.11-0.5-0.25-0.72-0.43c-0.22-0.18-0.39-0.4-0.52-0.66l-0.06,0.01l-0.6,4.92l-2.72,0.25l1.61-13.72L59.73,13.62z
			 M60.45,15.78c-0.35,0.31-0.63,0.69-0.84,1.14c-0.21,0.45-0.36,0.92-0.43,1.43c-0.08,0.51-0.09,0.97-0.06,1.4
			c0.06,0.66,0.27,1.16,0.63,1.53c0.36,0.36,0.87,0.51,1.54,0.45c0.53-0.05,0.96-0.23,1.31-0.53c0.35-0.3,0.62-0.67,0.83-1.11
			c0.21-0.43,0.34-0.9,0.42-1.4c0.07-0.5,0.09-0.97,0.05-1.4c-0.03-0.3-0.1-0.57-0.2-0.84c-0.11-0.26-0.25-0.49-0.43-0.67
			c-0.18-0.18-0.4-0.33-0.65-0.43c-0.26-0.1-0.54-0.13-0.87-0.1C61.23,15.29,60.8,15.47,60.45,15.78z"/>
		<path class="st0" d="M71.45,8.71l-1.66,14.04L67.07,23l1.64-14.04L71.45,8.71z"/>
		<path class="st0" d="M72.45,13.91c0.26-0.44,0.59-0.82,0.99-1.11c0.4-0.3,0.86-0.52,1.38-0.68c0.52-0.16,1.06-0.26,1.62-0.32
			c0.45-0.04,0.92-0.05,1.42-0.03c0.49,0.02,0.96,0.1,1.38,0.25c0.43,0.15,0.79,0.38,1.09,0.7c0.29,0.32,0.46,0.76,0.5,1.32
			c0.04,0.48,0.02,1.04-0.06,1.7l-0.52,4.09c-0.03,0.18-0.05,0.41-0.04,0.68c0.01,0.27,0.02,0.49,0.03,0.69
			c0.02,0.17,0.07,0.36,0.15,0.57l-2.74,0.25l-0.09-0.98c-0.33,0.46-0.76,0.81-1.28,1.06c-0.52,0.25-1.07,0.4-1.65,0.45
			c-0.54,0.05-1.02,0.02-1.44-0.08c-0.42-0.1-0.77-0.26-1.06-0.48c-0.29-0.21-0.52-0.47-0.67-0.77c-0.16-0.3-0.25-0.63-0.28-0.98
			c-0.09-0.96,0.17-1.77,0.78-2.41c0.61-0.64,1.51-1.09,2.71-1.34c0.64-0.14,1.19-0.25,1.66-0.33c0.47-0.08,0.86-0.18,1.17-0.29
			c0.31-0.11,0.53-0.26,0.67-0.43c0.14-0.17,0.19-0.42,0.16-0.74c-0.02-0.26-0.1-0.46-0.23-0.6c-0.13-0.14-0.29-0.25-0.47-0.33
			c-0.18-0.07-0.37-0.12-0.58-0.13c-0.2-0.01-0.39-0.01-0.57,0c-0.49,0.05-0.91,0.2-1.28,0.48c-0.36,0.27-0.57,0.67-0.61,1.17
			l-2.56,0.24C72.05,14.9,72.19,14.36,72.45,13.91z M76.92,17.64c-0.39,0.08-0.79,0.15-1.19,0.22c-0.25,0.05-0.5,0.11-0.74,0.19
			c-0.24,0.08-0.45,0.19-0.62,0.32c-0.18,0.13-0.31,0.3-0.41,0.51c-0.1,0.21-0.13,0.47-0.1,0.78c0.03,0.37,0.21,0.64,0.53,0.8
			c0.32,0.16,0.68,0.22,1.08,0.18c0.42-0.04,0.77-0.14,1.05-0.3c0.28-0.16,0.5-0.36,0.68-0.59c0.18-0.23,0.31-0.49,0.41-0.77
			c0.09-0.28,0.16-0.56,0.21-0.84L78,17.16C77.67,17.4,77.31,17.56,76.92,17.64z"/>
		<path class="st0" d="M87.47,12.99c-0.26-0.22-0.66-0.3-1.2-0.25c-0.49,0.05-0.88,0.16-1.18,0.33c-0.3,0.18-0.44,0.45-0.4,0.81
			c0.02,0.22,0.13,0.4,0.33,0.53c0.2,0.14,0.54,0.25,1.01,0.35l1.41,0.32c0.38,0.08,0.74,0.18,1.07,0.31
			c0.33,0.13,0.62,0.29,0.88,0.49c0.26,0.2,0.47,0.45,0.63,0.75c0.16,0.3,0.26,0.65,0.3,1.06c0.06,0.62-0.03,1.15-0.27,1.61
			c-0.24,0.46-0.57,0.84-0.99,1.15c-0.43,0.31-0.91,0.55-1.47,0.72c-0.55,0.17-1.12,0.28-1.7,0.33c-0.49,0.05-0.99,0.04-1.5-0.02
			c-0.51-0.06-0.98-0.18-1.41-0.39c-0.43-0.2-0.79-0.48-1.08-0.85s-0.47-0.85-0.52-1.44l-0.04-0.4l2.53-0.23l0.03,0.33
			c0.02,0.23,0.1,0.43,0.23,0.58c0.13,0.16,0.29,0.28,0.49,0.37c0.2,0.09,0.42,0.16,0.66,0.19c0.24,0.04,0.48,0.04,0.71,0.02
			c0.21-0.02,0.41-0.06,0.61-0.11c0.2-0.06,0.38-0.14,0.54-0.25c0.16-0.11,0.28-0.25,0.37-0.4c0.09-0.16,0.12-0.35,0.1-0.58
			c-0.03-0.35-0.14-0.58-0.34-0.71c-0.19-0.12-0.44-0.22-0.75-0.3l-2.16-0.48c-0.36-0.08-0.67-0.18-0.95-0.28
			c-0.28-0.1-0.52-0.24-0.72-0.42c-0.2-0.18-0.37-0.39-0.49-0.65c-0.12-0.26-0.2-0.59-0.24-0.99c-0.05-0.59,0.04-1.1,0.28-1.52
			c0.24-0.42,0.57-0.78,0.98-1.07c0.41-0.29,0.88-0.52,1.39-0.67c0.51-0.16,1-0.26,1.48-0.3c0.54-0.05,1.06-0.05,1.57-0.01
			c0.51,0.04,0.96,0.17,1.37,0.37c0.4,0.2,0.73,0.5,0.99,0.89c0.26,0.39,0.41,0.91,0.45,1.55l-2.55,0.24
			C87.88,13.53,87.73,13.21,87.47,12.99z"/>
		<path class="st0" d="M97.44,10.14l-0.25,1.87l-1.95,0.18l-0.56,5.05c-0.02,0.11-0.03,0.2-0.03,0.28c-0.01,0.09-0.01,0.15,0,0.18
			c0.02,0.18,0.06,0.32,0.13,0.41c0.07,0.09,0.15,0.16,0.24,0.2c0.09,0.04,0.2,0.06,0.31,0.06c0.11,0,0.22-0.01,0.32-0.02
			c0.33-0.03,0.66-0.08,0.98-0.15l-0.27,2.14c-0.28,0.05-0.56,0.1-0.84,0.15c-0.28,0.05-0.57,0.08-0.86,0.11
			c-0.32,0.03-0.64,0.03-0.96,0c-0.32-0.03-0.61-0.11-0.88-0.23c-0.26-0.12-0.48-0.31-0.65-0.55c-0.17-0.24-0.27-0.57-0.3-0.98
			c-0.01-0.13-0.01-0.27,0-0.44c0.01-0.16,0.03-0.34,0.05-0.52l0.62-5.44l-1.79,0.17l0.25-1.87l1.75-0.16l0.34-3.08l2.74-0.25
			l-0.34,3.08L97.44,10.14z"/>
		<path class="st0" d="M101.12,9.8l-1.2,10.16l-2.74,0.25l1.18-10.16L101.12,9.8z M98.53,8.48l0.29-2.3l2.76-0.25l-0.29,2.3
			L98.53,8.48z"/>
		<path class="st0" d="M105.75,5.54l-0.89,7.63l0.04,0.03l3.59-4.09l3.37-0.31L107.74,13l3.14,5.95l-3.01,0.28l-2.05-4.3l-1.31,1.35
			l-0.38,3.3l-2.72,0.25l1.6-14.03L105.75,5.54z"/>
		<path class="st0" d="M118.17,18.27l0.18-1.42l-0.04,0c-0.79,1.17-1.9,1.83-3.34,1.96c-1.94,0.18-2.99-0.62-3.16-2.39
			c-0.01-0.1-0.01-0.24-0.01-0.4c0-0.16,0.01-0.33,0.03-0.5c0.02-0.17,0.03-0.33,0.05-0.48c0.02-0.15,0.04-0.27,0.05-0.36l0.69-5.96
			l2.74-0.25l-0.67,5.95c-0.02,0.08-0.03,0.17-0.04,0.29c-0.01,0.11-0.02,0.23-0.03,0.34s-0.01,0.23-0.01,0.34
			c0,0.11,0.01,0.2,0.01,0.26c0.03,0.3,0.19,0.53,0.48,0.69c0.29,0.17,0.6,0.24,0.92,0.21c0.41-0.04,0.77-0.15,1.07-0.34
			c0.3-0.19,0.55-0.42,0.75-0.7c0.2-0.28,0.36-0.59,0.48-0.94c0.12-0.35,0.2-0.7,0.24-1.05l0.63-5.41l2.74-0.25l-1.16,10.16
			L118.17,18.27z"/>
	</g>
	<g>
		<path class="st0" d="M52.04,5.78C52.04,5.78,52.04,5.78,52.04,5.78c-0.37-0.59-0.91-1.01-1.45-1.41c-0.43-0.31-0.6-0.21-0.64,0.3
			c-0.05,0.76-0.09,1.53-0.13,2.29c-0.01,0.3-0.01,0.61,0.11,0.9c0,0,0,0,0,0c-0.05,0.1-0.03,0.21-0.02,0.32
			c0.08,0.66,0.24,1.3,0.43,1.94c0.09,0.31,0.26,0.57,0.46,0.84c0.42,0.57,1.01,0.91,1.52,1.36c0.13,0.12,0.27,0.25,0.42,0.34
			c0.27,0.16,0.45,0.05,0.44-0.27c-0.01-0.27,0-0.53,0.02-0.8c0.13-1.35,0.17-2.69-0.23-4C52.78,6.92,52.56,6.27,52.04,5.78z
			 M51.6,10.88c-0.01,0-0.03-0.01-0.05-0.01c0.02-0.04,0.04-0.05,0.08-0.02C51.62,10.85,51.61,10.87,51.6,10.88z M50.58,8.75
			C50.58,8.75,50.58,8.75,50.58,8.75c-0.19-0.29-0.16-0.65-0.27-0.96c-0.03-0.11-0.07-0.2-0.16-0.26l0.04-0.02c0,0,0-0.01-0.01-0.01
			c0,0,0,0,0,0c0,0,0,0,0,0c-0.05-0.07-0.05-0.15-0.01-0.23c0,0,0,0,0,0c0.02-0.05,0.04-0.09,0.06-0.14c0,0,0,0,0,0c0,0,0,0,0,0
			c-0.07-0.21-0.12-0.42-0.01-0.71c0.16,0.26,0.02,0.49,0.12,0.68l0,0c0.03,0.07,0.06,0.13,0.09,0.2c-0.03,0.01-0.05,0.03-0.08,0.05
			c0.01,0.03,0.02,0.06,0.02,0.09c0.02,0.03,0.03,0.06,0.05,0.09c0,0,0,0,0,0c0.01,0,0.02-0.01,0.02-0.01
			c-0.01,0.01-0.01,0.02-0.02,0.03c0.06,0.39,0.17,0.76,0.35,1.12c0.33,0.62,0.59,1.27,0.85,1.91C51.37,10.41,51.02,9.8,50.58,8.75z
			 M50.58,7.27c-0.01,0.02-0.01,0.06-0.02,0.07c-0.03,0.01-0.07,0.01-0.09-0.01c-0.05-0.02-0.05-0.05,0.01-0.05
			C50.51,7.27,50.54,7.27,50.58,7.27z M50.71,6.22c0.14,0.16,0.18,0.29,0.16,0.53C50.7,6.58,50.61,6.47,50.71,6.22z M51.57,8.85
			c0.03,0.01,0.07,0.02,0.08,0.04c0.02,0.05-0.01,0.1-0.07,0.1c-0.02,0-0.06-0.04-0.06-0.06C51.52,8.9,51.55,8.87,51.57,8.85z
			 M51.91,9.9c-0.02,0.02-0.06,0-0.1,0c0-0.03,0-0.07,0-0.1c0.03,0,0.07,0,0.1,0C51.92,9.84,51.93,9.89,51.91,9.9z M51.39,7.79
			c-0.03,0.04-0.08,0.06-0.12,0.08c0,0,0,0,0,0l0,0c0,0,0,0,0,0c-0.01-0.03-0.03-0.06-0.04-0.09c-0.03-0.06-0.04-0.13,0.01-0.19
			c0.04-0.04,0.09-0.02,0.13,0.01C51.42,7.66,51.43,7.74,51.39,7.79z M51.29,6.33C51.29,6.33,51.29,6.33,51.29,6.33
			c-0.03,0.01-0.07,0.02-0.1,0.03c-0.08,0.01-0.13-0.03-0.16-0.11c0-0.02,0-0.04,0.01-0.05c0.08-0.05,0.12,0.02,0.17,0.05
			C51.25,6.27,51.27,6.3,51.29,6.33C51.29,6.33,51.3,6.32,51.29,6.33C51.3,6.32,51.29,6.33,51.29,6.33z M51.68,7.46
			C51.68,7.46,51.68,7.46,51.68,7.46c-0.03-0.1-0.07-0.21,0.09-0.22c0.03,0,0.11,0.06,0.1,0.09C51.86,7.42,51.76,7.43,51.68,7.46
			C51.68,7.46,51.68,7.46,51.68,7.46L51.68,7.46z M52.44,9.26c0.23,0.16,0.19,0.39,0.18,0.61c0,0.02,0,0.04,0,0.04
			c0.01,0.23,0.06,0.45,0.01,0.69c-0.21-0.34-0.23-0.51-0.08-0.81l0,0c-0.12-0.09-0.23-0.19-0.26-0.35c0,0,0,0,0,0
			c-0.1-0.36-0.06-0.74-0.23-1.08c0.07-0.07,0.17-0.19,0.22,0c0.04,0.15,0.06,0.28,0.25,0.27C52.52,8.85,52.56,9.06,52.44,9.26z"/>
		<g>
			<path class="st0" d="M63.11,4.8C63.11,4.8,63.12,4.81,63.11,4.8L63.11,4.8z"/>
			<path class="st0" d="M54.9,9.48c0.02,0.01,0.03,0.03,0.04,0.05c-0.01-0.02-0.02-0.04-0.03-0.06C54.91,9.47,54.9,9.48,54.9,9.48
				C54.9,9.48,54.9,9.48,54.9,9.48z"/>
			<path class="st0" d="M54.96,9.6c-0.01-0.02-0.01-0.04-0.02-0.06C54.95,9.56,54.96,9.58,54.96,9.6C54.96,9.6,54.96,9.6,54.96,9.6z
				"/>
			<path class="st0" d="M65.88,0.11c-1.63,0.65-3.31,1.15-4.98,1.67c-1.09,0.34-2.12,0.78-3.04,1.49c-0.53,0.41-0.97,0.89-1.45,1.35
				c-0.55,0.52-0.91,1.15-1.14,1.85c-0.3,0.89-0.55,1.78-0.92,2.65c-0.42,0.99-0.68,2.03-0.67,3.12c0.01,0.54,0.24,0.7,0.78,0.57
				c0.33-0.08,0.63-0.26,0.97-0.31c0.89-0.13,1.77-0.35,2.66-0.44c0.37-0.04,0.76-0.06,1.1-0.2c0.74-0.3,1.46-0.66,2.08-1.17
				c0.43-0.36,0.75-0.84,1.15-1.21c0.57-0.54,0.95-1.2,1.37-1.83c0.58-0.87,0.98-1.86,1.38-2.84c0.18-0.44,0.35-0.88,0.52-1.33
				c-0.04-0.09-0.21-0.09-0.17-0.22c0.03-0.12,0.16-0.08,0.26-0.09c0,0,0,0,0,0l0,0c0.41-0.75,0.76-1.52,0.87-2.38
				C66.72,0.05,66.52-0.15,65.88,0.11z M61.77,2.36C61.77,2.36,61.77,2.36,61.77,2.36c-0.01,0.06-0.04,0.09-0.1,0.11
				c-0.12-0.04-0.25-0.09-0.38-0.13C61.7,2.09,61.7,2.09,61.77,2.36z M60.75,4.51L60.75,4.51L60.75,4.51
				c0.03-0.04,0.06-0.07,0.08-0.11c0,0,0,0,0,0c0,0,0,0,0,0c-0.01-0.04-0.01-0.08-0.02-0.12c0,0,0,0,0,0c0,0,0,0,0,0
				c-0.02-0.01-0.04-0.01-0.04-0.02c0-0.03,0.02-0.03,0.04,0.02c0,0,0,0,0,0c0,0,0,0,0,0c0.13-0.06,0.17-0.2,0.25-0.3
				c0.13-0.18,0.29-0.31,0.54-0.28c0.13-0.03,0.22-0.11,0.29-0.23c0,0,0,0,0,0c0,0,0,0,0,0c0.14-0.22,0.39-0.29,0.63-0.44
				c-0.03,0.32-0.29,0.36-0.43,0.52c-0.34,0.32-0.69,0.63-1.03,0.95c-0.12,0.11-0.26,0.21-0.4,0.31c0,0,0,0,0,0
				c-0.19,0.15-0.32,0.39-0.58,0.46c0,0,0,0,0,0c-0.2,0.14-0.31,0.4-0.58,0.45c0,0,0,0,0,0l0,0l0,0c0,0,0,0,0,0
				c-0.07,0.18-0.21,0.3-0.37,0.46c0.08-0.32,0.08-0.32,0.37-0.46c0,0,0,0,0,0c0,0,0,0,0,0c0.11-0.22,0.27-0.4,0.46-0.55
				c0.14-0.09,0.32-0.16,0.38-0.34c-0.09-0.11-0.17-0.05-0.26,0c-0.23,0.1-0.38,0.33-0.63,0.39c-0.04,0.09-0.11,0.11-0.19,0.12
				c0,0,0,0,0,0c0,0,0,0,0,0c0.01,0.2-0.08,0.31-0.28,0.33c-0.04,0.09-0.11,0.11-0.19,0.12c0,0,0,0,0,0l0,0c0,0,0,0,0,0
				c-0.27,0.5-0.73,0.83-1.12,1.23c-0.4,0.32-0.63,0.78-1,1.13c-0.1,0.09-0.18,0.21-0.33,0.22c-0.01,0.05-0.02,0.09-0.03,0.14
				c-0.1-0.07-0.01-0.1,0.03-0.14c0.36-0.52,0.76-1,1.21-1.44c0,0,0,0,0,0c0,0,0,0,0,0c0.32-0.32,0.63-0.64,0.95-0.96
				c0.08-0.08,0.16-0.17,0.29-0.18c0,0,0,0,0,0l0,0l0,0c0,0,0,0,0,0c0-0.03-0.01-0.06-0.01-0.1c0.16-0.12,0.32-0.24,0.48-0.35
				c0,0,0,0,0,0c0,0,0,0,0,0c0.04-0.09,0.11-0.11,0.19-0.12c0.18-0.37,0.56-0.51,0.84-0.78C60.46,4.29,60.59,4.54,60.75,4.51z
				 M63.11,4.8c0.02-0.25,0.19-0.38,0.38-0.5c-0.06,0.21-0.13,0.42-0.36,0.52l-0.01-0.01c0,0,0.01,0.01,0.01,0.01
				c0,0.08-0.02,0.16-0.09,0.21c-0.28,0.37-0.55,0.74-0.83,1.11c0,0,0,0,0,0c-0.17,0.24-0.34,0.47-0.57,0.65c0,0,0,0,0,0
				c-0.07,0.24-0.28,0.34-0.47,0.45c-0.13,0.26-0.33,0.47-0.54,0.65c0,0.01-0.01,0.01-0.01,0.01c-0.24,0.17-0.38,0.46-0.66,0.57
				c0,0,0,0,0,0c-0.09,0.29-0.36,0.34-0.59,0.45c0,0,0,0,0,0c-0.14,0.1-0.22,0.27-0.39,0.34c-0.04-0.04-0.09-0.07-0.13-0.11
				c0.13-0.17,0.3-0.28,0.5-0.34c0.05-0.13,0.14-0.21,0.28-0.22c0.04-0.03,0.08-0.06,0.11-0.1c0.03-0.01,0.06-0.02,0.09-0.02
				c0.25-0.24,0.44-0.54,0.78-0.68c0,0,0,0,0,0c0.15-0.25,0.33-0.47,0.55-0.66c0,0,0,0,0,0c0.07-0.18,0.25-0.23,0.38-0.34
				c0,0,0,0,0,0c0.14-0.25,0.34-0.46,0.55-0.66c0.23-0.48,0.56-0.87,0.94-1.23c0,0,0,0,0,0C63.05,4.87,63.08,4.84,63.11,4.8
				L63.11,4.8z M58.69,7.77c0.21-0.44,0.6-0.71,0.93-1.04C59.46,7.21,59.04,7.46,58.69,7.77z M59.8,7.85c-0.01,0.01-0.03,0-0.04,0
				c-0.01,0-0.01-0.02-0.01-0.03c0.01-0.01,0.03-0.02,0.04-0.02C59.83,7.8,59.83,7.83,59.8,7.85z M62.39,4.75
				c-0.05-0.34-0.05-0.34,0.37-0.32C62.67,4.57,62.54,4.67,62.39,4.75z M57.81,4.76c-0.01-0.05,0.03-0.09,0.08-0.1
				c0.05-0.01,0.09,0,0.11,0.07c-0.03,0.03-0.05,0.07-0.09,0.09C57.87,4.84,57.82,4.81,57.81,4.76z M57.33,4.39
				c0.3-0.36,0.67-0.64,1.05-0.91l0,0c0,0,0,0,0,0c0.18-0.21,0.48-0.22,0.68-0.39c0,0,0,0,0,0c0.03-0.03,0.05-0.06,0.08-0.08
				c0-0.01,0.01-0.01,0.01-0.01l0,0c0,0,0,0,0,0c-0.01-0.06-0.09-0.12-0.02-0.17c0.07-0.05,0.15,0.03,0.22,0.05
				c0.03,0,0.06-0.01,0.1-0.02c0.15-0.16,0.36-0.14,0.62-0.26c-0.15,0.28-0.39,0.23-0.51,0.35c-0.13,0.08-0.26,0.16-0.39,0.23
				c0,0,0,0,0,0c0,0,0,0,0,0c-0.19,0.12-0.39,0.24-0.58,0.36c-0.38,0.32-0.76,0.63-1.14,0.95c0,0,0,0,0,0
				C57.32,4.67,57.17,4.82,56.92,5C56.97,4.65,57.1,4.49,57.33,4.39z M56.09,6.75L56.09,6.75c0.06-0.11,0.13-0.21,0.19-0.32
				c0,0,0,0,0,0c0.23-0.18,0.35-0.5,0.66-0.58c0.01-0.25,0.13-0.4,0.37-0.44c0,0,0,0,0,0l0,0l0,0c0.02-0.02,0.04-0.04,0.05-0.06
				c0.01-0.02,0.03-0.03,0.04-0.05l0,0c0-0.07-0.01-0.14,0-0.2c0.02-0.09,0.1-0.15,0.19-0.09c0.07,0.05,0.01,0.12-0.04,0.16
				c-0.05,0.05-0.1,0.08-0.15,0.13l0,0c0,0,0,0,0,0c-0.01,0.02-0.03,0.03-0.04,0.05c-0.02,0.02-0.04,0.04-0.05,0.06c0,0,0,0,0,0
				c-0.08,0.19-0.21,0.33-0.37,0.44c-0.14,0.26-0.34,0.47-0.55,0.67c0,0,0,0,0,0c-0.06,0.11-0.12,0.21-0.18,0.32
				c-0.07,0.15-0.16,0.29-0.37,0.4C55.88,7.03,55.98,6.89,56.09,6.75z M55.54,11.63c-0.06,0.01-0.17,0.01-0.18-0.02
				c-0.04-0.1,0.04-0.14,0.12-0.17c0.05,0.08,0.14,0.08,0.22,0.08C55.65,11.57,55.6,11.62,55.54,11.63z M56.06,11.18
				c-0.07,0.07-0.13,0.14-0.2,0.21c-0.06-0.04-0.16,0-0.21-0.08c0.15-0.12,0.27-0.34,0.5-0.14l0,0c0.01,0.02,0.03,0.04,0.04,0.07
				C56.13,11.28,56.09,11.24,56.06,11.18z M56.65,9.58c-0.12-0.04-0.25-0.07-0.33-0.17c-0.14,0.02-0.19,0.1-0.18,0.23
				c0.13,0.05,0.29,0.13,0.13,0.27c-0.15,0.14-0.18,0.36-0.36,0.47c0,0,0,0,0,0c-0.32,0.3-0.61,0.63-0.86,0.99
				c-0.09,0.15-0.18,0.29-0.26,0.44c-0.05-0.05-0.09-0.12-0.16-0.01c-0.05,0.09-0.14,0.11-0.24,0.05c0,0,0,0,0,0
				c0.01,0.13,0.07,0.19,0.21,0.17c-0.06,0.1-0.14,0.16-0.24,0.07c-0.1-0.08-0.06-0.18,0.03-0.25c-0.05-0.09-0.15-0.16-0.12-0.26
				c0.05-0.18,0.16,0.01,0.23-0.03c0.06-0.03,0.14-0.11,0.13-0.14c-0.08-0.22,0.21-0.3,0.16-0.55c-0.13,0.02-0.14,0.22-0.33,0.2
				c-0.02-0.57,0.12-1.1,0.32-1.63c0,0,0,0,0,0c0-0.08,0.01-0.16,0.08-0.21c0-0.03,0-0.07-0.01-0.1c0-0.02-0.01-0.04,0-0.05
				c0.26-0.25,0.27-0.27,0.35-0.6l0,0l0,0c0.07-0.37,0.19-0.72,0.47-0.99c-0.02,0.31-0.18,0.58-0.27,0.87l0,0l0,0
				c0.01,0.08,0.22,0.09,0.09,0.21c-0.19,0.17-0.24,0.38-0.22,0.63c0,0,0,0,0,0c-0.08,0.15-0.16,0.3-0.25,0.44c0,0,0,0,0,0
				c-0.03,0.1-0.06,0.2-0.1,0.3c0.01,0.24-0.31,0.46-0.04,0.72l0,0c0.06-0.04,0.13-0.08,0.19-0.12c0.2-0.41,0.52-0.72,0.8-1.07
				c0.09-0.11,0.23-0.19,0.3-0.33c0.04-0.08,0.11-0.16,0.19-0.12c0.13,0.06,0.01,0.18,0.04,0.27c0,0,0,0,0,0c0,0,0,0,0,0
				c0.1,0.07,0.25,0.07,0.32,0.19C56.71,9.51,56.68,9.55,56.65,9.58z M57.35,10.52c-0.06,0.01-0.09-0.04-0.07-0.09
				c0.01-0.02,0.05-0.04,0.08-0.04c0.02,0,0.03,0.04,0.05,0.07C57.39,10.48,57.37,10.51,57.35,10.52z M56.73,8.68
				c0.09-0.26,0.2-0.51,0.51-0.58l0,0c-0.01-0.08,0.01-0.16,0.09-0.21c0.23-0.17,0.37-0.42,0.57-0.62c0.11-0.12,0.19-0.28,0.38-0.29
				c0,0,0,0,0,0c0.03-0.04,0.06-0.07,0.09-0.11c0,0,0,0,0,0c0.02-0.04,0.04-0.09,0.07-0.13c0.04-0.05,0.11-0.1,0.16-0.02
				c0.05,0.07-0.01,0.12-0.09,0.14c-0.05,0.01-0.1,0.01-0.15,0.02c0,0,0,0,0,0l0,0l0,0c-0.03,0.04-0.06,0.07-0.09,0.11l0,0l0,0
				c0,0,0,0,0,0c-0.23,0.38-0.52,0.7-0.84,1c0,0,0,0,0,0c-0.04,0.08-0.11,0.11-0.2,0.12l0,0C57.13,8.34,56.93,8.51,56.73,8.68z
				 M58.51,9.64c-0.18,0.16-0.36,0.34-0.67,0.46c0.14-0.32,0.38-0.41,0.54-0.58C58.45,9.54,58.5,9.58,58.51,9.64z M59.46,10.06
				C59.46,10.06,59.46,10.06,59.46,10.06c-0.13,0.11-0.25,0.23-0.38,0.34l0,0c-0.28,0.22-0.55,0.44-0.87,0.61c0,0,0,0,0,0
				c-0.06,0.08-0.13,0.25-0.24,0.14c-0.11-0.11,0.04-0.19,0.13-0.25c0.28-0.22,0.55-0.44,0.86-0.61c0,0,0,0,0,0
				c0.13-0.11,0.26-0.21,0.39-0.32l0,0c0.08-0.23,0.32-0.29,0.46-0.47c0.17-0.21,0.35-0.14,0.52,0.11
				C59.94,9.6,59.71,9.85,59.46,10.06z M61.68,8.13C61.68,8.13,61.68,8.13,61.68,8.13c-0.23,0.32-0.45,0.64-0.76,0.88
				c-0.03,0.1-0.09,0.17-0.18,0.22c0,0,0,0,0,0c-0.06,0.09-0.1,0.26-0.25,0.14c-0.03-0.03-0.14-0.31,0.13-0.34
				c0.02,0.02,0.04,0.04,0.06,0.06c0-0.02,0.01-0.04,0.03-0.07C60.7,8.9,60.76,8.82,60.9,8.81l0,0c0.3-0.22,0.45-0.58,0.75-0.8
				c0.15-0.37,0.4-0.67,0.64-0.97c0,0,0,0,0,0l0,0c0.12-0.15,0.13-0.4,0.37-0.44c0.01-0.06,0.02-0.13,0.04-0.19
				c0.03-0.06,0.1-0.12,0.16-0.08c0.1,0.06,0.04,0.15-0.02,0.2c-0.05,0.04-0.12,0.05-0.18,0.08l0,0l0,0
				c0.01,0.21-0.12,0.33-0.28,0.44C62.17,7.42,62.02,7.84,61.68,8.13z M63.76,6.3c-0.08,0.21-0.15,0.43-0.37,0.55c0,0,0,0,0,0
				c0.01,0.03,0.01,0.06,0.01,0.1l0,0c-0.16,0.36-0.37,0.67-0.72,0.89c0.17-0.29,0.35-0.58,0.52-0.87l0,0
				c0.03-0.04,0.06-0.08,0.09-0.11c0,0,0,0,0,0v0C63.4,6.62,63.45,6.34,63.76,6.3c-0.01-0.16,0.05-0.29,0.22-0.48
				C63.95,6.07,64.01,6.26,63.76,6.3z M63.25,3.87C63.25,3.87,63.25,3.87,63.25,3.87L63.25,3.87C63.25,3.87,63.25,3.88,63.25,3.87
				c0.01,0.05,0.01,0.1-0.03,0.14c0,0-0.04-0.01-0.04-0.02C63.16,3.93,63.19,3.89,63.25,3.87C63.24,3.87,63.24,3.87,63.25,3.87
				C63.25,3.87,63.25,3.87,63.25,3.87c0.04-0.11,0.09-0.22,0.22-0.27C63.54,3.83,63.37,3.83,63.25,3.87z M65.13,3
				c-0.13,0.32-0.27,0.63-0.69,0.83C64.65,3.5,64.76,3.21,65,3c0,0,0,0,0,0c0-0.02,0-0.03,0.01-0.05c0.02-0.09,0.04-0.23,0.15-0.18
				C65.27,2.81,65.2,2.92,65.13,3z M63.71,3.45c0.14-0.48,0.45-0.7,0.74-0.93c0,0,0,0,0,0c0.13-0.11,0.27-0.22,0.4-0.33
				c-0.01,0.22-0.13,0.34-0.28,0.43C64.3,2.86,64.11,3.2,63.71,3.45z M64.25,1.41C64.25,1.41,64.25,1.41,64.25,1.41
				c-0.26,0.11-0.52,0.22-0.79,0.28l0,0c0,0,0,0,0,0l0.01,0.02l0,0c0,0,0,0,0,0l0,0c0,0,0,0,0,0c-0.02,0.02-0.05,0.05-0.07,0.07
				c-0.01,0.01-0.02,0.02-0.03,0.03c0,0,0-0.01,0-0.01c0,0,0,0,0,0c-0.04,0.09-0.12,0.15-0.2,0.13c-0.31-0.08-0.55,0.19-0.87,0.12
				c-0.2-0.05-0.18,0.2-0.27,0.3c-0.16-0.27-0.09-0.4,0.21-0.49c0.27-0.08,0.53-0.23,0.83-0.22c0,0,0,0,0,0
				c0.09-0.01,0.19-0.03,0.28-0.04c0.25-0.14,0.53-0.2,0.8-0.27C64.38,1.1,64.69,1.1,64.97,1C64.79,1.25,64.49,1.27,64.25,1.41z"/>
		</g>
	</g>
</g>
</svg>
