<?xml version="1.0" encoding="utf-8"?>
<!-- Generator: Adobe Illustrator 25.2.3, SVG Export Plug-In . SVG Version: 6.00 Build 0)  -->
<svg version="1.1" id="Layer_1" xmlns="http://www.w3.org/2000/svg" xmlns:xlink="http://www.w3.org/1999/xlink" x="0px" y="0px"
	 viewBox="0 0 54.09 54.01" style="enable-background:new 0 0 54.09 54.01;" xml:space="preserve">
<style type="text/css">
	.st0{fill:#020203;}
</style>
<g>
	<path d="M27.05,0C12.16-0.01,0.01,12.08,0,26.9C-0.01,41.88,12.05,54,26.98,54.01c14.98,0.01,27.1-12.06,27.11-26.99
		C54.09,12.1,41.99,0.01,27.05,0z M34.17,38.37c-0.15,0.01-0.28,0.02-0.4,0.02c-2.01,0-4.01,0-6.02,0.01
		c-0.27,0-0.41-0.07-0.49-0.34c-0.19-0.62-0.4-1.23-0.63-1.95c-0.08,0.13-0.12,0.23-0.19,0.31c-1.86,1.91-4.14,2.63-6.75,2.34
		c-0.72-0.08-1.46-0.23-2.13-0.51c-2.42-0.98-3.63-2.86-3.76-5.44c-0.15-3.13,1.46-5.23,4.66-6.2c1.64-0.5,3.32-0.63,5.02-0.64
		c0.96-0.01,1.92,0,2.91,0c0-0.93,0.07-1.82-0.02-2.7c-0.14-1.45-0.99-2.32-2.43-2.6c-1.34-0.26-2.63-0.09-3.86,0.5
		c-0.2,0.1-0.31,0.22-0.34,0.45c-0.1,0.67-0.22,1.34-0.33,2.02h-4.41c0-0.56,0-1.1,0-1.63c0-0.96,0-1.92,0.02-2.88
		c0-0.13,0.07-0.31,0.18-0.38c3.55-2.27,7.37-3.07,11.5-2.01c1.84,0.48,3.41,1.42,4.5,3.04c0.81,1.2,1.11,2.55,1.12,3.96
		c0.02,3.27,0.01,6.54,0.01,9.81c0,0.26,0.02,0.53,0.03,0.79c0.01,0.23,0.1,0.34,0.34,0.35c0.41,0.03,0.81,0.08,1.21,0.16
		c0.1,0.02,0.26,0.15,0.27,0.24C34.18,36.17,34.17,37.25,34.17,38.37z M42.25,20.63c-0.08,2.02-1.81,3.65-3.82,3.58
		c-2.06-0.07-3.71-1.79-3.64-3.8c0.07-2.08,1.79-3.72,3.82-3.65C40.71,16.84,42.34,18.57,42.25,20.63z"/>
	<path d="M26.4,32.38c0,0.11-0.08,0.23-0.15,0.31c-1.31,1.48-2.96,2.07-4.89,1.68c-1.56-0.32-2.23-2.04-1.42-3.51
		c0.54-0.98,1.42-1.46,2.5-1.61c0.35-0.05,0.72-0.07,1.08-0.07c0.95-0.01,1.89,0,2.89,0C26.4,30.27,26.41,31.32,26.4,32.38z"/>
</g>
</svg>
