<?xml version="1.0" encoding="utf-8"?>
<!-- Generator: Adobe Illustrator 25.2.3, SVG Export Plug-In . SVG Version: 6.00 Build 0)  -->
<svg version="1.1" id="Layer_1" xmlns="http://www.w3.org/2000/svg" xmlns:xlink="http://www.w3.org/1999/xlink" x="0px" y="0px"
	 viewBox="0 0 139.73 27.05" style="enable-background:new 0 0 139.73 27.05;" xml:space="preserve">
<style type="text/css">
	.st0{fill:#020203;}
</style>
<g>
	<g>
		<path class="st0" d="M55.34,24.36h-5.74l-1.25,2.51h-2.28l5.4-10.41h2.28l5.4,10.41h-2.56L55.34,24.36z M54.52,22.74l-2.05-4.14
			l-2.05,4.14H54.52z"/>
		<path class="st0" d="M66.36,16.28c1.61,0,3.27,0.49,4.64,1.47l-1.04,1.35c-1.12-0.77-2.05-1.2-3.47-1.2
			c-2.46,0-4.37,1.5-4.37,3.73c0,2.2,1.71,3.79,4.3,3.79c1.15,0,2.2-0.31,2.95-0.8v-1.99h-3.14v-1.59h5.37v4.37
			c-1.25,0.89-3.02,1.64-5.27,1.64c-3.93,0-6.53-2.32-6.53-5.4C59.8,18.25,62.98,16.28,66.36,16.28z"/>
		<path class="st0" d="M74.41,16.46h5.64c2.62,0,4.75,1.06,4.75,3.35c0,1.79-1.31,2.72-3.08,3.12l3.41,3.94h-2.6l-3.09-3.63h-2.78
			v3.63h-2.23V16.46z M79.89,21.62c1.58,0,2.59-0.65,2.59-1.79c0-1.1-0.97-1.71-2.6-1.71h-3.23v3.5H79.89z"/>
		<path class="st0" d="M87.64,16.46h2.23v10.41h-2.23V16.46z"/>
		<path class="st0" d="M98.95,16.28c1.61,0,3.27,0.49,4.64,1.47l-1.04,1.35c-1.12-0.77-2.05-1.2-3.47-1.2
			c-2.45,0-4.37,1.53-4.37,3.76s1.92,3.76,4.37,3.76c1.49,0,2.47-0.46,3.66-1.26l1.04,1.35c-1.4,1-3.15,1.53-4.84,1.53
			c-3.38,0-6.56-1.99-6.56-5.4C92.39,18.25,95.57,16.28,98.95,16.28z"/>
		<path class="st0" d="M104.59,21.67c0-2.95,2.74-5.39,6.59-5.39c3.85,0,6.59,2.44,6.59,5.39c0,2.95-2.74,5.39-6.59,5.39
			C107.33,27.05,104.59,24.61,104.59,21.67z M106.91,21.67c0,2.1,1.74,3.76,4.27,3.76c2.53,0,4.27-1.67,4.27-3.76
			s-1.74-3.76-4.27-3.76C108.65,17.9,106.91,19.57,106.91,21.67z"/>
		<path class="st0" d="M119.84,16.46h2.23v8.75h6.62v1.67h-8.85V16.46z"/>
		<path class="st0" d="M130.09,23.87v-7.41h9.43v1.67h-7.2v2.51h6.61v1.62h-6.61v1.61c0,0.91,0.43,1.34,1.31,1.34h6.1v1.67h-6.64
			C131.19,26.87,130.09,25.76,130.09,23.87z"/>
	</g>
	<g>
		<path class="st0" d="M52.93,2.8c1.61,0,3.27,0.49,4.64,1.47l-1.04,1.35c-1.12-0.77-2.05-1.2-3.47-1.2c-2.46,0-4.37,1.53-4.37,3.76
			c0,2.23,1.92,3.76,4.37,3.76c1.49,0,2.47-0.46,3.66-1.26l1.04,1.35c-1.4,1-3.15,1.53-4.84,1.53c-3.38,0-6.56-1.99-6.56-5.4
			C46.36,4.76,49.55,2.8,52.93,2.8z"/>
		<path class="st0" d="M59.98,2.98h5.64c2.62,0,4.75,1.06,4.75,3.35c0,1.79-1.31,2.72-3.08,3.12l3.41,3.94h-2.6l-3.09-3.63h-2.78
			v3.63h-2.23V2.98z M65.45,8.14c1.58,0,2.59-0.65,2.59-1.79c0-1.1-0.97-1.71-2.6-1.71h-3.23v3.5H65.45z"/>
		<path class="st0" d="M72.83,10.39V2.98h9.43v1.67h-7.2v2.51h6.61v1.62h-6.61v1.61c0,0.91,0.43,1.34,1.31,1.34h6.1v1.67h-6.64
			C73.94,13.39,72.83,12.27,72.83,10.39z M80.02,0L78.3,1.83h-1.9L77.7,0H80.02z"/>
		<path class="st0" d="M85.14,2.98h4.7c4.02,0,6.7,2.08,6.7,5.21s-2.68,5.21-6.7,5.21h-4.7V2.98z M89.99,11.72
			c2.53,0,4.23-1.41,4.23-3.53c0-2.13-1.7-3.56-4.23-3.56h-2.62v7.08H89.99z"/>
		<path class="st0" d="M98.9,2.98h2.23v10.41H98.9V2.98z"/>
		<path class="st0" d="M103.35,4.64V2.98h10.24v1.67h-4v8.75h-2.23V4.64H103.35z"/>
	</g>
	<g>
		<rect x="0.38" y="23.82" class="st0" width="34.19" height="3.06"/>
	</g>
	<path class="st0" d="M37.11,4.45c-0.01,0-5.38,3.09-6.64,3.56c-1.16,0.46-1.59-0.15-1.73-0.36c-0.31-0.47-0.82-2.04-0.89-2.28
		c0.03,0.01,0.33,0.07,1.02-0.11c0.82-0.21,8.24-4.36,8.25-4.35V4.45L37.11,4.45z"/>
	<g>
		<path class="st0" d="M22.12,7.17l2.31,5.78l4.08-2.14l-3.53-7.82h-5.14l-7.22,13.46c0.01,0,3.55-0.11,5.82-1.82
			C19.02,14.28,20.64,10.03,22.12,7.17L22.12,7.17L22.12,7.17z"/>
		<path class="st0" d="M25.86,16.7c0.38,0.89,1.46,3.46,1.74,4.21c0.36,0.81,1.27,0.81,1.27,0.81h4.7l-3.5-7.26
			C28.78,15.18,27.36,15.94,25.86,16.7z"/>
	</g>
	<path class="st0" d="M28.5,10.8l-4.08,2.14c-3.49,1.79-6.8,3.35-8.59,3.86c-4.71,1.36-10.44,2.17-12.5,0.35
		c-1.94-1.72,2.54-8.92,11-10.52c1.37-0.31,2.17-0.23,2.17-0.22c0-0.01-0.58-2.46-1.03-2.98c-0.63-0.77-1.25-0.93-2.17-0.81
		c-1.83,0.11-9.62,2.19-12.7,8.68c-1.71,3.69,0.57,7.41,2.04,8.49c0.69,0.5,5.11,4.47,15.34,0.46
		c10.08-3.91,19.11-10.07,19.12-10.07V6.05C37.1,6.05,33.12,8.33,28.5,10.8z"/>
</g>
</svg>
