<?xml version="1.0" encoding="utf-8"?>
<!-- Generator: Adobe Illustrator 25.2.3, SVG Export Plug-In . SVG Version: 6.00 Build 0)  -->
<svg version="1.1" id="Layer_1" xmlns="http://www.w3.org/2000/svg" xmlns:xlink="http://www.w3.org/1999/xlink" x="0px" y="0px"
	 viewBox="0 0 245.03 119.63" style="enable-background:new 0 0 245.03 119.63;" xml:space="preserve">
<style type="text/css">
	.st0{fill:#3258BE;}
	.st1{fill:#F06A4F;}
</style>
<g>
	<g>
		<path d="M11.58,116.58H5.18l-0.86,2.71H0l5.87-17.25h5.03l5.86,17.25h-4.31L11.58,116.58z M10.4,112.88l-2.02-6.33l-2.02,6.33
			H10.4z"/>
		<path d="M28.22,119.29l-5.52-7.98v7.98h-3.94v-17.25h3.94v7.49l5.27-7.49h4.48l-5.82,8.4l6.06,8.85H28.22z"/>
		<path d="M45.56,116.58h-6.41l-0.86,2.71h-4.31l5.87-17.25h5.03l5.86,17.25h-4.31L45.56,116.58z M44.37,112.88l-2.02-6.33
			l-2.02,6.33H44.37z"/>
		<path d="M68.01,110.66c0,4.88-3.62,8.62-8.38,8.62h-6.9v-17.25h6.9C64.38,102.04,68.01,105.78,68.01,110.66z M64.21,110.66
			c0-2.96-1.87-4.83-4.58-4.83h-2.96v9.66h2.96C62.34,115.49,64.21,113.62,64.21,110.66z"/>
		<path d="M81.76,115.49v3.79H70.92v-17.25h10.72v3.79h-6.78v2.86h6.16v3.75h-6.16v3.06H81.76z"/>
		<path d="M102.27,119.29h-3.94v-10.03l-4.46,7.32h-0.44l-4.46-7.32v10.03h-3.94v-17.25h3.94l4.68,7.66l4.68-7.66h3.94V119.29z"/>
		<path d="M110,102.04v17.25h-3.94v-17.25H110z"/>
		<path d="M123.53,116.58h-6.41l-0.86,2.71h-4.31l5.87-17.25h5.03l5.86,17.25h-4.31L123.53,116.58z M122.35,112.88l-2.02-6.33
			l-2.02,6.33H122.35z"/>
		<path d="M136.72,115.37l3.4-1.97c0.62,1.43,1.68,2.39,3.62,2.39c1.87,0,2.34-0.74,2.34-1.4c0-1.06-0.99-1.48-3.57-2.19
			c-2.56-0.71-5.08-1.95-5.08-5.25c0-3.33,2.81-5.25,5.79-5.25c2.83,0,5.05,1.36,6.31,3.89l-3.33,1.95c-0.59-1.23-1.4-2-2.98-2
			c-1.23,0-1.85,0.62-1.85,1.31c0,0.79,0.42,1.33,3.11,2.14c2.61,0.79,5.54,1.7,5.54,5.35c0,3.33-2.66,5.3-6.41,5.3
			C140,119.63,137.68,117.91,136.72,115.37z"/>
		<path d="M152.6,113.72v-11.68h3.94v11.34c0,1.31,0.62,2.42,2.71,2.42s2.71-1.11,2.71-2.42v-11.34h3.94v11.68
			c0,3.7-2.86,5.91-6.65,5.91S152.6,117.41,152.6,113.72z"/>
		<path d="M179.06,119.29l-5.52-7.98v7.98h-3.94v-17.25h3.94v7.49l5.27-7.49h4.48l-5.82,8.4l6.06,8.85H179.06z"/>
		<path d="M184.01,110.66c0-5.08,3.77-8.97,8.97-8.97c3.13,0,5.89,1.55,7.39,3.99l-3.4,1.97c-0.76-1.33-2.24-2.12-3.99-2.12
			c-3.06,0-5.03,2.05-5.03,5.13c0,3.08,1.97,5.13,5.03,5.13c1.75,0,3.25-0.79,3.99-2.12l3.4,1.97c-1.48,2.44-4.24,3.99-7.39,3.99
			C187.78,119.63,184.01,115.74,184.01,110.66z"/>
		<path d="M213.78,115.49v3.79h-10.84v-17.25h10.72v3.79h-6.78v2.86h6.16v3.75h-6.16v3.06H213.78z"/>
		<path d="M215.85,115.37l3.4-1.97c0.62,1.43,1.68,2.39,3.62,2.39c1.87,0,2.34-0.74,2.34-1.4c0-1.06-0.99-1.48-3.57-2.19
			c-2.56-0.71-5.08-1.95-5.08-5.25c0-3.33,2.81-5.25,5.79-5.25c2.83,0,5.05,1.36,6.31,3.89l-3.33,1.95c-0.59-1.23-1.4-2-2.98-2
			c-1.23,0-1.85,0.62-1.85,1.31c0,0.79,0.42,1.33,3.11,2.14c2.61,0.79,5.54,1.7,5.54,5.35c0,3.33-2.66,5.3-6.41,5.3
			C219.12,119.63,216.81,117.91,215.85,115.37z"/>
		<path d="M231.72,113.72v-11.68h3.94v11.34c0,1.31,0.62,2.42,2.71,2.42s2.71-1.11,2.71-2.42v-11.34h3.94v11.68
			c0,3.7-2.86,5.91-6.65,5.91S231.72,117.41,231.72,113.72z"/>
	</g>
	<g>
		<g>
			<path d="M46.77,63.2H20.9l-3.48,10.95H0L23.68,4.49h20.3l23.68,69.65H50.25L46.77,63.2z M41.99,48.27L33.83,22.7l-8.16,25.57
				H41.99z"/>
			<path d="M70.39,58.32l13.73-7.96c2.49,5.77,6.77,9.65,14.63,9.65c7.56,0,9.45-2.99,9.45-5.67c0-4.28-3.98-5.97-14.43-8.86
				c-10.35-2.89-20.5-7.86-20.5-21.19c0-13.43,11.34-21.19,23.38-21.19c11.44,0,20.4,5.47,25.47,15.72l-13.43,7.86
				c-2.39-4.98-5.67-8.06-12.04-8.06c-4.98,0-7.46,2.49-7.46,5.27c0,3.18,1.69,5.37,12.54,8.66c10.55,3.18,22.39,6.87,22.39,21.59
				c0,13.43-10.75,21.39-25.87,21.39C83.62,75.54,74.27,68.57,70.39,58.32z"/>
			<path class="st0" d="M136.89,65.49c0-5.5,4.55-10.05,10.05-10.05c5.5,0,10.05,4.55,10.05,10.05c0,5.5-4.55,10.05-10.05,10.05
				C141.44,75.54,136.89,70.99,136.89,65.49z"/>
			<g>
				<polygon class="st1" points="137.42,21.16 137.42,0 156.46,0 156.46,21.16 153.29,47.61 140.59,47.61 				"/>
			</g>
		</g>
	</g>
</g>
</svg>
