<?xml version="1.0" encoding="utf-8"?>
<!-- Generator: Adobe Illustrator 25.2.3, SVG Export Plug-In . SVG Version: 6.00 Build 0)  -->
<svg version="1.1" id="Layer_1" xmlns="http://www.w3.org/2000/svg" xmlns:xlink="http://www.w3.org/1999/xlink" x="0px" y="0px"
	 viewBox="0 0 257.33 253.96" style="enable-background:new 0 0 257.33 253.96;" xml:space="preserve">
<g>
	<g>
		<g>
			<path d="M101.08,118.51l-7.86,2.46l-0.07-0.67l-0.12-1.26l-0.15-1.26l-1.28-12.09l-2.98,0.94l1.26,12.09l0.15,1.28l0.12,1.23
				l0.34,3.33l10.89-3.4L101.08,118.51z"/>
			<path d="M112.55,114.71c-0.74,0.62-1.31,1.01-2,1.23c-0.79,0.22-1.45,0.12-1.87-0.49c-0.12-0.17-0.22-0.37-0.3-0.62
				c-0.05-0.17-0.1-0.34-0.12-0.54v-0.2l-0.07-1.08l-0.62-7.76l-7.34,2.29l0.25,2.51l4.36-1.38l0.37,5.27l0.05,0.89
				c0,0.15,0.02,0.27,0.02,0.39c0.05,0.42,0.1,0.81,0.22,1.16c0,0.02,0,0.02,0.02,0.05c0.69,2.19,2.61,2.96,4.9,2.24
				c1.5-0.47,2.49-1.11,3.45-1.92L112.55,114.71z M107.26,100.43c-0.37-1.16-1.38-1.53-2.56-1.16c-1.26,0.39-1.97,1.75-1.6,2.93
				c0.37,1.18,1.48,1.5,2.54,1.18C106.91,102.96,107.65,101.68,107.26,100.43z"/>
			<path d="M127.75,109.52c-0.02-0.2-0.07-0.42-0.15-0.64c-0.07-0.2-0.15-0.39-0.22-0.54c-0.22-0.44-0.49-0.79-0.84-1.03
				c-0.94-0.76-2.32-0.99-4.02-1.01c-2.22-0.07-3.18-0.2-3.45-1.06c-0.27-0.86,0.37-1.58,1.6-1.95c1.6-0.52,3.25-0.2,4.56,0.34
				l1.08-2.29c-1.5-0.79-3.55-1.18-6.01-0.42c-2.76,0.86-4.75,2.93-3.94,5.54c0.54,1.75,2.02,2.46,4.48,2.61
				c0.2,0.02,0.42,0.02,0.64,0.02c1.23,0.02,2.07,0.05,2.61,0.27c0.44,0.12,0.69,0.39,0.81,0.79c0.02,0.07,0.05,0.15,0.05,0.22
				c0.12,0.84-0.67,1.48-1.95,1.9c-1.31,0.39-2.71,0.44-4.06-0.02c-0.39-0.12-0.79-0.3-1.16-0.49l-0.44,1.01l-0.64,1.38
				c1.77,1.01,4.19,1.26,6.5,0.54C126.13,113.78,128.15,112,127.75,109.52z"/>
			<path d="M142.16,105.06c-0.66,0.74-1.58,1.5-2.71,1.85c-0.86,0.27-1.6,0.17-2.09-0.39c-0.22-0.25-0.42-0.57-0.54-0.99
				c-0.02-0.05-0.02-0.07-0.05-0.12c-0.07-0.25-0.12-0.54-0.15-0.96l-0.02-0.3l-0.52-5.22l5.74-1.8l-0.27-2.49l-5.69,1.77
				l-0.42-4.21L133,92.96v4.34l-3.6,1.28l0.25,2.34l3.47-1.08l0.54,5.25l0.02,0.34c0.02,0.34,0.07,0.62,0.12,0.89
				c0.05,0.3,0.1,0.57,0.2,0.84c0.05,0.12,0.07,0.25,0.12,0.37c0.79,2.04,2.49,2.98,5.22,2.12c1.9-0.59,3.5-1.7,4.38-2.78
				L142.16,105.06z"/>
			<path d="M155,90.43l-1.58,7.17c-0.07,0.42-0.17,0.91-0.27,1.4c-0.07,0.44-0.15,0.91-0.25,1.35c-0.07,0.47-0.15,0.94-0.2,1.35
				c-0.02,0.17-0.05,0.34-0.07,0.49l-0.12,0.02c-0.05-0.12-0.12-0.25-0.17-0.39c-0.17-0.34-0.37-0.71-0.57-1.11
				c-0.17-0.37-0.37-0.76-0.57-1.13c-0.2-0.39-0.39-0.79-0.57-1.13l-3.15-5.69l-2.88,0.91l3.97,6.75l0.64,1.08l0.64,1.11l1.68,2.83
				l-0.27,1.11c-0.44,1.7-1.08,2.54-2.54,2.98c-0.52,0.17-1.21,0.2-1.68,0.12l-0.22,2.34c0.62,0.15,1.53,0.12,2.41-0.15
				c2.83-0.89,4.19-2.83,5.03-6.45l1.06-4.51l0.34-1.38l0.32-1.4l2.04-8.65L155,90.43z"/>
		</g>
		<g>
			<path d="M51.86,185.68l-7.46,2.34l5.44-10.22l0.62-1.13l-0.22-1.85l-1.16,0.37l-9.8,3.05l0.22,2.46l7.12-2.22l-6.08,11.4
				l0.22,1.85l11.38-3.55L51.86,185.68z"/>
			<path d="M82.55,168.54l-5.69,1.77l0.3,2.61l3.03-0.94l0.39,4.02c-0.39,0.62-1.11,1.16-2,1.45c-2.68,0.84-4.34-0.74-5.2-3.47
				c-0.84-2.71-0.57-5.71,0.84-7.66c0.59-0.86,1.43-1.53,2.46-1.85c0.96-0.3,1.77-0.15,2.54,0.32c0.2,0.12,0.42,0.27,0.62,0.44
				l0.57-0.81l1.01-1.4c-0.05-0.05-0.12-0.1-0.17-0.15c-0.42-0.37-0.86-0.67-1.35-0.86c-1.13-0.52-2.41-0.62-3.84-0.2
				c-1.6,0.49-2.91,1.4-3.89,2.56c-0.44,0.49-0.84,1.06-1.16,1.65c-0.25,0.47-0.47,0.99-0.62,1.5c-0.79,2.29-0.81,5,0,7.61
				c1.35,4.34,4.51,6.28,8.52,5.02c2.04-0.64,3.6-1.95,4.56-3.35L82.55,168.54z"/>
			<path d="M93.88,160.8c-2.04,0.64-3.55,2.83-4.24,5.49l-0.1,0.02l-0.67-3.62l-2.46,0.74l1.5,13.55l2.98-0.94l-0.66-6.33
				c0.74-3.18,2.12-5.49,3.89-6.06c0.79-0.25,1.45-0.3,2.17-0.15l0.3-2.91C95.95,160.41,94.99,160.46,93.88,160.8z"/>
			<path d="M110.95,166c-0.91,1.21-2.02,2.22-3.55,2.71c-1.87,0.59-3.6,0-4.36-2.39c-0.02-0.05-0.02-0.1-0.02-0.15l9.02-2.83
				c0.02-0.42-0.07-1.65-0.39-2.64c-0.89-2.91-3.37-4.41-6.6-3.4c-3.89,1.23-6.36,5.47-4.93,10.05c1.18,3.77,4.06,4.9,7.34,3.87
				c2.27-0.71,4.04-2.07,5.15-3.55L110.95,166z M105.66,159.64c1.48-0.44,2.71,0.2,3.23,1.85c0.05,0.2,0.1,0.39,0.12,0.59
				l-6.26,1.92C102.82,161.76,104.18,160.11,105.66,159.64z"/>
			<path d="M127.14,156.12c-0.1-0.69-0.2-1.38-0.42-2.04c-0.62-2.04-2.12-2.88-4.29-2.19c-1.97,0.62-3.47,2.49-4.41,4.26l-0.1,0.05
				l-0.52-2.41l-2.44,0.76l1.48,13.52l2.98-0.94l-0.91-8.42c0.86-2.07,2.07-3.45,3.37-3.87c1.01-0.3,1.72,0.05,2.02,1.03
				c0.15,0.47,0.2,0.96,0.27,1.55l0.84,7.96l2.98-0.94L127.14,156.12z"/>
			<path d="M140.36,157.57c-0.74,0.69-1.28,1.06-2.07,1.31c-0.96,0.3-1.77,0.05-2.12-1.03c-0.12-0.39-0.17-0.74-0.2-1.06
				l-1.31-14.26l-0.02-0.15l-6.77,2.12l0.02,0.15l0.22,2.34l3.84-1.18l1.01,11.6c0.05,0.59,0.15,1.11,0.3,1.58
				c0.76,2.44,2.73,3.3,4.9,2.64c1.35-0.42,2.46-1.03,3.52-2.02L140.36,157.57z"/>
			<path d="M154.58,142.15l-2.41,0.76l-0.07,1.6l-0.12,0.05c-0.96-0.89-2.44-1.16-4.16-0.64c-3.72,1.16-5.71,5.99-4.26,10.62
				c0.99,3.15,3.2,4.38,5.76,3.57c1.5-0.47,2.83-1.77,3.69-3.47l0.1-0.05l0.47,1.85l2.44-0.74L154.58,142.15z M149.6,155.33
				c-1.33,0.42-2.49-0.2-3.1-2.17c-0.96-3.05,0.2-6.18,2.56-6.92c0.89-0.27,2.02-0.17,2.98,0.64l0.49,5.17
				C151.84,153.88,150.71,154.99,149.6,155.33z"/>
			<path d="M170.91,142.43c-0.1-0.69-0.2-1.38-0.42-2.04c-0.62-2.04-2.12-2.88-4.29-2.19c-1.97,0.62-3.47,2.49-4.41,4.26l-0.1,0.05
				l-0.52-2.41l-2.44,0.76l1.48,13.52l2.98-0.94l-0.91-8.42c0.89-2.07,2.07-3.45,3.37-3.84c1.01-0.32,1.72,0.02,2.04,1.01
				c0.12,0.47,0.17,0.96,0.25,1.55l0.84,7.96l2.98-0.94L170.91,142.43z"/>
			<path d="M186.03,133.83l-0.12-1.26l-0.15-1.26l-0.47-4.58l-0.02-0.2l-2.98,0.94l0.02,0.17l0.49,4.48l0.02,0.15l0.2,1.23v0.02
				l0.2,1.13l-0.07,0.02c-0.42-0.34-0.94-0.59-1.5-0.71c-0.74-0.17-1.6-0.12-2.56,0.17c-0.89,0.3-1.68,0.79-2.36,1.45
				c-0.49,0.49-0.94,1.06-1.28,1.72c-1.13,2.04-1.43,4.78-0.59,7.41c0.99,3.18,3.18,4.38,5.74,3.6c1.53-0.47,2.86-1.77,3.69-3.5
				l0.12-0.02l0.47,1.85l2.41-0.76L186.03,133.83z M180.91,145.55c-1.35,0.42-2.49-0.22-3.1-2.17c-0.96-3.08,0.2-6.21,2.56-6.95
				c0.86-0.27,2.02-0.15,2.96,0.67l0.52,5.17C183.15,144.1,182.02,145.18,180.91,145.55z"/>
			<path d="M201.53,138.76l-0.15-0.22c-0.74,0.62-1.31,1.01-1.97,1.23c-1.01,0.3-1.82,0.05-2.19-1.11c-0.07-0.22-0.1-0.47-0.12-0.74
				l-0.59-7.56l-0.1-1.26v-0.02l-7.34,2.29l0.02,0.15l0.12,1.26l0.1,1.08l4.36-1.35l0.42,6.16c0.05,0.57,0.1,1.08,0.25,1.55
				c0.69,2.22,2.64,3.01,4.93,2.29c0.3-0.1,0.57-0.2,0.81-0.32c1.08-0.39,1.87-0.96,2.64-1.63L201.53,138.76z M196.08,124.25
				c-0.1-0.3-0.22-0.54-0.44-0.74c-0.44-0.57-1.23-0.69-2.09-0.42c-0.76,0.25-1.35,0.84-1.58,1.55c-0.17,0.44-0.17,0.91-0.02,1.38
				c0.37,1.18,1.48,1.5,2.51,1.18C195.74,126.78,196.48,125.5,196.08,124.25z"/>
			<path d="M214.16,134.52c-0.2,0.17-0.37,0.32-0.54,0.44c-0.39,0.3-0.74,0.52-1.13,0.66c-0.1,0.05-0.2,0.1-0.32,0.12
				c-0.32,0.1-0.62,0.15-0.89,0.1c-0.59-0.05-1.03-0.42-1.28-1.18c-0.07-0.22-0.1-0.49-0.12-0.76l-0.42-5.37l-0.2-2.39l-0.07-1.06
				l-0.76,0.25l-1.45,0.44l-5.12,1.6l0.12,1.18l0.12,1.31l3.62-1.13l0.74-0.22l0.42,6.13c0.05,0.59,0.1,1.08,0.25,1.58
				c0.67,2.09,2.46,2.93,4.66,2.36c0.1-0.02,0.17-0.05,0.27-0.07c0.32-0.1,0.62-0.22,0.91-0.34c0.42-0.15,0.81-0.34,1.16-0.57
				c0.49-0.3,0.94-0.64,1.38-1.03L214.16,134.52z M208.87,120.26c-0.1-0.3-0.22-0.54-0.44-0.74c-0.44-0.57-1.23-0.71-2.09-0.44
				c-0.81,0.25-1.38,0.86-1.6,1.58c-0.15,0.44-0.17,0.91-0.02,1.35c0.37,1.21,1.5,1.5,2.54,1.18c0.12-0.05,0.27-0.1,0.37-0.15
				c0.3-0.12,0.52-0.3,0.71-0.52l0.02-0.02c0.1-0.1,0.2-0.22,0.25-0.34c0.27-0.39,0.39-0.84,0.37-1.31
				C208.97,120.65,208.94,120.45,208.87,120.26z"/>
		</g>
		<path d="M257.28,108.95l-6.8-21.18l6.8-21.21c0.12-0.42,0.02-0.91-0.32-1.23c-0.32-0.34-0.81-0.44-1.26-0.3l-13.42,4.43V47.07
			c0-0.39-0.17-0.76-0.49-0.99c-0.32-0.25-0.74-0.3-1.11-0.2l-58.53,18.28L153.28,0.72c-0.17-0.42-0.62-0.69-1.08-0.71
			c-0.47-0.02-0.91,0.25-1.11,0.67l-13.45,25.89l-6.72-14.73c-0.17-0.44-0.62-0.71-1.08-0.74c-0.49,0.02-0.91,0.25-1.11,0.67
			l-7.39,14.24L108.2,0.67c-0.2-0.42-0.66-0.69-1.11-0.67c-0.47,0.02-0.91,0.3-1.08,0.71L86.1,44.46c-0.02,0.02-0.02,0.07-0.05,0.1
			l-26.31,57.81h-0.02l-43.11,13.47c-0.52,0.15-0.86,0.64-0.86,1.18v21.53l-14.88,4.58c-0.32,0.1-0.59,0.32-0.74,0.62
			s-0.17,0.64-0.07,0.94l6.77,21.21l-6.77,21.18c-0.15,0.44-0.02,0.91,0.3,1.23c0.22,0.25,0.54,0.37,0.86,0.37
			c0.12,0,0.25-0.02,0.37-0.05l14.16-4.36v26.28c0,0.39,0.17,0.74,0.49,0.99c0.22,0.15,0.47,0.25,0.74,0.25
			c0.12,0,0.25-0.02,0.37-0.07l42.37-13.23c12.14,18.55,31.38,32.02,53.99,36.63l5.74,17.98v0.02c0.12,0.34,0.37,0.59,0.67,0.71
			v0.02c0.02,0,0.02,0,0.02,0s0,0,0.02,0c0,0,0,0,0,0.02c0.15,0.05,0.3,0.07,0.47,0.07c0.1,0,0.2-0.02,0.32-0.05
			c0.05,0,0.1-0.02,0.15-0.05c0.15-0.07,0.3-0.15,0.42-0.27l15.05-15.03l21.01,13.03c0.2,0.12,0.42,0.2,0.64,0.2
			c0.17,0,0.32-0.02,0.47-0.1c0.37-0.15,0.64-0.44,0.74-0.84l5.35-21.23c30.74-13.55,50.6-43.92,50.6-77.54c0-0.71,0-1.43-0.05-2.14
			l26.09-8.15c0.52-0.17,0.86-0.64,0.86-1.18v-25.4l14.21-4.7C257.13,110.28,257.47,109.59,257.28,108.95z M175.22,54.93l0.02,0.02
			l4.53,9.95L146.9,75.18l-0.47-0.91c-0.02-0.02-0.05-0.05-0.05-0.07c-0.02-0.02-0.02-0.05-0.05-0.07l-0.07-0.15l-15.22-29.36
			l4.95-9.53l8.42,7.41c0.47,0.42,1.18,0.42,1.65-0.02l6.55-6.08l22.24,18.35C174.98,54.83,175.1,54.88,175.22,54.93z M152.09,4.04
			l20.89,45.92v0.02L153.35,33.8c-0.47-0.39-1.16-0.37-1.63,0.05l-6.53,6.06l-8.05-7.09L152.09,4.04z M129.73,15.15l6.45,14.16
			l-6.55,12.64l-6.92-13.3L129.73,15.15z M88.71,44.66l18.47-40.62l21.26,40.89c0,0.05,0.02,0.1,0.05,0.12l0.12,0.27l12.78,24.63
			l-29.21-24.09c-0.49-0.39-1.18-0.37-1.63,0.05l-9.98,9.24L88.71,44.69V44.66z M87.61,47l12.17,10.74
			c0.49,0.42,1.21,0.39,1.65-0.02l10.03-9.26l32.86,27.07l0.22,0.39L62.9,101.39L87.61,47z M18.22,117.92l221.59-69.17v39.31
			L18.22,157.26V117.92z M220.6,96.66v7.14l-47.25,14.75L34.94,161.76v-7.17l138.88-43.35l24.61-7.69l0.25-0.07L220.6,96.66z
			 M16.62,167.48c-0.52,0.15-0.86,0.64-0.86,1.18v13.03l-12.64,3.89l6.18-19.31c0.07-0.25,0.07-0.52,0-0.76l-6.53-20.37l12.98-3.99
			v17.78c0,0.37,0.17,0.74,0.49,0.99c0.22,0.15,0.47,0.25,0.74,0.25c0.12,0,0.25-0.02,0.37-0.07l15.12-4.73v7.17L16.62,167.48z
			 M120.34,247.76l-4.36-13.67v-0.02l-0.02-0.1c-0.02-0.22-0.07-0.42-0.2-0.59l-3.82-11.95l55.55-35.94l-43.3,43.55l-0.02,0.02
			c-0.02,0.02-0.05,0.05-0.05,0.07c-0.02,0-0.02,0-0.02,0.02c0,0,0,0,0,0.02c-0.05,0.02-0.07,0.05-0.12,0.1
			c-0.02,0.05-0.02,0.1-0.05,0.15c0,0.02-0.02,0.02-0.02,0.05c0,0.02-0.02,0.05-0.02,0.1c-0.02,0.02-0.05,0.07-0.05,0.12v0.05
			L120.34,247.76z M110.49,219.45l-20.37-12.66l77.96-24.63L110.49,219.45z M122.61,249.04l3.3-17.1l8.52,5.3L122.61,249.04z
			 M157.44,248.62l-30.45-18.89l0.02-0.02l47.1-47.39l0.02-0.02L157.44,248.62z M165.54,226.52l12.02-47.76v-0.05
			c0.02,0,0.02,0,0.02-0.02v-0.07l0.02-0.1v-0.02c0.05-0.07,0.05-0.12,0.05-0.22c0-0.12,0-0.25-0.02-0.34
			c-0.02-0.05-0.05-0.1-0.07-0.17v-0.02c-0.05-0.1-0.1-0.17-0.17-0.27c-0.05-0.05-0.07-0.1-0.12-0.12c0,0-0.02,0-0.02-0.02
			c-0.1-0.07-0.17-0.15-0.3-0.2c-0.02-0.02-0.05-0.02-0.07-0.02c0,0-0.02,0-0.02-0.02c-0.05-0.02-0.1-0.02-0.12-0.02
			c-0.02,0-0.05,0-0.05,0c-0.07-0.02-0.12-0.05-0.2-0.05c-0.02,0-0.05,0-0.05,0c-0.1,0-0.2,0.02-0.3,0.05
			c-0.02,0.02-0.05,0-0.07,0.02l-89.24,28.2c-0.44,0.15-0.79,0.54-0.84,1.01c-0.07,0.49,0.15,0.96,0.57,1.21l22.88,14.21l3.28,10.25
			v0.02l0.15,0.42c-21.13-4.63-39.12-17.32-50.67-34.66l13.65-4.26l118.19-36.9l18.87-5.86c0.02,0.44,0.02,0.91,0.02,1.38
			C212.91,184.08,194.41,213,165.54,226.52z M239.81,139.69L18.22,208.89v-39.34l221.59-69.17V139.69z M242.27,112.6V98.7
			c0-0.39-0.17-0.76-0.49-0.99c-0.32-0.22-0.74-0.3-1.11-0.17l-17.61,5.49V95.9l18.35-5.74c0.52-0.17,0.86-0.64,0.86-1.18v-16.9
			l11.9-3.94l-6.16,19.26c-0.07,0.22-0.07,0.49,0,0.74l6.53,20.4L242.27,112.6z"/>
	</g>
</g>
</svg>
