<?xml version="1.0" encoding="utf-8"?>
<!-- Generator: Adobe Illustrator 19.0.0, SVG Export Plug-In . SVG Version: 6.00 Build 0)  -->
<svg version="1.1" id="Bold" xmlns="http://www.w3.org/2000/svg" xmlns:xlink="http://www.w3.org/1999/xlink" x="0px" y="0px"
	 viewBox="106 -106 512 512" style="enable-background:new 106 -106 512 512;" xml:space="preserve">
<style type="text/css">
	.st0{fill:#5929CE;}
</style>
<path class="st0" d="M369.7,212.9c0-39.4-18.8-68.6-57.5-79.5c28.3-13.5,43-33.9,43-65.6c0-62.5-46.8-77.8-100.7-77.8H106v314h152.7
	C316,304,369.7,276.7,369.7,212.9L369.7,212.9z M175.2,43.6h65c25,0,47.5,7,47.5,35.9c0,26.7-17.5,37.4-42.2,37.4h-70.2V43.6z
	 M175.2,250.7v-86.5h75.5c30.5,0,49.8,12.7,49.8,44.8c0,31.7-23,41.6-51.2,41.6H175.2z"/>
<path class="st0" d="M507,310c54.5,0,89.8-24.5,106.8-76.5h-55.3c-6,19.4-30.5,29.7-49.5,29.7c-36.7,0-56-21.4-56-57.9h164.5
	c5.2-72.9-35.4-135.1-110.5-135.1c-69.5,0-116.7,52.1-116.7,120.3C390.2,261.4,435,310,507,310z M505,117.4
	c31.5,0,47.3,18.4,49.9,48.6H453C455.1,136.1,475,117.4,505,117.4L505,117.4z"/>
<path class="st0" d="M440.2,6.5H568v30.9H440.2L440.2,6.5z"/>
</svg>
