<?xml version="1.0" encoding="utf-8"?>
<!-- Generator: Adobe Illustrator 19.0.0, SVG Export Plug-In . SVG Version: 6.00 Build 0)  -->
<svg version="1.1" id="Bold" xmlns="http://www.w3.org/2000/svg" xmlns:xlink="http://www.w3.org/1999/xlink" x="0px" y="0px"
	 viewBox="201 -231 512 512" style="enable-background:new 201 -231 512 512;" xml:space="preserve">
<style type="text/css">
	.st0{fill:#ED372E;}
</style>
<path class="st0" d="M464.7,87.9c0-39.4-18.8-68.6-57.5-79.5c28.3-13.5,43-33.9,43-65.6c0-62.5-46.8-77.8-100.7-77.8H201v314h152.7
	C411,179,464.7,151.7,464.7,87.9L464.7,87.9z M270.2-81.4h65c25,0,47.5,7,47.5,35.9c0,26.7-17.5,37.4-42.2,37.4h-70.2V-81.4z
	 M270.2,125.7V39.2h75.5c30.5,0,49.8,12.7,49.8,44.8c0,31.7-23,41.6-51.2,41.6H270.2z"/>
<path class="st0" d="M602,185c54.5,0,89.8-24.5,106.8-76.5h-55.3c-6,19.4-30.5,29.7-49.5,29.7c-36.7,0-56-21.4-56-57.9h164.5
	C717.7,7.4,677.1-54.7,602-54.7c-69.5,0-116.7,52.1-116.7,120.3C485.2,136.4,530,185,602,185z M600-7.6c31.5,0,47.3,18.4,49.9,48.6
	H548C550.1,11.1,570-7.6,600-7.6L600-7.6z"/>
<path class="st0" d="M535.2-118.5H663v30.9H535.2V-118.5z"/>
</svg>
