<svg id="Layer_1" data-name="Layer 1" xmlns="http://www.w3.org/2000/svg" viewBox="0 0 465.69 166.46"><path d="M91.06,115.36c-24.17,0-34.48-8.14-34.48-27.22,0-18.13,10.36-25.87,34.64-25.87,21.29,0,33.61,3.19,33.61,19.47a14.15,14.15,0,0,1-.17,2.62l-.08.43-.43,0c-2.91-.16-6.79-.16-11.28-.16-4.05,0-7.88,0-10.08.15l-.53,0v-.53a3.17,3.17,0,0,0-.07-.83c-.28-4.16-1.92-6.1-10.5-6.1-8.37,0-11.2,2.72-11.2,10.8s3,11,11.44,11c8.82,0,10.12-3.39,10.33-5.94V91.63l.53,0c2.78.22,6,.32,10.24.32,4,0,7.68-.15,11.44-.32l.46,0,.06.47a20.13,20.13,0,0,1,.08,2.18C125.07,109.26,115.22,115.36,91.06,115.36Zm.16-52.09c-23.58,0-33.64,7.44-33.64,24.87,0,18.38,10,26.22,33.48,26.22s33-5.81,33-20.06c0-.55,0-1.08,0-1.61-3.6.16-7.17.3-11,.3s-7.09-.09-9.77-.28v.57c-.38,4.66-4.09,6.9-11.33,6.9-9,0-12.44-3.37-12.44-12s3.2-11.8,12.2-11.8c8.24,0,11.14,1.75,11.48,7a2,2,0,0,1,.07.44c2.28-.12,5.86-.12,9.63-.12,4.28,0,8,0,10.88.13a17.14,17.14,0,0,0,.08-2C123.83,68.11,115.3,63.27,91.22,63.27Z"/><path d="M192.77,113.85h-61l0-.53c.16-2.28.16-4.9.16-7,0-2.79,0-5.68-.08-7.25v-.3l.27-.16a131.74,131.74,0,0,0,11.79-8c2.83-2.07,5.74-4.21,8.64-6.15a78.45,78.45,0,0,1,8.09-4.9c-3.44.24-6.94.36-10.89.36-8.73,0-12.72,0-17.3.08H132l0-.55c.16-2.12.16-6.11.16-8s0-4.72-.16-7.23l0-.53H192.6v.5c0,1.17,0,2.29,0,3.4s0,2.11,0,3.15c0,2.3,0,6.15.16,8.11l0,.32-.28.15c-5.43,3-12.83,8.45-19.94,13.72a68.26,68.26,0,0,1-8.41,4.94c4.36-.2,8.26-.31,11.59-.31,7.79,0,12.08,0,16.58-.16l.56,0,0,.56c-.16,2-.16,5.89-.16,7.79s.05,3.6.11,5.71Zm-59.89-1h58.86l0-1.34c-.06-2.12-.11-3.94-.11-5.74s0-5.22.12-7.31c-4.32.14-8.58.14-16.06.14-3.72,0-8.16.13-13.17.39l-.41,0-.28-1.11.37-.17a69.94,69.94,0,0,0,9.73-5.57c7-5.2,14.3-10.53,19.76-13.62-.14-2.07-.14-5.67-.14-7.87,0-1,0-2.1,0-3.17s0-1.9,0-2.88H133c.13,2.39.13,4.9.13,6.76s0,5.33-.13,7.56c4.37-.07,8.39-.07,16.78-.07,4.49,0,8.39-.15,12.28-.47l.45,0,.24,1.21-.34.17a76.69,76.69,0,0,0-9.27,5.49c-2.88,1.94-5.79,4.07-8.6,6.13a135.38,135.38,0,0,1-11.64,8c.07,1.64.07,4.36.07,7C133,108.28,133,110.68,132.88,112.85Z"/><path d="M232.69,115.36c-24,0-34.65-8.3-34.65-26.9C198,70.29,209,62.19,233.4,62.19c22.64,0,31.87,6.17,31.87,21.29a86.93,86.93,0,0,1-.47,9.22l-.05.46h-.46C258,93,247.73,93,238.69,93c-6.49,0-12.65,0-16.83.07.77,6.43,3.85,8.73,11.54,8.73,8.07,0,9.24-2.58,9.3-5.36V95.9l.52,0c2.26.15,6,.23,10.56.23,4.11,0,7.69-.08,10.64-.23l.5,0,0,.5c.31,5.7-.75,9.49-3.41,12.3C257.18,113.31,248.28,115.36,232.69,115.36Zm.71-52.17c-24.08,0-34.36,7.56-34.36,25.27,0,18.15,10.06,25.9,33.65,25.9,15.3,0,24-2,28.13-6.34,2.38-2.51,3.36-5.93,3.16-11.06-2.86.14-6.29.21-10.19.21-4.25,0-7.81-.07-10.12-.2-.32,4.07-3.43,5.82-10.27,5.82-8.36,0-11.88-2.85-12.59-10.17l-.05-.54h.54c4.19-.08,10.6-.08,17.39-.08,8.83,0,18.8,0,25.16.15a86.14,86.14,0,0,0,.42-8.66C264.27,71.3,259,63.19,233.4,63.19Zm-1.27,21.86c-3.7,0-7.32,0-10.76-.12l-.55,0,.07-.54c.86-7.6,4-10.16,12.51-10.16,7.48,0,10.53,2.52,10.53,8.72a10.13,10.13,0,0,1-.08,1.58l-.07.41h-.41C239.61,85,235.83,85.05,232.13,85.05ZM222,83.94c6.58.14,13.8.14,21,0,0-.31,0-.64,0-1,0-5.63-2.58-7.72-9.53-7.72C225.68,75.21,222.83,77.34,222,83.94Z"/><path d="M304.09,115.27c-23.94,0-32.43-4.2-32.43-16.07,0-.43,0-.86,0-1.3s0-.9,0-1.38V96l.54,0c2.88.23,6.5.47,11.5.47a77.46,77.46,0,0,0,7.76-.23l.56-.06v1.27c0,2.67,1.88,4.32,11.2,4.32,7.94,0,9.54-1.08,9.54-2.82s-1.13-3.43-14.94-4.09c-19.19-1.18-26.32-5.62-26.32-16.38,0-11.53,9.19-16.23,31.72-16.23,23.35,0,32,4.27,32,15.75,0,.8-.07,1.66-.15,2.5l0,.5-.51,0c-2.71-.23-7.37-.39-11.57-.39-3.26,0-6.21.08-7.88.15l-.53,0V79.45c0-2.38-1.72-3.85-10.32-3.85S295,76.81,295,78.26c0,1.72,1.16,3.22,15.41,4.09,19.81,1.37,25.84,5.18,25.84,16.3C336.2,110.46,326.9,115.27,304.09,115.27ZM272.73,97.06c0,.3,0,.6,0,.88,0,.43,0,.85,0,1.26,0,9.55,5.14,15.07,31.43,15.07,25.82,0,31.11-6.24,31.11-15.62s-3.59-13.83-24.9-15.31c-14-.84-16.35-2.25-16.35-5.08s2.52-3.66,10.38-3.66c8.25,0,11.32,1.32,11.32,4.85v.34c1.74-.06,4.45-.13,7.41-.13,4,0,8.37.14,11.16.35.06-.71.11-1.38.11-2,0-10.89-8.12-14.75-31-14.75-22.11,0-30.72,4.27-30.72,15.23,0,8.75,4.15,14.07,25.38,15.38,13.5.65,15.88,2.16,15.88,5.09s-2.76,3.82-10.54,3.82c-8.89,0-12.2-1.44-12.2-5.32v-.16c-2,.18-4.6.18-7.32.18C279.05,97.49,275.55,97.28,272.73,97.06ZM288.39,60.6l-.12-.47c-.41-1.66-.94-3.24-1.45-4.76l-.36-1.06.49-.15c5.43-1.66,35.34-11.13,41-13.35l.55-.21.12.57c.72,3.17,2.06,7.9,3.07,11.18l.18.57-.59.07c-6.34.81-36.17,6.14-42.4,7.5ZM287.74,55l0,.09c.45,1.33.95,2.83,1.36,4.37,6.93-1.47,34.18-6.34,41.42-7.34-.93-3.06-2.08-7.14-2.78-10.13C321.14,44.44,294.08,53,287.74,55Z"/><path d="M375.1,115.36c-24.17,0-34.48-8.14-34.48-27.22,0-18.13,10.36-25.87,34.64-25.87,21.29,0,33.61,3.19,33.61,19.47a15,15,0,0,1-.16,2.62l-.08.43-.44,0c-2.91-.16-6.79-.16-11.28-.16-4.05,0-7.88,0-10.08.15l-.53,0v-.53a3.17,3.17,0,0,0-.07-.83c-.28-4.16-1.92-6.1-10.5-6.1-8.37,0-11.19,2.72-11.19,10.8s3,11,11.43,11c8.82,0,10.12-3.39,10.33-5.94V91.63l.54,0c2.77.22,6,.32,10.23.32,4,0,7.68-.15,11.44-.32l.47,0,0,.47a20.13,20.13,0,0,1,.08,2.18C409.11,109.26,399.26,115.36,375.1,115.36Zm.16-52.09c-23.58,0-33.64,7.44-33.64,24.87,0,18.38,10,26.22,33.48,26.22s33-5.81,33-20.06c0-.55,0-1.08,0-1.61-3.61.16-7.18.3-11,.3s-7.09-.09-9.77-.28v.57c-.38,4.66-4.09,6.9-11.33,6.9-9,0-12.43-3.37-12.43-12s3.19-11.8,12.19-11.8c8.25,0,11.14,1.75,11.49,6.94a2.22,2.22,0,0,1,.07.45c2.28-.12,5.85-.12,9.62-.12,4.28,0,8,0,10.88.13a17.14,17.14,0,0,0,.08-2C407.87,68.11,399.34,63.27,375.26,63.27ZM361,60.6l-.11-.47c-.41-1.64-.94-3.21-1.45-4.71l-.37-1.11.49-.15c5.24-1.6,35.43-11.16,41-13.35l.54-.21.13.57c.71,3.19,2.06,7.91,3.07,11.18l.17.57-.59.07c-6.34.81-36.17,6.14-42.39,7.5ZM360.33,55l0,.14c.47,1.38.95,2.81,1.35,4.32,6.92-1.47,34.17-6.34,41.42-7.34-.93-3-2.09-7.13-2.79-10.13C393.71,44.45,366.67,53,360.33,55Z"/><path d="M120.93,117.5c0,.91.68,1.35,3.27,1.35,2.24,0,2.81-.31,2.81-.93s-.6-1.1-4.31-1.28c-5.73-.35-7.24-1.75-7.24-4.45,0-3.07,2.32-4.4,8.74-4.4s8.83,1.09,8.83,4.27a5.92,5.92,0,0,1-.05.71c-.77-.07-2.1-.11-3.25-.11-.91,0-1.72,0-2.21,0v-.24c0-.82-.66-1.22-3-1.22s-2.77.29-2.77.89.45,1,4.45,1.28c5.73.4,7.1,1.55,7.1,4.43,0,3-2.19,4.51-8.85,4.51-7.14,0-8.94-1.42-8.94-4.36,0-.24,0-.49,0-.75.81.06,1.83.13,3.23.13a20.59,20.59,0,0,0,2.19-.07Z"/><path d="M142.4,110.58c1.08-1.77,3.12-2.7,6-2.7,4.49,0,6.77,2.28,6.77,7.15s-2.5,7.21-6.79,7.21c-3.41,0-5.14-1.13-6-2.46l-.16,0c0,.67,0,1.33,0,2.13,0,1.08,0,2.12.07,3.25h-6.75c.09-2.7.09-6.92.09-10.38,0-2.87,0-4.82,0-6.63h6.68c0,.44,0,.84,0,1.24s0,.7-.05,1.1Zm-.27,6.9a8.21,8.21,0,0,0,3.32.55c2.24,0,3.19-.86,3.19-3.14s-1-3-2.88-3c-2.08,0-3.63.88-3.63,3.1Z"/><path d="M168.63,113.68c0-1.49-.53-2-2.66-2-2.3,0-2.87.64-2.81,2-.64-.06-1.63-.06-2.7-.06a30.45,30.45,0,0,0-3.14.11c0-4.23,2.32-5.89,8.79-5.89,6.63,0,8.89,1.91,8.89,5.51,0,1.79-.07,3.06-.07,4.76a16.6,16.6,0,0,0,.36,3.87H170c-1.17,0-1.35-.09-1.35-1.33,0-.28,0-.7,0-1.17h-.14c-.73,1.9-2.78,2.81-5.9,2.81-3.85,0-5.8-1-5.8-3.89s2.28-4.05,7.41-4.05a29,29,0,0,1,4.34.22Zm0,2.7a25.33,25.33,0,0,0-3.06-.14c-1.81,0-2.59.4-2.59,1.29s.64,1.23,2.41,1.23C167.3,118.76,168.61,117.92,168.61,116.38Z"/><path d="M190.08,116c.86.07,1.81.09,2.87.09s2.19,0,3.21-.09c0,.2,0,.4,0,.6,0,3.76-2.17,5.75-9.38,5.75-6.72,0-9.51-2.28-9.51-7.48s2.94-7.1,9.56-7.1c6.32,0,9.27,1.11,9.27,5.31a3.49,3.49,0,0,1-.05.71c-.82,0-1.9,0-3.16,0s-2.21,0-2.83,0a.83.83,0,0,0,0-.27c-.08-1.32-.77-1.81-3.07-1.81s-3.28.75-3.28,3.16.89,3.23,3.35,3.23c2.14,0,2.94-.7,3-1.79Z"/><path d="M216.28,117.22c.18,3.34-1.21,5.15-8.89,5.15-6.46,0-9.56-2.12-9.56-7.39s3.32-7.21,9.76-7.21c6.79,0,8.78,2,8.78,5.82a25.33,25.33,0,0,1-.13,2.56c-1.77,0-4.63,0-7.17,0-1.9,0-3.69,0-4.87,0,.2,2.06,1.2,2.72,3.39,2.72,2,0,2.72-.55,2.74-1.63.67,0,1.75.06,3,.06S215.44,117.26,216.28,117.22Zm-12.06-3.37c1.93.05,4.05.05,6.16,0a2.75,2.75,0,0,0,0-.42c0-1.63-.78-2.3-2.81-2.3C205.4,111.13,204.47,111.71,204.22,113.85Z"/><path d="M237.87,104.83c-.07,2.7-.05,5.42-.05,9.69,0,3.18,0,5.35.05,7.43h-6.71c0-.49,0-.93,0-1.48,0-.38,0-.73,0-1.09l-.2,0c-.84,1.57-2.61,2.85-6,2.85-4.4,0-6.77-2.08-6.77-7.1s2.88-7.17,7-7.17c2.92,0,4.91.8,5.95,2.19l.07,0c0-.84,0-1.57,0-2.48s0-1.85,0-2.78Zm-6.58,7.59a7.68,7.68,0,0,0-3.18-.56c-2.3,0-3.36.82-3.36,3.17s1.1,3,3.05,3,3.49-.88,3.49-3Z"/><path d="M253.56,117.5c0,.91.68,1.35,3.27,1.35,2.24,0,2.81-.31,2.81-.93s-.6-1.1-4.31-1.28c-5.73-.35-7.24-1.75-7.24-4.45,0-3.07,2.32-4.4,8.74-4.4s8.83,1.09,8.83,4.27a5.92,5.92,0,0,1-.05.71c-.77-.07-2.1-.11-3.25-.11-.9,0-1.72,0-2.21,0v-.24c0-.82-.66-1.22-3-1.22s-2.77.29-2.77.89.45,1,4.45,1.28c5.73.4,7.1,1.55,7.1,4.43,0,3-2.19,4.51-8.85,4.51-7.14,0-8.94-1.42-8.94-4.36,0-.24,0-.49,0-.75.81.06,1.83.13,3.23.13a20.59,20.59,0,0,0,2.19-.07Z"/><path d="M275.23,108.21c2.74,0,5.4,0,7.14,0,0,1.39-.13,3.12-.11,4.55l-7.1-.11c0,.89,0,1.82,0,2.81,0,1.22.51,1.71,2.61,1.71a15.34,15.34,0,0,0,4.34-.56c.13,1.58.37,3.46.62,5a33.53,33.53,0,0,1-6.44.6c-6,0-7.55-2.21-7.55-5.31,0-1,0-2.61,0-4.29l-1.59,0c0-1.22,0-3.23,0-4.36l1.66,0c0-1,0-2,0-2.66,1.06,0,2.17,0,3.28,0s2.25,0,3.23,0Z"/><path d="M303.85,108.17c-.05,1.94-.07,3.67-.07,6.83,0,3,0,5,.07,7h-6.68c0-1,0-1.81.06-2.79l-.13,0c-1,2.19-3,3.12-6.24,3.12-3.71,0-6.08-1.5-6.08-5.24,0-2,0-3.06,0-4.41,0-1.63,0-3-.09-4.44h6.77c-.06,1.7-.09,4.16-.09,7,0,1.82.69,2.48,2.57,2.48s3.19-.84,3.19-3.12c0-3.78,0-5.13-.05-6.39Z"/><path d="M325.78,104.83c-.06,2.7,0,5.42,0,9.69,0,3.18,0,5.35,0,7.43h-6.7c0-.49,0-.93,0-1.48,0-.38,0-.73,0-1.09l-.2,0c-.84,1.57-2.61,2.85-6,2.85-4.4,0-6.77-2.08-6.77-7.1s2.88-7.17,6.95-7.17c2.92,0,4.91.8,5.95,2.19l.07,0c0-.84,0-1.57,0-2.48s0-1.85,0-2.78Zm-6.57,7.59a7.68,7.68,0,0,0-3.18-.56c-2.3,0-3.37.82-3.37,3.17s1.11,3,3.06,3,3.49-.88,3.49-3Z"/><path d="M332.19,107.26c-3.34,0-3.79-.62-3.79-1.39s.49-1.29,3.79-1.29,3.74.47,3.74,1.29S335.48,107.26,332.19,107.26ZM328.82,122c.09-2.17.09-4.47.09-7.15s0-4.46-.09-6.63h6.66c-.08,2.17-.06,4-.06,6.88,0,3,0,4.78.06,6.9Z"/><path d="M347.52,122.35c-6.51,0-9.81-2.43-9.81-7.55s3.63-7,9.83-7,9.95,1.84,9.95,7S354,122.35,347.52,122.35Zm0-10.51c-2.15,0-3.47.75-3.47,3s1.3,3.16,3.47,3.16,3.47-.92,3.47-3.16S349.71,111.84,347.56,111.84Z"/></svg>