<svg id="Layer_1" data-name="Layer 1" xmlns="http://www.w3.org/2000/svg" viewBox="0 0 465.69 166.46"><path d="M149.76,113.36H120.88l0-.51c.18-6.86.27-16.4.27-28.36,0-7.38-2.54-9.87-10-9.87-5.71,0-12.51,2.2-12.51,12.69,0,15.36.1,20.54.19,25.55v.5H70l0-.51c.27-8.51.36-16.08.36-30,0-11.5-.06-27.85-.36-40.36V42H98.81v.52c-.12,3.67-.17,6.82-.2,9.87,0,1.57,0,3.14-.08,4.77,0,3.06-.07,6-.23,9.56,4.15-8.42,12.35-12.35,25.74-12.35,16.93,0,25.51,7.45,25.51,22.15,0,4.37,0,7.76-.1,10.74,0,2.53-.08,4.84-.08,7.35,0,6.68,0,12.45.36,18.25Zm-27.85-1h26.78c-.33-5.65-.33-11.28-.33-17.78,0-2.52,0-4.83.08-7.36.05-3,.1-6.37.1-10.73,0-14-8.24-21.15-24.51-21.15-13.35,0-21.35,4-25.19,12.53l-.15.34L97.23,68l0-.46c.19-4,.27-7.13.27-10.43,0-1.64,0-3.2.08-4.78,0-2.9.07-5.91.18-9.37H71.07c.29,12.46.35,28.53.35,39.88,0,13.65-.09,21.2-.34,29.51H97.79c-.09-4.86-.18-10.2-.18-25,0-8.83,4.8-13.69,13.51-13.69,8,0,11,2.95,11,10.87C122.17,96.16,122.08,105.53,121.91,112.36Z"/><path d="M195.66,115.09c-27.52,0-39.79-9.52-39.79-30.87,0-20.85,12.52-30.15,40.61-30.15,26,0,36.6,7.07,36.6,24.42a97.77,97.77,0,0,1-.55,10.6l-.05.46H232c-7.27-.18-19.05-.18-29.45-.18-7.52,0-14.64,0-19.45.08.87,7.51,4.43,10.19,13.36,10.19,9.36,0,10.71-3,10.77-6.24v-.52l.53,0c2.63.18,6.94.28,12.15.28,4.7,0,8.82-.1,12.25-.28l.5,0,0,.5c.34,6.53-.86,10.88-3.91,14.09C223.81,112.74,213.59,115.09,195.66,115.09Zm.82-60c-27.76,0-39.61,8.72-39.61,29.15,0,20.66,12,29.87,38.79,29.87,17.63,0,27.63-2.25,32.42-7.31,2.77-2.92,3.91-6.89,3.66-12.85-3.35.16-7.31.25-11.8.25-4.91,0-9-.09-11.71-.25-.33,4.69-3.89,6.7-11.75,6.7-9.56,0-13.6-3.26-14.42-11.64l-.05-.53h.54c4.83-.09,12.21-.09,20-.09,10.19,0,21.7,0,29,.17a94.2,94.2,0,0,0,.5-10C232.08,64.43,226,55.07,196.48,55.07ZM195,80.22c-4.25,0-8.42,0-12.38-.14h-.54l.06-.55c1-8.69,4.6-11.63,14.32-11.63,8.56,0,12.05,2.89,12.05,10a10.52,10.52,0,0,1-.1,1.81l-.07.41H208C203.63,80.17,199.28,80.22,195,80.22Zm-11.8-1.13c7.62.17,16,.17,24.27,0a12.13,12.13,0,0,0,0-1.24c0-6.53-3-9-11.05-9C187.52,68.89,184.22,71.39,183.22,79.09Z"/><path d="M269.4,113.36H240.9l0-.51c.36-10.82.36-23,.36-35.82,0-13.87-.1-23.88-.36-34.54V42H269.4l0,.52c-.27,10.9-.27,20.89-.27,36,0,14.23,0,23.64.27,34.36Zm-27.46-1h26.43c-.26-10.52-.26-19.86-.26-33.87,0-14.88,0-24.79.26-35.52H241.93c.25,10.49.35,20.4.35,34.06C242.28,89.69,242.28,101.66,241.94,112.36Z"/><path d="M307.12,113.36H278.63v-.51C279,102,279,89.89,279,77c0-13.86-.11-23.87-.37-34.54V42h28.49v.52c-.28,10.9-.28,20.89-.28,36,0,14.23,0,23.64.28,34.36Zm-27.46-1h26.43c-.26-10.52-.26-19.86-.26-33.87,0-14.88,0-24.79.26-35.52H279.65c.25,10.5.36,20.41.36,34.06C280,89.69,280,101.66,279.66,112.36Z"/><path d="M354.11,115c-27.44,0-40.78-10.31-40.78-31.51,0-20.07,13-29.42,40.88-29.42,28.26,0,41.42,9.35,41.42,29.42C395.63,104.4,381.66,115,354.11,115Zm.1-59.93c-27.58,0-39.88,8.77-39.88,28.42,0,20.53,13,30.51,39.78,30.51s40.52-10.26,40.52-30.51C394.63,64.1,381.78,55.07,354.21,55.07Zm.09,42.2c-9.95,0-14.78-4.42-14.78-13.51,0-8.84,4.69-13,14.78-13,9.94,0,14.77,4.24,14.77,13C369.07,92.72,364.1,97.27,354.3,97.27Zm0-25.47c-9.53,0-13.78,3.69-13.78,12,0,8.53,4.38,12.51,13.78,12.51s13.77-4.09,13.77-12.51C368.07,75.6,363.7,71.8,354.3,71.8Z"/><path d="M119.29,116.31c0,.9.68,1.35,3.27,1.35,2.24,0,2.81-.31,2.81-.93s-.59-1.11-4.31-1.29c-5.73-.35-7.24-1.74-7.24-4.44,0-3.08,2.33-4.41,8.74-4.41s8.83,1.09,8.83,4.27c0,.23,0,.47,0,.71-.78-.06-2.11-.11-3.26-.11-.9,0-1.72,0-2.21.05v-.25c0-.82-.66-1.21-3-1.21s-2.76.28-2.76.88.44,1,4.44,1.28c5.73.4,7.1,1.55,7.1,4.43,0,3-2.19,4.51-8.85,4.51-7.14,0-8.93-1.41-8.93-4.36,0-.24,0-.48,0-.75.82.07,1.83.13,3.23.13.82,0,1.61,0,2.19-.06Z"/><path d="M140.76,109.38c1.09-1.77,3.12-2.7,6-2.7,4.49,0,6.77,2.28,6.77,7.15s-2.5,7.21-6.79,7.21c-3.41,0-5.14-1.13-6-2.45l-.16,0c0,.66,0,1.33,0,2.12,0,1.09,0,2.13.06,3.25h-6.74c.08-2.69.08-6.92.08-10.37,0-2.88,0-4.83,0-6.64h6.68c0,.44,0,.84,0,1.24s0,.71,0,1.11Zm-.26,6.9a8.12,8.12,0,0,0,3.31.56c2.24,0,3.19-.87,3.19-3.14s-1-3-2.88-3c-2.08,0-3.62.89-3.62,3.1Z"/><path d="M167,112.48c0-1.48-.53-2-2.66-2-2.3,0-2.87.65-2.8,2-.65-.07-1.64-.07-2.7-.07a30.54,30.54,0,0,0-3.15.11c0-4.22,2.33-5.88,8.79-5.88,6.63,0,8.89,1.9,8.89,5.51,0,1.79-.07,3.05-.07,4.75a16.6,16.6,0,0,0,.36,3.87h-5.24c-1.18,0-1.35-.08-1.35-1.32,0-.29,0-.71,0-1.18H167c-.74,1.91-2.79,2.81-5.91,2.81-3.85,0-5.8-1-5.8-3.89s2.28-4,7.41-4a29,29,0,0,1,4.34.22Zm0,2.7a27.51,27.51,0,0,0-3.06-.13c-1.81,0-2.58.39-2.58,1.28s.64,1.24,2.41,1.24S167,116.73,167,115.18Z"/><path d="M188.44,114.82c.86.07,1.81.09,2.87.09s2.19,0,3.21-.09a4,4,0,0,1,0,.6c0,3.76-2.17,5.75-9.39,5.75-6.72,0-9.51-2.27-9.51-7.47s2.94-7.11,9.56-7.11c6.33,0,9.27,1.11,9.27,5.31a3.44,3.44,0,0,1,0,.71c-.81,0-1.9,0-3.16,0s-2.21,0-2.83,0a1.1,1.1,0,0,0,0-.26c-.09-1.33-.78-1.82-3.08-1.82s-3.27.75-3.27,3.17.88,3.23,3.34,3.23c2.14,0,2.94-.71,3-1.8Z"/><path d="M214.64,116c.18,3.34-1.21,5.15-8.89,5.15-6.46,0-9.56-2.12-9.56-7.39s3.32-7.21,9.76-7.21c6.79,0,8.78,2,8.78,5.82a22.87,22.87,0,0,1-.13,2.57c-1.77,0-4.62,0-7.17,0-1.9,0-3.69,0-4.86,0,.19,2.06,1.19,2.73,3.38,2.73,2,0,2.72-.56,2.74-1.64.67,0,1.75.07,3,.07S213.8,116.06,214.64,116Zm-12-3.36c1.92,0,4,0,6.15,0a2.88,2.88,0,0,0,0-.42c0-1.64-.77-2.3-2.81-2.3S202.83,110.51,202.59,112.66Z"/><path d="M236.23,103.63c-.07,2.7,0,5.42,0,9.69,0,3.19,0,5.35,0,7.43h-6.71c0-.48,0-.93,0-1.48,0-.37,0-.73,0-1.08l-.2,0c-.84,1.57-2.61,2.86-6,2.86-4.41,0-6.78-2.08-6.78-7.1s2.88-7.17,6.95-7.17c2.92,0,4.91.79,6,2.19l.07,0c0-.84,0-1.57,0-2.47s0-1.86,0-2.79Zm-6.57,7.59a7.71,7.71,0,0,0-3.19-.55c-2.3,0-3.36.81-3.36,3.16s1.1,3,3,3,3.5-.89,3.5-3Z"/><path d="M251.92,116.31c0,.9.68,1.35,3.27,1.35,2.24,0,2.81-.31,2.81-.93s-.59-1.11-4.31-1.29c-5.73-.35-7.24-1.74-7.24-4.44,0-3.08,2.33-4.41,8.74-4.41s8.83,1.09,8.83,4.27c0,.23,0,.47,0,.71-.78-.06-2.11-.11-3.26-.11-.9,0-1.72,0-2.21.05v-.25c0-.82-.66-1.21-3-1.21s-2.76.28-2.76.88.44,1,4.44,1.28c5.73.4,7.1,1.55,7.1,4.43,0,3-2.19,4.51-8.85,4.51-7.14,0-8.93-1.41-8.93-4.36,0-.24,0-.48,0-.75.82.07,1.84.13,3.23.13.82,0,1.61,0,2.19-.06Z"/><path d="M273.59,107c2.74,0,5.4,0,7.15,0-.05,1.39-.14,3.12-.11,4.56l-7.11-.11c0,.88,0,1.81,0,2.81,0,1.21.51,1.7,2.61,1.7a15.34,15.34,0,0,0,4.34-.55c.13,1.57.38,3.45.62,5a34.33,34.33,0,0,1-6.44.59c-6,0-7.54-2.21-7.54-5.31,0-1,0-2.61,0-4.29l-1.59,0c0-1.22,0-3.23,0-4.36l1.66,0c0-1,0-1.94,0-2.65,1.07,0,2.17,0,3.28,0s2.26,0,3.23,0Z"/><path d="M302.21,107c0,2-.06,3.67-.06,6.84,0,2.94,0,5,.06,6.94h-6.68c0-1,0-1.81.07-2.78l-.14,0c-1,2.19-3,3.12-6.24,3.12-3.71,0-6.08-1.5-6.08-5.24,0-2,0-3,0-4.4,0-1.64,0-3-.08-4.45h6.77c-.07,1.7-.09,4.16-.09,7,0,1.81.68,2.47,2.56,2.47s3.19-.84,3.19-3.12c0-3.78,0-5.13,0-6.39Z"/><path d="M324.15,103.63c-.07,2.7,0,5.42,0,9.69,0,3.19,0,5.35,0,7.43h-6.71c0-.48,0-.93,0-1.48,0-.37,0-.73.05-1.08l-.2,0c-.84,1.57-2.61,2.86-6,2.86-4.4,0-6.77-2.08-6.77-7.1s2.88-7.17,6.95-7.17c2.92,0,4.91.79,5.95,2.19l.07,0c-.05-.84-.05-1.57-.05-2.47s0-1.86,0-2.79Zm-6.58,7.59a7.69,7.69,0,0,0-3.18-.55c-2.3,0-3.36.81-3.36,3.16s1.1,3,3.05,3,3.49-.89,3.49-3Z"/><path d="M330.55,106.06c-3.34,0-3.78-.62-3.78-1.39s.48-1.28,3.78-1.28,3.74.46,3.74,1.28S333.85,106.06,330.55,106.06Zm-3.36,14.69c.09-2.16.09-4.47.09-7.14s0-4.47-.09-6.64h6.66c-.09,2.17-.07,4-.07,6.88,0,3,0,4.78.07,6.9Z"/><path d="M345.88,121.15c-6.51,0-9.8-2.43-9.8-7.54s3.62-7,9.82-7,10,1.84,10,7S352.4,121.15,345.88,121.15Zm0-10.51c-2.14,0-3.47.76-3.47,3s1.3,3.17,3.47,3.17,3.47-.93,3.47-3.17S348.07,110.64,345.92,110.64Z"/></svg>