<svg id="Layer_1" data-name="Layer 1" xmlns="http://www.w3.org/2000/svg" viewBox="0 0 500 500"><defs><style>.cls-1{font-size:28.07px;fill:#e7372e;font-family:HansonBold, Hanson;}</style></defs><text class="cls-1" transform="translate(249.91 68.2) rotate(1.21)">i</text><text class="cls-1" transform="matrix(1, 0.08, -0.08, 1, 259.86, 68.46)">l</text><text class="cls-1" transform="translate(269.64 68.84) rotate(10.21)">u</text><text class="cls-1" transform="translate(295.49 73.61) rotate(18.27)">s</text><text class="cls-1" transform="matrix(0.9, 0.43, -0.43, 0.9, 318.29, 81.23)">t</text><text class="cls-1" transform="translate(338.16 90.72) rotate(32.39)">r</text><text class="cls-1" transform="matrix(0.77, 0.64, -0.64, 0.77, 356.33, 102.12)">a</text><text class="cls-1" transform="matrix(0.67, 0.74, -0.74, 0.67, 375.93, 118.37)">c</text><text class="cls-1" transform="matrix(0.61, 0.79, -0.79, 0.61, 390.13, 134.04)">j</text><text class="cls-1" transform="matrix(0.51, 0.86, -0.86, 0.51, 399.58, 145.96)">e</text><text class="cls-1" transform="translate(412.76 168.79) rotate(65.62)"> </text><text class="cls-1" transform="translate(419.08 182.16) rotate(72.09)">a</text><text class="cls-1" transform="translate(426.73 206.54) rotate(79.34)">n</text><text class="cls-1" transform="translate(430.85 231.61) rotate(85.43)">i</text><text class="cls-1" transform="translate(432.48 241.17) rotate(93.01)">m</text><text class="cls-1" transform="matrix(-0.23, 0.97, -0.97, -0.23, 429.81, 279.38)">a</text><text class="cls-1" transform="matrix(-0.36, 0.93, -0.93, -0.36, 423.96, 304.15)">c</text><text class="cls-1" transform="matrix(-0.44, 0.9, -0.9, -0.44, 416.22, 323.82)">j</text><text class="cls-1" transform="translate(409.71 337.6) rotate(122.69)">e</text><text class="cls-1" transform="translate(395.12 359.58) rotate(129.13)"> </text><text class="cls-1" transform="translate(386.02 371.22) rotate(135.77)">g</text><text class="cls-1" transform="translate(366.17 390.2) rotate(143.72)">r</text><text class="cls-1" transform="matrix(-0.87, 0.49, -0.49, -0.87, 348.96, 402.97)">a</text><text class="cls-1" transform="matrix(-0.93, 0.37, -0.37, -0.93, 326.6, 415.1)">f</text><text class="cls-1" transform="translate(307.86 422.34) rotate(162.81)">i</text><text class="cls-1" transform="matrix(-0.98, 0.2, -0.2, -0.98, 298.62, 425.53)">k</text><text class="cls-1" transform="translate(275.58 430.34) rotate(175.74)">a</text></svg>