<svg xmlns="http://www.w3.org/2000/svg" viewBox="0 0 500 500"><defs><style>.cls-1{font-size:28.07px;fill:#e7372e;font-family:HansonBold, Hanson;}</style></defs><g id="kółko"><text class="cls-1" transform="translate(250.08 431.79) rotate(-178.79)">i</text><text class="cls-1" transform="translate(240.12 431.53) rotate(-175.63)">l</text><text class="cls-1" transform="translate(230.34 431.15) rotate(-169.79)">u</text><text class="cls-1" transform="matrix(-0.95, -0.31, 0.31, -0.95, 204.49, 426.38)">s</text><text class="cls-1" transform="matrix(-0.9, -0.43, 0.43, -0.9, 181.69, 418.75)">t</text><text class="cls-1" transform="translate(161.82 409.27) rotate(-147.61)">r</text><text class="cls-1" transform="matrix(-0.77, -0.64, 0.64, -0.77, 143.65, 397.87)">a</text><text class="cls-1" transform="translate(124.06 381.62) rotate(-132.38)">c</text><text class="cls-1" transform="matrix(-0.61, -0.79, 0.79, -0.61, 109.86, 365.94)">j</text><text class="cls-1" transform="translate(100.41 354.02) rotate(-120.91)">e</text><text class="cls-1" transform="matrix(-0.41, -0.91, 0.91, -0.41, 87.23, 331.2)"> </text><text class="cls-1" transform="translate(80.91 317.83) rotate(-107.91)">a</text><text class="cls-1" transform="translate(73.26 293.44) rotate(-100.66)">n</text><text class="cls-1" transform="translate(69.14 268.38) rotate(-94.57)">i</text><text class="cls-1" transform="translate(67.5 258.82) rotate(-86.99)">m</text><text class="cls-1" transform="translate(70.18 220.6) rotate(-76.81)">a</text><text class="cls-1" transform="translate(76.03 195.83) rotate(-68.71)">c</text><text class="cls-1" transform="translate(83.77 176.16) rotate(-63.84)">j</text><text class="cls-1" transform="matrix(0.54, -0.84, 0.84, 0.54, 90.28, 162.38)">e</text><text class="cls-1" transform="matrix(0.63, -0.78, 0.78, 0.63, 104.85, 140.42)"> </text><text class="cls-1" transform="matrix(0.72, -0.7, 0.7, 0.72, 113.96, 128.77)">g</text><text class="cls-1" transform="translate(133.81 109.78) rotate(-36.28)">r</text><text class="cls-1" transform="matrix(0.87, -0.49, 0.49, 0.87, 151.03, 97.01)">a</text><text class="cls-1" transform="translate(173.39 84.88) rotate(-21.92)">f</text><text class="cls-1" transform="translate(192.12 77.64) rotate(-17.19)">i</text><text class="cls-1" transform="matrix(0.98, -0.2, 0.2, 0.98, 201.37, 74.45)">k</text><text class="cls-1" transform="translate(224.41 69.65) rotate(-4.26)">a</text></g></svg>