<?xml version="1.0" encoding="utf-8"?>
<!-- Generator: Adobe Illustrator 19.0.0, SVG Export Plug-In . SVG Version: 6.00 Build 0)  -->
<svg version="1.1" id="Layer_1" xmlns="http://www.w3.org/2000/svg" xmlns:xlink="http://www.w3.org/1999/xlink" x="0px" y="0px"
	 viewBox="450 -450 1200 1200" style="enable-background:new 450 -450 1200 1200;" xml:space="preserve">
<style type="text/css">
	.st0{fill:#010101;}
</style>
<path class="st0" d="M734.4-285.8c17.2,18.5,15.4,30.7-26.9,70.1c-19.9,18.5-39.1,34.4-49.2,34.4l-10.9-27.4
	c6.6-1.2,27.3-17,40.9-29.8c16-14.9,22.1-19.9,19.9-22.3c-2.2-2.4-9.4,1.2-27.3,17.9c-30,28-48.8,38.2-66,19.7
	c-19.9-21.3-6.7-37.5,25.8-67.8c30.9-28.8,40.9-32.9,52.7-36l9.2,27.4c-10.3,4.2-29.6,18.1-44,31.5c-14.4,13.4-18.9,17.2-16.4,19.8
	c1.8,1.9,6.8,0.1,21.7-13.7C703.8-299,717.1-304.3,734.4-285.8z"/>
<path class="st0" d="M720.4-356.7l34.7-16.8l5.5,11.3c5-9,14.3-20.8,34.1-30.3c25.9-12.5,57.6-22.2,76.8,17.5
	c13.9,28.8-5.8,54.4-34.5,68.2c-18.8,9.1-38.2,11-45.5,8.3l19.3,39.9L776-241.8L720.4-356.7z M833.8-358
	c-7.3-15.2-19.9-12.2-37.6-3.7c-14.1,6.8-22.7,17.3-23.7,24.2l6.8,14.1c14.2,7,39.6-6.1,39.6-6.1S842.5-340.2,833.8-358z"/>
<path class="st0" d="M1037.2-355.6l-37.8,5.6c-0.4-3-0.9-5.9-1.3-8.7c-11.3,8.7-24.6,14.3-38.8,16.3c-25.3,3.7-60.8,7.8-65.2-22.1
	c-3-21.1,25.4-32.9,55.7-37.4c12.5-2.1,25.3-1.9,37.8,0.6c-6.8-13.2-17.2-13.7-38.1-10.6c-31.1,4.5-47.6,13.8-47.7,13.9l-12.5-24.7
	c0.8-0.4,23.2-14,58.1-19.2c18.7-2.8,58.2-6,71.9,15.9C1028.5-411.4,1032.7-386.4,1037.2-355.6L1037.2-355.6z M992.4-379.4
	c-0.1-0.6-0.1-1.1-0.3-1.7c-1.1-0.8-4.4-3.8-32.1,0.3c-18.5,2.7-25.1,5.8-24.4,10.2c0.9,6.1,13.3,5.1,24.5,3.5
	C977.4-369.7,991.2-376.6,992.4-379.4z"/>
<path class="st0" d="M1193.7-394.5h-39.2c0,0-0.9-12.9-28.5-17.2c-27-4.1-31.5,6.1-32.7,14.2c-1.2,8.2-0.3,19.6,27,23.7
	c28.5,4.3,32.5-7.4,32.5-7.4l37.2,11c-2.7,17.9-21.8,33.6-75.8,25.4c-52-7.9-63.9-31.2-59.8-58.5c4.4-29.2,26.3-45.4,73.6-38.2
	C1180.9-433.4,1196.3-411.5,1193.7-394.5z"/>
<path class="st0" d="M1335-306.8l-88.6-43c-1.5,5.2,3.9,13.1,22.6,22.2c15.5,7.5,31.8,13,48.7,16.3l3.2,31.4c0,0-17.3,1.1-63.3-21.2
	c-51.8-25.2-55.2-48.8-42.3-75.2c13.3-27.3,41.8-34.4,84.4-13.6C1338.9-371,1357.5-345.8,1335-306.8z M1253.7-365.1l53.4,26
	c2.8-5.7,0-14.2-20.3-24C1263.8-374.4,1255.8-369.3,1253.7-365.1L1253.7-365.1z"/>
<path class="st0" d="M1512.4-250.8l-79.7,84.4l-28-26.5l7.1-7.6c-10.3-1.5-23.8-7.1-40.1-22.5c-21.1-19.9-41.6-46.4-11-78.8
	c22.1-23.4,53.4-14.1,76.8,8c11.6,10.6,20.5,23.8,26.1,38.5l20.8-22L1512.4-250.8z M1441.4-231.7c6.1-14-13.4-32.3-18.7-37.4
	c-5.3-5-18.7-18.6-32.8-3.6c-11.9,12.7-1.9,25.4,7.3,34c14.5,13.7,23.3,19.5,35.3,16.5L1441.4-231.7z"/>
<path class="st0" d="M1555.9,33.2c-23.9,8.2-34.3,1.5-53.1-53c-8.9-25.8-15.6-49.7-11.5-58.9l29.5,1.1c-1.6,6.5,4.5,31.8,10.6,49.5
	c7.1,20.7,9.2,28.3,12.3,27.2c3.1-1.1,2.7-9.1-5.3-32.3c-13.4-38.8-15.2-60.1,8.8-68.3c27.5-9.5,37,9.1,51.5,51.1
	c13.8,40,13.5,50.7,11.5,62.8l-28.8-2.7c0.3-11.1-4.5-34.4-10.9-53c-6.4-18.7-8.1-24.2-11.5-23.1c-2.4,0.9-2.9,6.2,3.8,25.4
	C1580.4,10.6,1579.9,24.9,1555.9,33.2z"/>
<path class="st0" d="M1572.9,149.3l-28.8,15.7c0,0-9.4-21.8-12.1-60.2c-2.1-30.3,3.6-36.4,46.3-39.4l19.2-1.3l-1.3-19.1l28.8-2
	l1.3,19.1l20-1.4l2.7,38.5l-20,1.4l3.1,46.8l-28.8,2l-3.2-46.7l-19.2,1.3c0,0-17.1,0-16.1,14.4
	C1565.9,133.1,1572.9,149.3,1572.9,149.3z"/>
<path class="st0" d="M1604.6,326.7l-94.3-18.9l7.5-37.4l14.4,2.9c-6.6-9.8-10.3-22.7-6.1-44.3c5.6-27.8,13.6-43.7,33.1-48.5
	c14-3.5,30.5-1.4,65.8,5.7l7.4,1.5l-7.6,37.6l-31.1-6.2c-14-2.8-31.7-6.7-37.3,21.3c-3.7,18.4,2.8,31.4,7.4,39.3l48.2,9.7
	L1604.6,326.7z"/>
<path class="st0" d="M1535.6,503.5l-101-57.1l19-33.6l9,5.1c-1.1-10.3,1.2-24.8,12.3-44.3c14.3-25.2,35-51.5,73.8-29.6
	c28.1,15.9,26.5,48.5,10.6,76.5c-7.5,13.8-18.2,25.6-31.1,34.5l26.4,14.9L1535.6,503.5z M1500,439.2c15,2.5,28.2-20.8,31.8-27.2
	c3.6-6.4,13.5-22.6-4.4-32.7c-15.2-8.6-25.1,4.2-31.3,15.2c-9.8,17.4-13.4,27.3-7.6,38.2L1500,439.2z"/>
<path class="st0" d="M1466.7,548.4l-71.6-64l25.8-28.8l71.6,64L1466.7,548.4z M1486.2,565.9l-13.9-12.5l25.8-28.8l14,12.5
	L1486.2,565.9z"/>
<path class="st0" d="M1301.5,620.3c-21.9-30.1-6.3-55.8,29.1-81.5c36.3-26.4,63.8-31.7,85.5-1.8c23.4,32.2,2.8,58.3-27.3,80.2
	C1358.2,639.3,1325.6,653.4,1301.5,620.3z M1334.7,596.1c10.6,14.7,27.6,6.7,37.3-0.4c9.8-7.1,20.9-20.8,11.3-34
	c-8.9-12.3-20.7-12.7-37.1-0.8C1331.4,571.8,1325,582.7,1334.7,596.1L1334.7,596.1z"/>
<path class="st0" d="M1050.6,732.5l-11.2-80.4c-5.3-37.6,13-58.1,64.2-65.3c51.2-7.2,71.7,0.4,71.7,0.4l-8.4,31.2
	c0,0-14.7-9.4-51.2-4.3c-44.6,6.2-38.3,31.4-38.3,31.4l0.5,4c2.5-9.9,21.3-20.1,42.6-23.1c31.8-4.5,62.1,1,66.8,34.9
	c6.5,46.6-25.5,56.6-54.2,60.6c-22.2,3.1-36.5-0.4-45.8-5.5l1.5,10.9L1050.6,732.5z M1081.8,677.2l1,7.3
	c1.5,10.5,21.7,11.9,41.4,9.1c12.4-1.7,27.3-6.6,25-22.7c-2.7-19-25.6-16-31-15.3C1112.8,656.3,1083.5,660.4,1081.8,677.2
	L1081.8,677.2z"/>
<path class="st0" d="M893.6,703.4l18.8-26.8c8.6,5.8,18.1,10,28.2,12.5c21,4.5,31.6-3.9,37.7-8.1l7.7-49.9l38.1,5.9l-14.8,95
	l-2.6-0.4l0,0l-35.5-5.5l0,0l0,0l2-13.2c-6.7,6.1-19.4,10.4-42.3,6.9C904.8,715.7,893.6,703.4,893.6,703.4z"/>
<path class="st0" d="M777.6,562.5l34.9,15.7c-1.3,2.8-2.4,5.5-3.6,8c14.2-1.3,28.5,1.2,41.5,7.1c23.3,10.5,55.5,26.2,43,53.8
	c-8.7,19.4-39.1,14.1-67.1,1.5c-11.7-5-22.4-12-31.6-20.8c-1.3,14.8,7.1,20.8,26.4,29.5c28.6,12.9,47.5,14,47.7,14l-2.8,27.5
	c-0.9,0-27.1-0.7-59.3-15.2c-17.2-7.7-52.3-26.4-52-52.1C754.9,614.2,764.9,590.9,777.6,562.5L777.6,562.5z M802.6,606.6
	c-0.3,0.5-0.5,1-0.7,1.5c0.5,1.3,1.7,5.6,27.3,17.1c17.1,7.7,24.2,8.6,26.1,4.5c2.5-5.5-8.5-11.5-18.8-16.2
	C820.4,606.6,805.1,605,802.6,606.6z"/>
<path class="st0" d="M680.9,579.5l-36.1-29.3l16.9-20.9l36.9,29.9l30.3-37.4l30,24.2l-30.3,37.4l11,8.9l-16.9,20.8l-11.6-9.3
	c-20.1,24.8-35.8,24.4-56.7,7.5c-24.5-19.9-33.6-31.6-33.6-31.6l18.4-22.7c0,0,5.2,9.2,18.8,20.2C668,585.3,672.8,589.5,680.9,579.5
	z"/>
<path class="st0" d="M564.5,529.6l14.1-12.3l25.3,29.1l-14.1,12.3L564.5,529.6z M584.3,512.5l72.5-63l25.3,29.1l-72.5,63
	L584.3,512.5z"/>
<path class="st0" d="M524.3,348.3l23.9,31c0,0-9.7,8.6,3.8,33c13.2,23.9,24.1,21.2,31.3,17.3c7.2-4,15.7-11.7,2.4-35.9
	c-14-25.2-25.7-21.2-25.7-21.2l-14-36.2c15.8-8.7,39.9-3.2,66.3,44.5c25.5,46.1,14.3,69.7-9.9,83.1c-25.8,14.3-52,6.9-75.2-35
	C501.3,382.1,509.3,356.5,524.3,348.3z"/>
<path class="st0" d="M453.4,208.3l29.9-6.7l0.3,1.2l48,55.8l-14.4-64.5l30-6.7l27.3,122.2l0,0l-30.2,6.7l-0.3-1.4l-48.8-59.5
	l15.2,68.5l-29.9,6.7L453.4,208.3z"/>
<path class="st0" d="M546.9,41.8l7.6,0.5l-2.6,38.5l-31.6-2.1c-14.2-0.9-35.5-3.3-37.2,23.1c-1,15.5,3.8,23,9.9,29.6l55.4,3.7
	l-2.6,38.8l-95.8-6.4l2.6-38.8l13.2,0.9c-6.7-11.1-12.7-20.7-11.3-42.5c1.2-18,4.8-37.5,23.4-44.1C491.2,38.1,511,39.4,546.9,41.8z"
	/>
<path class="st0" d="M568.8-111.3c-7,18.6-3.8,9.9-34.9,92.2c5.3,1,12.7-5,20.1-24.5c6.1-16.1,10.1-32.8,11.9-49.9l31-6.1
	c0,0,2.7,17.1-15.5,65c-20.4,53.9-43.7,59.3-71.1,48.9c-28.4-10.8-38-38.6-21.2-82.9C504.5-109.5,528-130.2,568.8-111.3z
	 M518.1-25.2l21.1-55.5c-6-2.3-14.1,1.2-22.1,22.4C508-34.3,513.7-26.8,518.1-25.2z"/>
</svg>
