<svg id="Layer_1" data-name="Layer 1" xmlns="http://www.w3.org/2000/svg" viewBox="0 0 1200 1200"><defs><style>.cls-1{fill:#010101;}</style></defs><path class="cls-1" d="M742.49,418.71a5.25,5.25,0,0,0-5.66.89l-88.34,79.59,0,0-55.5,50H513a5.25,5.25,0,0,0-5.26,5.26V626l-91.68,82.59a5.23,5.23,0,0,0,2.3,9l.2.06a3.32,3.32,0,0,0,.44.06l.21,0,.41,0H740.35l.3,0h.25c.14,0,.28,0,.42-.06l.06,0,.15,0,.34-.09.18-.06.27-.09.07,0h0l.21-.09.07,0h0a.09.09,0,0,0,0,0l.15-.07.06,0,.26-.17.09,0,.06,0a1.71,1.71,0,0,0,.26-.21,3.73,3.73,0,0,0,.3-.26l.14-.12.1-.11a5.32,5.32,0,0,0,.67-.89h0v0l.15-.24s0,0,0,0a.5.5,0,0,0,0-.13,1.77,1.77,0,0,0,.15-.31l0-.11,0-.09v0a4.61,4.61,0,0,0,.21-.75h0v-.1a2,2,0,0,0,.06-.42h0c0-.1,0-.2,0-.31V423.51A5.25,5.25,0,0,0,742.49,418.71Zm-227,167,32.24-28.85h19L515.46,603Zm219.63,115-44.68-40.25a5.26,5.26,0,0,0-7,0l-49.94,45-49.94-45a5.25,5.25,0,0,0-7,0l-49.94,45-45.62-41.1L525.66,624l39.6-35.68,25,22.53L614,632.21a5.22,5.22,0,0,0,3.51,1.35h64.14a5.26,5.26,0,0,0,5.26-5.25V554.49a5.26,5.26,0,0,0-5.26-5.26h-73L654,508.39h81.11ZM594.16,604l52.77-47.21h19l-62.11,55.95Z"/></svg>