<?xml version="1.0" encoding="utf-8"?>
<!-- Generator: Adobe Illustrator 19.0.0, SVG Export Plug-In . SVG Version: 6.00 Build 0)  -->
<svg version="1.1" id="Layer_1" xmlns="http://www.w3.org/2000/svg" xmlns:xlink="http://www.w3.org/1999/xlink" x="0px" y="0px"
	 viewBox="450 -450 1200 1200" style="enable-background:new 450 -450 1200 1200;" xml:space="preserve">
<style type="text/css">
	.st0{fill:#010101;}
</style>
<path class="st0" d="M1266.6-118.4c-2.8-1.3-6.1-0.7-8.4,1.3L1127.3,0.9l0,0L1045.1,75H926.6c-4.3,0-7.8,3.5-7.8,7.8c0,0,0,0,0,0
	v106L782.9,311.2c-3.2,2.8-3.5,7.7-0.6,10.9c1.1,1.2,2.5,2,4,2.4l0.3,0.1c0.2,0,0.4,0.1,0.7,0.1h0.3h0.6h475.3h0.4h0.4
	c0.2,0,0.4,0,0.6-0.1h0.1h0.2l0.5-0.1l0.3-0.1l0.4-0.1h0.1l0,0l0.3-0.1h0.1l0,0l0,0l0.2-0.1h0.1l0.4-0.3h0.1h0.1
	c0.1-0.1,0.3-0.2,0.4-0.3c0.2-0.1,0.3-0.2,0.4-0.4l0.2-0.2l0.1-0.2c0.4-0.4,0.7-0.8,1-1.3l0,0l0,0l0.2-0.4l0,0c0-0.1,0-0.1,0-0.2
	c0.1-0.1,0.2-0.3,0.2-0.5v-0.2v-0.1l0,0c0.1-0.4,0.2-0.7,0.3-1.1l0,0v-0.1c0.1-0.2,0.1-0.4,0.1-0.6l0,0c0-0.1,0-0.3,0-0.5v-429
	C1270.9-114.2,1269.3-117,1266.6-118.4z M930.2,129.1L978,86.4h28.2l-76,68.4L930.2,129.1z M1255.7,299.5l-66.2-59.6
	c-3-2.6-7.4-2.6-10.4,0l-74,66.7l-74-66.7c-3-2.6-7.4-2.6-10.4,0l-74,66.7l-67.6-60.9l66.2-59.8L1004,133l37,33.4l35.2,31.7
	c1.4,1.3,3.3,2,5.2,2h95c4.3,0,7.8-3.5,7.8-7.8V82.8c0-4.3-3.5-7.8-7.8-7.8l0,0h-108.2l67.2-60.5h120.2L1255.7,299.5z M1046.8,156.2
	l78.2-70h28.2l-92,82.9L1046.8,156.2z"/>
</svg>
