<svg id="Layer_1" data-name="Layer 1" xmlns="http://www.w3.org/2000/svg" viewBox="0 0 1200 1200"><defs><style>.cls-1{fill:#010101;}</style></defs><path class="cls-1" d="M399.41,318.19c11.35,12.19,10.13,20.27-17.75,46.24-13.14,12.22-25.83,22.7-32.46,22.71L342,369.06c4.38-.76,18-11.23,27-19.65,10.56-9.83,14.57-13.14,13.1-14.72s-6.17.81-18,11.84c-19.81,18.45-32.18,25.22-43.57,13-13.1-14.06-4.43-24.77,17-44.74,20.41-19,27-21.73,34.78-23.74l6.09,18.11c-6.77,2.77-19.53,11.91-29,20.76S336.93,341.27,338.57,343c1.21,1.23,4.48.09,14.33-9.07C379.19,309.47,388,306,399.41,318.19Z"/><path class="cls-1" d="M390.16,271.4l22.91-11.07,3.6,7.45c3.31-5.92,9.42-13.71,22.47-20,17.06-8.24,38-14.63,50.67,11.55,9.16,19-3.85,35.9-22.78,45-12.39,6-25.23,7.27-30,5.49l12.72,26.33-22.92,11.07Zm74.84-.88c-4.82-10-13.1-8.08-24.81-2.43-9.28,4.49-15,11.4-15.64,16l4.48,9.28c9.4,4.65,26.1-4,26.1-4S470.7,282.32,465,270.52Z"/><path class="cls-1" d="M599.19,272.1l-24.93,3.67c-.29-2-.58-3.9-.87-5.73a54.25,54.25,0,0,1-25.57,10.77c-16.69,2.46-40.13,5.17-43.05-14.61-2-13.9,16.74-21.72,36.77-24.67a69.5,69.5,0,0,1,24.93.37c-4.51-8.69-11.36-9.05-25.16-7-20.5,3-31.38,9.11-31.49,9.17l-8.22-16.27c.53-.29,15.32-9.27,38.33-12.66,12.33-1.82,38.43-3.94,47.44,10.47,6.06,9.7,8.82,26.22,11.81,46.51Zm-29.55-15.66a9.89,9.89,0,0,0-.17-1.13c-.73-.52-2.93-2.52-21.2.18-12.21,1.8-16.56,3.84-16.13,6.7.58,4,8.79,3.39,16.17,2.3C559.73,262.81,568.82,258.28,569.64,256.44Z"/><path class="cls-1" d="M702.44,246.45l-25.84,0s-.57-8.54-18.79-11.32c-17.82-2.71-20.79,4-21.6,9.39S636,257.42,654,260.17c18.82,2.86,21.44-4.86,21.44-4.86L700,262.56c-1.8,11.79-14.39,22.15-50,16.74-34.33-5.23-42.18-20.56-39.43-38.6,2.93-19.27,17.34-29.95,48.56-25.19C694,220.82,704.15,235.24,702.44,246.45Z"/><path class="cls-1" d="M795.66,304.32l-58.49-28.4c-1,3.45,2.56,8.65,14.93,14.65a131.89,131.89,0,0,0,32.11,10.76l2.13,20.72s-11.4.75-41.79-14c-34.2-16.61-36.39-32.2-27.92-49.65,8.76-18,27.59-22.68,55.7-9C798.25,262,810.53,278.6,795.66,304.32Zm-53.61-38.46L777.3,283c1.84-3.78,0-9.34-13.42-15.86C748.68,259.73,743.41,263.07,742.05,265.86Z"/><path class="cls-1" d="M912.73,341.29,860.14,397l-18.5-17.47,4.69-5c-6.79-1-15.68-4.7-26.44-14.87-13.91-13.13-27.46-30.6-7.28-52,14.61-15.47,35.26-9.3,50.68,5.26a66.81,66.81,0,0,1,17.2,25.4l13.74-14.54Zm-46.87,12.57c4-9.23-8.87-21.34-12.37-24.65s-12.31-12.26-21.66-2.36c-7.88,8.35-1.25,16.76,4.79,22.46,9.59,9.06,15.38,12.87,23.28,10.86Z"/><path class="cls-1" d="M941.45,528.66c-15.75,5.43-22.64,1-35.05-35-5.85-17-10.28-32.81-7.59-38.89l19.45.75c-1.08,4.3,3,21,7,32.69,4.7,13.64,6.1,18.65,8.14,17.95s1.76-6-3.51-21.28c-8.83-25.59-10-39.64,5.8-45.09,18.17-6.26,24.44,6,34,33.7,9.09,26.36,8.92,33.48,7.59,41.41l-19-1.77c.21-7.32-3-22.68-7.2-35s-5.33-16-7.6-15.21c-1.61.61-1.91,4.06,2.48,16.78C957.62,513.72,957.25,523.21,941.45,528.66Z"/><path class="cls-1" d="M952.61,605.28l-19,10.37s-6.23-14.37-8-39.73c-1.38-20,2.35-24,30.58-26l12.68-.88-.87-12.6,19-1.31.87,12.6,13.21-.91,1.75,25.39-13.21.91L991.69,604l-19,1.31-2.13-30.82-12.67.88s-11.25,0-10.59,9.5C948,594.57,952.61,605.28,952.61,605.28Z"/><path class="cls-1" d="M973.55,722.29l-62.22-12.46,4.94-24.66,9.51,1.91c-4.33-6.47-6.82-15-4-29.23,3.68-18.35,9-28.81,21.82-32,9.24-2.28,20.1-.92,43.4,3.76l4.89,1-5,24.78-20.5-4.11c-9.21-1.85-20.93-4.41-24.63,14.05-2.43,12.12,1.82,20.72,4.89,25.93l31.78,6.37Z"/><path class="cls-1" d="M928,839l-66.67-37.7,12.52-22.16,5.95,3.37c-.71-6.82.8-16.35,8.09-29.24,9.41-16.65,23.12-34,48.71-19.53,18.52,10.48,17.49,32,7,50.48A66.58,66.58,0,0,1,923.09,807l17.42,9.85Zm-23.45-42.49c9.92,1.63,18.6-13.72,21-17.92s8.94-14.89-2.9-21.59c-10-5.66-16.57,2.8-20.66,10-6.49,11.49-8.81,18-5,25.2Z"/><path class="cls-1" d="M882.57,868.62l-47.23-42.25,17-19,47.24,42.25Zm12.89,11.53-9.2-8.23,17-19,9.21,8.24Z"/><path class="cls-1" d="M773.54,916c-14.44-19.88-4.17-36.8,19.2-53.79,23.94-17.4,42.09-20.9,56.43-1.17,15.45,21.26,1.87,38.47-18,52.93C811,928.59,789.46,937.89,773.54,916Zm21.92-15.93c7,9.69,18.18,4.43,24.64-.27s13.78-13.71,7.45-22.41c-5.88-8.1-13.66-8.36-24.45-.52C793.28,884,789.07,891.25,795.46,900.06Z"/><path class="cls-1" d="M608,990.07,600.59,937c-3.47-24.82,8.58-38.36,42.37-43.08s47.31.29,47.31.29l-5.53,20.6s-9.71-6.19-33.81-2.82c-29.4,4.11-25.24,20.7-25.24,20.7l.36,2.64c1.62-6.55,14.08-13.27,28.1-15.23,21-2.94,41,.68,44.07,23,4.3,30.77-16.84,37.35-35.78,40-14.67,2.05-24.11-.24-30.22-3.63l1,7.16Zm20.59-36.52.68,4.82c1,6.92,14.31,7.85,27.31,6,8.17-1.14,18-4.37,16.5-15-1.76-12.55-16.9-10.57-20.46-10.08s-22.87,3.18-24,14.2Z"/><path class="cls-1" d="M504.46,970.88l12.38-17.7a58.54,58.54,0,0,0,18.59,8.25c13.83,3,20.86-2.56,24.87-5.37l5.11-32.93L590.56,927l-9.74,62.67-1.74-.27v0l-23.4-3.63v0h0l1.35-8.7c-4.43,4-12.83,6.88-27.93,4.53C511.8,979,504.46,970.88,504.46,970.88Z"/><path class="cls-1" d="M427.91,877.9l23,10.34c-.83,1.85-1.61,3.6-2.36,5.29a54.3,54.3,0,0,1,27.35,4.71c15.39,6.92,36.6,17.27,28.4,35.51-5.77,12.81-25.81,9.28-44.28,1A69.48,69.48,0,0,1,439.2,921c-.89,9.75,4.7,13.75,17.42,19.48,18.89,8.5,31.34,9.23,31.47,9.24l-1.84,18.14c-.61,0-17.91-.45-39.12-10-11.37-5.11-34.5-17.4-34.33-34.39.12-11.44,6.69-26.84,15.11-45.55ZM444.37,907a8.51,8.51,0,0,0-.47,1c.33.83,1.11,3.69,18,11.27,11.26,5.07,16,5.68,17.21,3,1.65-3.66-5.58-7.6-12.39-10.66C456.14,907,446.05,905.91,444.37,907Z"/><path class="cls-1" d="M364.1,889.08l-23.82-19.31L351.41,856l24.34,19.73,20-24.7,19.77,16-20,24.7,7.27,5.9-11.13,13.74L384,905.24c-13.24,16.34-23.63,16.08-37.39,4.92-16.18-13.11-22.19-20.86-22.19-20.86l12.17-15s3.45,6.1,12.41,13.36C355.57,892.93,358.74,895.71,364.1,889.08Z"/><path class="cls-1" d="M287.27,856.22l9.32-8.1,16.69,19.21-9.32,8.1Zm13.06-11.34,47.83-41.56,16.69,19.21L317,864.09Z"/><path class="cls-1" d="M260.77,736.54,276.52,757s-6.42,5.67,2.49,21.79c8.73,15.78,15.89,14,20.62,11.39s10.38-7.74,1.58-23.67c-9.22-16.66-16.94-14-16.94-14L275,728.65c10.44-5.77,26.34-2.12,43.75,29.36,16.8,30.39,9.45,46-6.52,54.8-17.05,9.43-34.31,4.53-49.59-23.1C245.6,758.85,250.85,742,260.77,736.54Z"/><path class="cls-1" d="M214,644.19l19.76-4.4.17.79,31.66,36.8-9.48-42.57,19.8-4.41,18,80.62h0L274,715.45l-.21-.94-32.2-39.25,10.06,45.17-19.75,4.4Z"/><path class="cls-1" d="M275.69,534.36l5,.33L279,560.08l-20.87-1.39c-9.37-.62-23.41-2.18-24.57,15.25-.68,10.25,2.52,15.18,6.51,19.51l36.54,2.44-1.7,25.63-63.23-4.21,1.7-25.63,8.71.58c-4.45-7.32-8.39-13.64-7.43-28.07.79-11.85,3.17-24.72,15.44-29.13C238.93,531.89,252,532.77,275.69,534.36Z"/><path class="cls-1" d="M290.16,433.32c-4.64,12.25-2.48,6.56-23.05,60.81,3.52.65,8.38-3.33,13.26-16.19A131.5,131.5,0,0,0,288.2,445l20.45-4s1.77,11.29-10.2,42.88C285,519.45,269.64,523,251.51,516.15c-18.76-7.11-25.07-25.45-14-54.67C247.73,434.54,263.21,420.82,290.16,433.32Zm-33.51,56.84,13.89-36.63c-3.93-1.49-9.3.81-14.6,14.78C250,484.11,253.75,489.07,256.65,490.16Z"/></svg>