<svg id="Layer_1" data-name="Layer 1" xmlns="http://www.w3.org/2000/svg" viewBox="0 0 813.19 813.19"><defs><style>.cls-1{fill:#010101;}</style></defs><path class="cls-1" d="M547.12,225.3a5.27,5.27,0,0,0-5.66.89l-88.34,79.6-.05,0-55.5,50H317.63a5.25,5.25,0,0,0-5.26,5.25v71.5l-91.68,82.59a5.24,5.24,0,0,0,2.3,9l.2.05.45.07.21,0H545l.3,0h.25l.42-.06H546l.15,0,.33-.09.18-.06L547,524l.07,0h0l.21-.09.07,0h0l0,0,.15-.08.06,0,.26-.16.09-.06.06,0,.26-.21.3-.27a.79.79,0,0,0,.15-.12l.09-.1a5,5,0,0,0,.67-.9h0v0a2.52,2.52,0,0,0,.15-.24v0a.5.5,0,0,0,.05-.13,1.68,1.68,0,0,0,.15-.3l0-.12,0-.09v0a4.79,4.79,0,0,0,.21-.74h0s0-.07,0-.1a2,2,0,0,0,.05-.42h0c0-.09,0-.2,0-.3v0c0-.06,0-.1,0-.15v-289A5.27,5.27,0,0,0,547.12,225.3Zm-227,167,32.24-28.85h19l-51.21,46.13Zm219.63,115L495,467a5.24,5.24,0,0,0-7,0l-49.94,45-49.94-45a5.23,5.23,0,0,0-7,0l-49.94,45-45.62-41.09,44.75-40.32,39.6-35.68,25,22.53,23.71,21.36a5.2,5.2,0,0,0,3.51,1.36h64.14a5.26,5.26,0,0,0,5.26-5.26V361.08a5.26,5.26,0,0,0-5.26-5.25h-73L458.61,315h81.11ZM398.8,410.62l52.76-47.21h19l-62.11,55.95Z"/></svg>