<?xml version="1.0" encoding="utf-8"?>
<!-- Generator: Adobe Illustrator 19.0.0, SVG Export Plug-In . SVG Version: 6.00 Build 0)  -->
<svg version="1.1" id="Layer_1" xmlns="http://www.w3.org/2000/svg" xmlns:xlink="http://www.w3.org/1999/xlink" x="0px" y="0px"
	 viewBox="450 -450 1200 1200" style="enable-background:new 450 -450 1200 1200;" xml:space="preserve">
<style type="text/css">
	.st0{fill:#010101;}
</style>
<path class="st0" d="M2295.7-28.3c-2.8-1.3-6.1-0.7-8.4,1.3L2156.4,91l0,0l-82.2,74.1h-118.5c-4.3,0-7.8,3.5-7.8,7.8l0,0v106
	L1812,401.3c-3.2,2.8-3.5,7.7-0.6,10.9c1.1,1.2,2.5,2,4,2.4l0.3,0.1c0.2,0,0.4,0.1,0.7,0.1h0.3h0.6h475.3h0.4h0.4
	c0.2,0,0.4,0,0.6-0.1h0.1h0.2l0.5-0.1l0.3-0.1l0.4-0.1h0.1l0,0l0.3-0.1h0.1l0,0l0,0l0.2-0.1h0.1l0.4-0.3h0.1h0.1
	c0.1-0.1,0.3-0.2,0.4-0.3c0.2-0.1,0.3-0.2,0.4-0.4l0.2-0.2l0.1-0.2c0.4-0.4,0.7-0.8,1-1.3l0,0l0,0l0.2-0.4l0,0c0-0.1,0-0.1,0-0.2
	c0.1-0.1,0.2-0.3,0.2-0.5v-0.2v-0.1l0,0c0.1-0.4,0.2-0.7,0.3-1.1l0,0v-0.1c0.1-0.2,0.1-0.4,0.1-0.6l0,0c0-0.1,0-0.3,0-0.5v-429
	C2300-24.1,2298.4-26.9,2295.7-28.3z M1959.3,219.2l47.8-42.7h28.2l-76,68.4V219.2z M2284.8,389.6l-66.2-59.6c-3-2.6-7.4-2.6-10.4,0
	l-74,66.7l-74-66.7c-3-2.6-7.4-2.6-10.4,0l-74,66.7l-67.6-60.9l66.2-59.8l58.7-52.9l37,33.4l35.2,31.7c1.4,1.3,3.3,2,5.2,2h95
	c4.3,0,7.8-3.5,7.8-7.8V172.9c0-4.3-3.5-7.8-7.8-7.8l0,0h-108.2l67.2-60.5h120.2L2284.8,389.6z M2075.9,246.3l78.2-70h28.2l-92,82.9
	L2075.9,246.3z"/>
<path class="st0" d="M1254.3-121.1c-2.9-1.3-6.2-0.8-8.6,1.3L1111.8,0.9l0,0l-84.1,75.8H906.4c-4.4,0-8,3.5-8,7.9c0,0,0,0,0,0v108.5
	l-139,125.2c-3.3,2.9-3.6,7.9-0.6,11.2c1.1,1.2,2.5,2.1,4.1,2.4l0.3,0.1c0.2,0,0.4,0.1,0.7,0.1h0.3h0.6h486.3h0.5h0.4
	c0.2,0,0.4,0,0.6-0.1h0.1h0.2l0.5-0.1l0.3-0.1l0.4-0.1h0.1l0,0l0.3-0.1h0.1l0,0l0,0l0.2-0.1h0.1l0.4-0.3h0.1h0.1
	c0.1-0.1,0.3-0.2,0.4-0.3c0.2-0.1,0.3-0.3,0.5-0.4l0.2-0.2l0.2-0.2c0.4-0.4,0.7-0.9,1-1.3l0,0l0,0l0.2-0.4l0,0c0-0.1,0-0.1,0-0.2
	c0.1-0.1,0.2-0.3,0.2-0.5v-0.2v-0.1l0,0c0.1-0.4,0.2-0.7,0.3-1.1l0,0v-0.2c0.1-0.2,0.1-0.4,0.1-0.6l0,0c0-0.2,0-0.3,0-0.5v-438.9
	C1258.7-116.9,1257-119.7,1254.3-121.1z M910.2,132.1L959,88.3h28.8l-77.7,70L910.2,132.1z M1243.1,306.4l-67.7-61
	c-3-2.7-7.6-2.7-10.6,0l-75.7,68.2l-75.7-68.2c-3-2.7-7.6-2.7-10.6,0L927,313.6l-69.2-62.3l67.7-61.2l60-54.1l37.9,34.2l36,32.4
	c1.5,1.3,3.4,2,5.3,2h97.2c4.4,0,8-3.6,8-8V84.7c0-4.4-3.6-8-8-8l0,0h-110.7l68.8-61.9h123L1243.1,306.4z M1029.4,159.8l80-71.6
	h28.8l-94.2,84.8L1029.4,159.8z"/>
</svg>
