<svg id="Layer_1" data-name="Layer 1" xmlns="http://www.w3.org/2000/svg" viewBox="0 0 60 60"><defs><style>.cls-1{fill:#ff3e5a;}</style></defs><path class="cls-1" d="M56.6,22.39a54.58,54.58,0,0,1-6,11,98.08,98.08,0,0,1-11.1,13.9,28,28,0,0,1-8.11,6.15,15.15,15.15,0,0,1-3.28,1c-2,.42-3.77-.26-5.36-2.11a17.16,17.16,0,0,1-3.3-5.93c-.68-2.07-1.28-4.25-1.83-6.34L15.82,33.6c-.81-3-1.65-6-2.53-9a18.23,18.23,0,0,0-1.3-3l-.33-.66a6.36,6.36,0,0,0-1.08-1.5,3.26,3.26,0,0,0-2.29-1.19,3.29,3.29,0,0,0-1.81.64l-.66.42c-.35.21-.68.41-1,.63l-1.06.73L1.92,18.33l.64-.57c.77-.68,1.57-1.39,2.34-2.09l1.34-1.23a68.83,68.83,0,0,1,7.23-6.06,16.52,16.52,0,0,1,3.35-1.9A5.26,5.26,0,0,1,23,8.25a13,13,0,0,1,2.27,5.92c.33,1.83.64,3.66.95,5.49.46,2.8.94,5.59,1.45,8.39a29.48,29.48,0,0,0,2.11,7,11.48,11.48,0,0,0,1.24,2,2.46,2.46,0,0,0,1.65,1,2.2,2.2,0,0,0,1.7-.6A16,16,0,0,0,37,34.66a39.23,39.23,0,0,0,5.2-9,9.89,9.89,0,0,0,.86-5,4.16,4.16,0,0,0-4.45-4,9.68,9.68,0,0,0-3.26.41,21.28,21.28,0,0,1,3.9-7A12.88,12.88,0,0,1,49,5.45a14.88,14.88,0,0,1,3.46.24c2.76.57,4.45,2.33,5.16,5.42A18.63,18.63,0,0,1,56.6,22.39Z"/></svg>